Primae-Cursive Light.ufo
<glyph name="parenright" format="2">
	<unicode hex="0029"/>
	<advance width="744"/>
	<outline>
		<contour>
			<point x="364" y="1631" type="curve" smooth="yes"/>
			<point x="340" y="1631"/>
			<point x="313" y="1614"/>
			<point x="313" y="1589" type="curve" smooth="yes"/>
			<point x="313" y="1580"/>
			<point x="318" y="1570"/>
			<point x="329" y="1552" type="curve" smooth="yes"/>
			<point x="338" y="1537"/>
			<point x="347" y="1522"/>
			<point x="372" y="1474" type="curve" smooth="yes"/>
			<point x="469" y="1290"/>
			<point x="519" y="1103"/>
			<point x="519" y="879" type="curve" smooth="yes"/>
			<point x="519" y="509"/>
			<point x="333" y="89"/>
			<point x="53" y="-187" type="curve" smooth="yes"/>
			<point x="-7" y="-247"/>
			<point x="-20" y="-261"/>
			<point x="-20" y="-273" type="curve" smooth="yes"/>
			<point x="-20" y="-292"/>
			<point x="-7" y="-299"/>
			<point x="8" y="-299" type="curve" smooth="yes"/>
			<point x="30" y="-299"/>
			<point x="44" y="-287"/>
			<point x="118" y="-213" type="curve" smooth="yes"/>
			<point x="401" y="69"/>
			<point x="594" y="496"/>
			<point x="594" y="886" type="curve" smooth="yes"/>
			<point x="594" y="1166"/>
			<point x="523" y="1399"/>
			<point x="432" y="1560" type="curve" smooth="yes"/>
			<point x="401" y="1615"/>
			<point x="385" y="1631"/>
		</contour>
	</outline>
</glyph>
<glyph name="plus" format="2">
	<unicode hex="002B"/>
	<advance width="1200"/>
	<outline>
		<contour>
			<point x="499" y="346" type="curve" smooth="yes"/>
			<point x="519" y="346"/>
			<point x="532" y="357"/>
			<point x="536" y="374" type="curve" smooth="yes"/>
			<point x="743" y="1217" type="line" smooth="yes"/>
			<point x="745" y="1225"/>
			<point x="745" y="1231"/>
			<point x="745" y="1237" type="curve" smooth="yes"/>
			<point x="745" y="1255"/>
			<point x="727" y="1271"/>
			<point x="708" y="1271" type="curve" smooth="yes"/>
			<point x="690" y="1271"/>
			<point x="675" y="1257"/>
			<point x="671" y="1242" type="curve" smooth="yes"/>
			<point x="464" y="395" type="line" smooth="yes"/>
			<point x="463" y="391"/>
			<point x="463" y="387"/>
			<point x="463" y="382" type="curve" smooth="yes"/>
			<point x="463" y="364"/>
			<point x="479" y="346"/>
		</contour>
		<contour>
			<point x="236" y="768" type="curve" smooth="yes"/>
			<point x="480" y="768"/>
			<point x="773" y="768"/>
			<point x="965" y="777" type="curve" smooth="yes"/>
			<point x="1026" y="780"/>
			<point x="1042" y="797"/>
			<point x="1042" y="819" type="curve" smooth="yes"/>
			<point x="1042" y="836"/>
			<point x="1030" y="846"/>
			<point x="994" y="846" type="curve" smooth="yes"/>
			<point x="804" y="844"/>
			<point x="484" y="843"/>
			<point x="236" y="843" type="curve" smooth="yes"/>
			<point x="196" y="843"/>
			<point x="185" y="826"/>
			<point x="185" y="805" type="curve" smooth="yes"/>
			<point x="185" y="784"/>
			<point x="196" y="768"/>
		</contour>
	</outline>
</glyph>
<glyph name="hyphen" format="2">
	<unicode hex="002D"/>
	<advance width="931"/>
	<outline>
		<contour>
			<point x="195" y="630" type="curve" smooth="yes"/>
			<point x="372" y="630"/>
			<point x="575" y="638"/>
			<point x="700" y="650" type="curve" smooth="yes"/>
			<point x="763" y="656"/>
			<point x="781" y="669"/>
			<point x="781" y="691" type="curve" smooth="yes"/>
			<point x="781" y="706"/>
			<point x="768" y="719"/>
			<point x="743" y="719" type="curve" smooth="yes"/>
			<point x="724" y="719"/>
			<point x="697" y="718"/>
			<point x="642" y="714" type="curve" smooth="yes"/>
			<point x="566" y="709"/>
			<point x="373" y="705"/>
			<point x="195" y="705" type="curve" smooth="yes"/>
			<point x="166" y="705"/>
			<point x="150" y="688"/>
			<point x="150" y="667" type="curve" smooth="yes"/>
			<point x="150" y="646"/>
			<point x="166" y="630"/>
		</contour>
	</outline>
</glyph>
<glyph name="slash" format="2">
	<unicode hex="002F"/>
	<advance width="970"/>
	<outline>
		<contour>
			<point x="38" y="-112" type="curve" smooth="yes"/>
			<point x="52" y="-112"/>
			<point x="64" y="-104"/>
			<point x="70" y="-93" type="curve" smooth="yes"/>
			<point x="1024" y="1599" type="line" smooth="yes"/>
			<point x="1027" y="1605"/>
			<point x="1030" y="1612"/>
			<point x="1030" y="1619" type="curve" smooth="yes"/>
			<point x="1030" y="1640"/>
			<point x="1013" y="1657"/>
			<point x="992" y="1657" type="curve" smooth="yes"/>
			<point x="978" y="1657"/>
			<point x="966" y="1649"/>
			<point x="960" y="1638" type="curve" smooth="yes"/>
			<point x="6" y="-54" type="line" smooth="yes"/>
			<point x="3" y="-60"/>
			<point x="0" y="-67"/>
			<point x="0" y="-74" type="curve" smooth="yes"/>
			<point x="0" y="-95"/>
			<point x="17" y="-112"/>
		</contour>
	</outline>
</glyph>
<glyph name="one" format="2">
	<unicode hex="0031"/>
	<advance width="899"/>
	<outline>
		<contour>
			<point x="370" y="-12" type="curve" smooth="yes"/>
			<point x="390" y="-12"/>
			<point x="400" y="-2"/>
			<point x="408" y="32" type="curve" smooth="yes"/>
			<point x="529" y="546"/>
			<point x="660" y="1050"/>
			<point x="788" y="1477" type="curve" smooth="yes"/>
			<point x="807" y="1541"/>
			<point x="814" y="1567"/>
			<point x="814" y="1585" type="curve" smooth="yes"/>
			<point x="814" y="1604"/>
			<point x="804" y="1618"/>
			<point x="781" y="1618" type="curve" smooth="yes"/>
			<point x="769" y="1618"/>
			<point x="758" y="1612"/>
			<point x="738" y="1599" type="curve" smooth="yes"/>
			<point x="612" y="1518"/>
			<point x="420" y="1412"/>
			<point x="199" y="1307" type="curve" smooth="yes"/>
			<point x="162" y="1289"/>
			<point x="160" y="1287"/>
			<point x="160" y="1270" type="curve" smooth="yes"/>
			<point x="160" y="1255"/>
			<point x="175" y="1231"/>
			<point x="194" y="1231" type="curve" smooth="yes"/>
			<point x="205" y="1231"/>
			<point x="216" y="1233"/>
			<point x="256" y="1252" type="curve" smooth="yes"/>
			<point x="456" y="1347"/>
			<point x="634" y="1445"/>
			<point x="761" y="1527" type="curve"/>
			<point x="730" y="1545" type="line"/>
			<point x="592" y="1079"/>
			<point x="462" y="592"/>
			<point x="329" y="63" type="curve" smooth="yes"/>
			<point x="327" y="54"/>
			<point x="325" y="45"/>
			<point x="325" y="34" type="curve" smooth="yes"/>
			<point x="325" y="11"/>
			<point x="347" y="-12"/>
		</contour>
	</outline>
</glyph>
<glyph name="six" format="2">
	<unicode hex="0036"/>
	<advance width="1188"/>
	<outline>
		<contour>
			<point x="1039" y="1494" type="curve" smooth="yes"/>
			<point x="1059" y="1482"/>
			<point x="1063" y="1480"/>
			<point x="1072" y="1480" type="curve" smooth="yes"/>
			<point x="1090" y="1480"/>
			<point x="1108" y="1497"/>
			<point x="1108" y="1518" type="curve" smooth="yes"/>
			<point x="1108" y="1533"/>
			<point x="1097" y="1548"/>
			<point x="1063" y="1569" type="curve" smooth="yes"/>
			<point x="996" y="1610"/>
			<point x="925" y="1625"/>
			<point x="853" y="1625" type="curve" smooth="yes"/>
			<point x="508" y="1625"/>
			<point x="160" y="1095"/>
			<point x="160" y="499" type="curve" smooth="yes"/>
			<point x="160" y="146"/>
			<point x="298" y="-15"/>
			<point x="492" y="-15" type="curve" smooth="yes"/>
			<point x="741" y="-15"/>
			<point x="990" y="271"/>
			<point x="990" y="616" type="curve" smooth="yes"/>
			<point x="990" y="820"/>
			<point x="881" y="935"/>
			<point x="702" y="935" type="curve" smooth="yes"/>
			<point x="525" y="935"/>
			<point x="358" y="829"/>
			<point x="198" y="630" type="curve"/>
			<point x="238" y="588" type="line"/>
			<point x="390" y="771"/>
			<point x="548" y="860"/>
			<point x="686" y="860" type="curve" smooth="yes"/>
			<point x="826" y="860"/>
			<point x="910" y="767"/>
			<point x="910" y="601" type="curve" smooth="yes"/>
			<point x="910" y="302"/>
			<point x="699" y="63"/>
			<point x="502" y="63" type="curve" smooth="yes"/>
			<point x="354" y="63"/>
			<point x="240" y="184"/>
			<point x="240" y="497" type="curve" smooth="yes"/>
			<point x="240" y="1060"/>
			<point x="558" y="1547"/>
			<point x="851" y="1547" type="curve" smooth="yes"/>
			<point x="920" y="1547"/>
			<point x="976" y="1532"/>
		</contour>
	</outline>
</glyph>
<glyph name="seven" format="2">
	<unicode hex="0037"/>
	<advance width="1160"/>
	<outline>
		<contour>
			<point x="227" y="17" type="curve" smooth="yes"/>
			<point x="369" y="313"/>
			<point x="513" y="571"/>
			<point x="696" y="853" type="curve" smooth="yes"/>
			<point x="853" y="1095"/>
			<point x="1018" y="1298"/>
			<point x="1181" y="1492" type="curve" smooth="yes"/>
			<point x="1217" y="1535"/>
			<point x="1220" y="1548"/>
			<point x="1220" y="1560" type="curve" smooth="yes"/>
			<point x="1220" y="1585"/>
			<point x="1203" y="1603"/>
			<point x="1173" y="1603" type="curve" smooth="yes"/>
			<point x="1159" y="1603"/>
			<point x="1132" y="1602"/>
			<point x="1091" y="1599" type="curve" smooth="yes"/>
			<point x="1028" y="1595"/>
			<point x="911" y="1592"/>
			<point x="748" y="1592" type="curve" smooth="yes"/>
			<point x="617" y="1592"/>
			<point x="505" y="1594"/>
			<point x="439" y="1597" type="curve" smooth="yes"/>
			<point x="394" y="1599"/>
			<point x="358" y="1600"/>
			<point x="330" y="1600" type="curve" smooth="yes"/>
			<point x="297" y="1600"/>
			<point x="285" y="1587"/>
			<point x="285" y="1566" type="curve" smooth="yes"/>
			<point x="285" y="1544"/>
			<point x="304" y="1530"/>
			<point x="328" y="1528" type="curve" smooth="yes"/>
			<point x="399" y="1521"/>
			<point x="568" y="1518"/>
			<point x="718" y="1518" type="curve" smooth="yes"/>
			<point x="894" y="1518"/>
			<point x="1018" y="1524"/>
			<point x="1149" y="1532" type="curve"/>
			<point x="1143" y="1549" type="line"/>
			<point x="947" y="1324"/>
			<point x="774" y="1106"/>
			<point x="608" y="852" type="curve" smooth="yes"/>
			<point x="403" y="539"/>
			<point x="307" y="358"/>
			<point x="173" y="89" type="curve" smooth="yes"/>
			<point x="152" y="46"/>
			<point x="150" y="37"/>
			<point x="150" y="22" type="curve" smooth="yes"/>
			<point x="150" y="2"/>
			<point x="167" y="-12"/>
			<point x="189" y="-12" type="curve" smooth="yes"/>
			<point x="204" y="-12"/>
			<point x="217" y="-5"/>
		</contour>
		<contour>
			<point x="619" y="798" type="curve" smooth="yes"/>
			<point x="706" y="798"/>
			<point x="804" y="801"/>
			<point x="881" y="808" type="curve" smooth="yes"/>
			<point x="944" y="814"/>
			<point x="957" y="828"/>
			<point x="957" y="851" type="curve" smooth="yes"/>
			<point x="957" y="861"/>
			<point x="947" y="873"/>
			<point x="926" y="873" type="curve" smooth="yes"/>
			<point x="916" y="873"/>
			<point x="904" y="873"/>
			<point x="835" y="870" type="curve" smooth="yes"/>
			<point x="774" y="867"/>
			<point x="691" y="866"/>
			<point x="654" y="866" type="curve" smooth="yes"/>
			<point x="619" y="866"/>
			<point x="494" y="867"/>
			<point x="440" y="869" type="curve" smooth="yes"/>
			<point x="390" y="871"/>
			<point x="330" y="873"/>
			<point x="308" y="873" type="curve" smooth="yes"/>
			<point x="279" y="873"/>
			<point x="271" y="856"/>
			<point x="271" y="839" type="curve" smooth="yes"/>
			<point x="271" y="823"/>
			<point x="284" y="810"/>
			<point x="309" y="806" type="curve" smooth="yes"/>
			<point x="344" y="801"/>
			<point x="437" y="798"/>
		</contour>
	</outline>
</glyph>
<glyph name="eight" format="2">
	<unicode hex="0038"/>
	<advance width="1191"/>
	<outline>
		<contour>
			<point x="356" y="1222" type="curve" smooth="yes"/>
			<point x="356" y="1085"/>
			<point x="431" y="977"/>
			<point x="597" y="846" type="curve" smooth="yes"/>
			<point x="812" y="691"/>
			<point x="900" y="558"/>
			<point x="900" y="416" type="curve" smooth="yes"/>
			<point x="900" y="209"/>
			<point x="711" y="63"/>
			<point x="495" y="63" type="curve" smooth="yes"/>
			<point x="315" y="63"/>
			<point x="178" y="162"/>
			<point x="178" y="341" type="curve" smooth="yes"/>
			<point x="178" y="513"/>
			<point x="307" y="692"/>
			<point x="638" y="842" type="curve"/>
			<point x="581" y="886" type="line"/>
			<point x="225" y="725"/>
			<point x="100" y="531"/>
			<point x="100" y="326" type="curve" smooth="yes"/>
			<point x="100" y="118"/>
			<point x="267" y="-12"/>
			<point x="487" y="-12" type="curve" smooth="yes"/>
			<point x="746" y="-12"/>
			<point x="975" y="154"/>
			<point x="975" y="423" type="curve" smooth="yes"/>
			<point x="975" y="585"/>
			<point x="888" y="721"/>
			<point x="676" y="881" type="curve" smooth="yes"/>
			<point x="512" y="1004"/>
			<point x="429" y="1100"/>
			<point x="429" y="1227" type="curve" smooth="yes"/>
			<point x="429" y="1419"/>
			<point x="601" y="1550"/>
			<point x="777" y="1550" type="curve" smooth="yes"/>
			<point x="924" y="1550"/>
			<point x="1036" y="1456"/>
			<point x="1036" y="1317" type="curve" smooth="yes"/>
			<point x="1036" y="1154"/>
			<point x="886" y="1017"/>
			<point x="616" y="902" type="curve"/>
			<point x="674" y="858" type="line"/>
			<point x="962" y="985"/>
			<point x="1111" y="1132"/>
			<point x="1111" y="1336" type="curve" smooth="yes"/>
			<point x="1111" y="1501"/>
			<point x="984" y="1625"/>
			<point x="790" y="1625" type="curve" smooth="yes"/>
			<point x="524" y="1625"/>
			<point x="356" y="1423"/>
		</contour>
	</outline>
</glyph>
<glyph name="greater" format="2">
	<unicode hex="003E"/>
	<advance width="1200"/>
	<outline>
		<contour>
			<point x="373" y="1248" type="curve" smooth="yes"/>
			<point x="352" y="1248"/>
			<point x="340" y="1230"/>
			<point x="340" y="1214" type="curve" smooth="yes"/>
			<point x="340" y="1201"/>
			<point x="350" y="1191"/>
			<point x="381" y="1168" type="curve" smooth="yes"/>
			<point x="872" y="807" type="line" smooth="yes"/>
			<point x="900" y="787"/>
			<point x="907" y="783"/>
			<point x="907" y="775" type="curve" smooth="yes"/>
			<point x="907" y="768"/>
			<point x="896" y="761"/>
			<point x="859" y="743" type="curve" smooth="yes"/>
			<point x="156" y="400" type="line" smooth="yes"/>
			<point x="124" y="384"/>
			<point x="114" y="376"/>
			<point x="114" y="361" type="curve" smooth="yes"/>
			<point x="114" y="340"/>
			<point x="131" y="321"/>
			<point x="148" y="321" type="curve" smooth="yes"/>
			<point x="162" y="321"/>
			<point x="173" y="325"/>
			<point x="201" y="339" type="curve" smooth="yes"/>
			<point x="883" y="688" type="line" smooth="yes"/>
			<point x="959" y="727"/>
			<point x="975" y="747"/>
			<point x="975" y="774" type="curve" smooth="yes"/>
			<point x="975" y="795"/>
			<point x="967" y="811"/>
			<point x="914" y="851" type="curve" smooth="yes"/>
			<point x="431" y="1216" type="line" smooth="yes"/>
			<point x="397" y="1242"/>
			<point x="387" y="1248"/>
		</contour>
	</outline>
</glyph>
<glyph name="at" format="2">
	<unicode hex="0040"/>
	<advance width="2221"/>
	<outline>
		<contour>
			<point x="100" y="327" type="curve" smooth="yes"/>
			<point x="100" y="-223"/>
			<point x="477" y="-510"/>
			<point x="1024" y="-510" type="curve" smooth="yes"/>
			<point x="1210" y="-510"/>
			<point x="1384" y="-477"/>
			<point x="1491" y="-439" type="curve" smooth="yes"/>
			<point x="1549" y="-418"/>
			<point x="1576" y="-399"/>
			<point x="1576" y="-379" type="curve" smooth="yes"/>
			<point x="1576" y="-367"/>
			<point x="1566" y="-347"/>
			<point x="1545" y="-347" type="curve" smooth="yes"/>
			<point x="1535" y="-347"/>
			<point x="1513" y="-353"/>
			<point x="1467" y="-368" type="curve" smooth="yes"/>
			<point x="1352" y="-405"/>
			<point x="1194" y="-430"/>
			<point x="1038" y="-430" type="curve" smooth="yes"/>
			<point x="526" y="-430"/>
			<point x="185" y="-166"/>
			<point x="185" y="331" type="curve" smooth="yes"/>
			<point x="185" y="879"/>
			<point x="596" y="1370"/>
			<point x="1205" y="1370" type="curve" smooth="yes"/>
			<point x="1662" y="1370"/>
			<point x="1956" y="1116"/>
			<point x="1956" y="705" type="curve" smooth="yes"/>
			<point x="1956" y="347"/>
			<point x="1717" y="66"/>
			<point x="1364" y="66" type="curve" smooth="yes"/>
			<point x="1283" y="66"/>
			<point x="1263" y="95"/>
			<point x="1263" y="144" type="curve" smooth="yes"/>
			<point x="1263" y="176"/>
			<point x="1271" y="233"/>
			<point x="1319" y="402" type="curve" smooth="yes"/>
			<point x="1441" y="831" type="line" smooth="yes"/>
			<point x="1449" y="859"/>
			<point x="1456" y="889"/>
			<point x="1456" y="903" type="curve" smooth="yes"/>
			<point x="1456" y="928"/>
			<point x="1435" y="935"/>
			<point x="1419" y="935" type="curve" smooth="yes"/>
			<point x="1394" y="935"/>
			<point x="1379" y="919"/>
			<point x="1372" y="891" type="curve" smooth="yes"/>
			<point x="1342" y="778" type="line" smooth="yes"/>
			<point x="1233" y="380"/>
			<point x="958" y="63"/>
			<point x="828" y="63" type="curve" smooth="yes"/>
			<point x="777" y="63"/>
			<point x="743" y="113"/>
			<point x="743" y="261" type="curve" smooth="yes"/>
			<point x="743" y="561"/>
			<point x="931" y="860"/>
			<point x="1118" y="860" type="curve" smooth="yes"/>
			<point x="1194" y="860"/>
			<point x="1275" y="838"/>
			<point x="1365" y="791" type="curve"/>
			<point x="1382" y="856" type="line"/>
			<point x="1283" y="905"/>
			<point x="1175" y="935"/>
			<point x="1111" y="935" type="curve" smooth="yes"/>
			<point x="885" y="935"/>
			<point x="663" y="604"/>
			<point x="663" y="248" type="curve" smooth="yes"/>
			<point x="663" y="73"/>
			<point x="725" y="-12"/>
			<point x="811" y="-12" type="curve" smooth="yes"/>
			<point x="968" y="-12"/>
			<point x="1134" y="193"/>
			<point x="1257" y="426" type="curve"/>
			<point x="1256" y="445" type="line"/>
			<point x="1197" y="254"/>
			<point x="1184" y="189"/>
			<point x="1184" y="138" type="curve" smooth="yes"/>
			<point x="1184" y="21"/>
			<point x="1258" y="-12"/>
			<point x="1356" y="-12" type="curve" smooth="yes"/>
			<point x="1748" y="-12"/>
			<point x="2041" y="314"/>
			<point x="2041" y="720" type="curve" smooth="yes"/>
			<point x="2041" y="1150"/>
			<point x="1712" y="1450"/>
			<point x="1211" y="1450" type="curve" smooth="yes"/>
			<point x="550" y="1450"/>
			<point x="100" y="928"/>
		</contour>
	</outline>
</glyph>
<glyph name="A" format="2">
	<unicode hex="0041"/>
	<advance width="1362"/>
	<outline>
		<contour>
			<point x="1164" y="1538" type="curve" smooth="yes"/>
			<point x="760" y="1045"/>
			<point x="313" y="509"/>
			<point x="-67" y="78" type="curve" smooth="yes"/>
			<point x="-87" y="56"/>
			<point x="-100" y="46"/>
			<point x="-100" y="26" type="curve" smooth="yes"/>
			<point x="-100" y="5"/>
			<point x="-81" y="-12"/>
			<point x="-61" y="-12" type="curve" smooth="yes"/>
			<point x="-44" y="-12"/>
			<point x="-32" y="-5"/>
			<point x="-5" y="27" type="curve" smooth="yes"/>
			<point x="375" y="470"/>
			<point x="811" y="983"/>
			<point x="1211" y="1484" type="curve"/>
			<point x="1202" y="1497" type="line"/>
			<point x="904" y="64" type="line" smooth="yes"/>
			<point x="898" y="37"/>
			<point x="897" y="27"/>
			<point x="897" y="18" type="curve" smooth="yes"/>
			<point x="897" y="-1"/>
			<point x="916" y="-12"/>
			<point x="938" y="-12" type="curve" smooth="yes"/>
			<point x="958" y="-12"/>
			<point x="970" y="-3"/>
			<point x="977" y="32" type="curve" smooth="yes"/>
			<point x="1264" y="1463" type="line" smooth="yes"/>
			<point x="1280" y="1542"/>
			<point x="1282" y="1559"/>
			<point x="1282" y="1570" type="curve" smooth="yes"/>
			<point x="1282" y="1589"/>
			<point x="1264" y="1605"/>
			<point x="1239" y="1605" type="curve" smooth="yes"/>
			<point x="1223" y="1605"/>
			<point x="1213" y="1598"/>
		</contour>
	</outline>
	<anchor name="bottom" x="461" y="0"/>
	<anchor name="ogonek" x="862" y="0"/>
	<anchor name="top" x="1240" y="1600"/>
</glyph>
<glyph name="B" format="2">
	<unicode hex="0042"/>
	<advance width="1176"/>
	<outline>
		<contour>
			<point x="228" y="55" type="line"/>
			<point x="637" y="1555" type="line"/>
			<point x="556" y="1545" type="line"/>
			<point x="151" y="68" type="line"/>
		</contour>
		<contour>
			<point x="454" y="868" type="curve" smooth="yes"/>
			<point x="434" y="868" type="line"/>
			<point x="406" y="793" type="line"/>
			<point x="726" y="798"/>
			<point x="899" y="651"/>
			<point x="899" y="446" type="curve" smooth="yes"/>
			<point x="899" y="200"/>
			<point x="638" y="63"/>
			<point x="354" y="63" type="curve" smooth="yes"/>
			<point x="251" y="63"/>
			<point x="159" y="81"/>
			<point x="86" y="106" type="curve" smooth="yes"/>
			<point x="53" y="118"/>
			<point x="42" y="121"/>
			<point x="36" y="121" type="curve" smooth="yes"/>
			<point x="15" y="121"/>
			<point x="0" y="105"/>
			<point x="0" y="86" type="curve" smooth="yes"/>
			<point x="0" y="41"/>
			<point x="173" y="-12"/>
			<point x="343" y="-12" type="curve" smooth="yes"/>
			<point x="684" y="-12"/>
			<point x="979" y="162"/>
			<point x="979" y="442" type="curve" smooth="yes"/>
			<point x="979" y="632"/>
			<point x="845" y="792"/>
			<point x="628" y="833" type="curve"/>
			<point x="628" y="823" type="line"/>
			<point x="888" y="856"/>
			<point x="1100" y="1025"/>
			<point x="1100" y="1258" type="curve" smooth="yes"/>
			<point x="1100" y="1452"/>
			<point x="936" y="1612"/>
			<point x="681" y="1612" type="curve" smooth="yes"/>
			<point x="549" y="1612"/>
			<point x="440" y="1590"/>
			<point x="440" y="1553" type="curve" smooth="yes"/>
			<point x="440" y="1540"/>
			<point x="451" y="1524"/>
			<point x="464" y="1524" type="curve" smooth="yes"/>
			<point x="481" y="1524"/>
			<point x="543" y="1529"/>
			<point x="578" y="1532" type="curve" smooth="yes"/>
			<point x="615" y="1535"/>
			<point x="644" y="1537"/>
			<point x="677" y="1537" type="curve" smooth="yes"/>
			<point x="876" y="1537"/>
			<point x="1020" y="1419"/>
			<point x="1020" y="1248" type="curve" smooth="yes"/>
			<point x="1020" y="1033"/>
			<point x="807" y="868"/>
		</contour>
	</outline>
	<anchor name="bottom" x="445" y="0"/>
	<anchor name="center" x="430" y="840"/>
	<anchor name="top" x="793" y="1600"/>
</glyph>
<glyph name="E" format="2">
	<unicode hex="0045"/>
	<advance width="602"/>
	<outline>
		<contour>
			<point x="526" y="-12" type="curve" smooth="yes"/>
			<point x="553" y="-12"/>
			<point x="585" y="1"/>
			<point x="585" y="34" type="curve" smooth="yes"/>
			<point x="585" y="55"/>
			<point x="564" y="63"/>
			<point x="546" y="63" type="curve" smooth="yes"/>
			<point x="312" y="63"/>
			<point x="166" y="178"/>
			<point x="166" y="378" type="curve" smooth="yes"/>
			<point x="166" y="591"/>
			<point x="339" y="781"/>
			<point x="592" y="833" type="curve"/>
			<point x="626" y="821"/>
			<point x="660" y="815"/>
			<point x="688" y="815" type="curve" smooth="yes"/>
			<point x="718" y="815"/>
			<point x="753" y="836"/>
			<point x="753" y="878" type="curve" smooth="yes"/>
			<point x="753" y="895"/>
			<point x="742" y="906"/>
			<point x="716" y="906" type="curve" smooth="yes"/>
			<point x="698" y="906"/>
			<point x="636" y="899"/>
			<point x="611" y="895" type="curve"/>
			<point x="491" y="945"/>
			<point x="413" y="1040"/>
			<point x="413" y="1173" type="curve" smooth="yes"/>
			<point x="413" y="1374"/>
			<point x="582" y="1550"/>
			<point x="788" y="1550" type="curve" smooth="yes"/>
			<point x="878" y="1550"/>
			<point x="959" y="1521"/>
			<point x="1027" y="1471" type="curve" smooth="yes"/>
			<point x="1057" y="1449"/>
			<point x="1065" y="1445"/>
			<point x="1078" y="1445" type="curve" smooth="yes"/>
			<point x="1092" y="1445"/>
			<point x="1110" y="1462"/>
			<point x="1110" y="1479" type="curve" smooth="yes"/>
			<point x="1110" y="1489"/>
			<point x="1105" y="1499"/>
			<point x="1071" y="1527" type="curve" smooth="yes"/>
			<point x="1002" y="1584"/>
			<point x="901" y="1625"/>
			<point x="792" y="1625" type="curve" smooth="yes"/>
			<point x="531" y="1625"/>
			<point x="335" y="1403"/>
			<point x="335" y="1182" type="curve" smooth="yes"/>
			<point x="335" y="1045"/>
			<point x="402" y="930"/>
			<point x="534" y="863" type="curve"/>
			<point x="539" y="878" type="line"/>
			<point x="302" y="824"/>
			<point x="90" y="613"/>
			<point x="90" y="363" type="curve" smooth="yes"/>
			<point x="90" y="127"/>
			<point x="265" y="-12"/>
		</contour>
	</outline>
	<anchor name="bottom" x="496" y="-20"/>
	<anchor name="ogonek" x="646" y="0"/>
	<anchor name="top" x="791" y="1600"/>
	<anchor name="topleft" x="523" y="1600"/>
</glyph>
<glyph name="F" format="2">
	<unicode hex="0046"/>
	<advance width="1138"/>
	<outline>
		<contour>
			<point x="178" y="34" type="curve" smooth="yes"/>
			<point x="273" y="471"/>
			<point x="442" y="1085"/>
			<point x="582" y="1540" type="curve"/>
			<point x="504" y="1540" type="line"/>
			<point x="375" y="1131"/>
			<point x="204" y="508"/>
			<point x="124" y="141" type="curve" smooth="yes"/>
			<point x="102" y="40"/>
			<point x="100" y="25"/>
			<point x="100" y="15" type="curve" smooth="yes"/>
			<point x="100" y="-3"/>
			<point x="117" y="-12"/>
			<point x="138" y="-12" type="curve" smooth="yes"/>
			<point x="156" y="-12"/>
			<point x="171" y="1"/>
		</contour>
		<contour>
			<point x="456" y="1527" type="curve" smooth="yes"/>
			<point x="506" y="1527"/>
			<point x="1106" y="1533"/>
			<point x="1207" y="1536" type="curve" smooth="yes"/>
			<point x="1240" y="1537"/>
			<point x="1258" y="1552"/>
			<point x="1258" y="1574" type="curve" smooth="yes"/>
			<point x="1258" y="1593"/>
			<point x="1243" y="1611"/>
			<point x="1221" y="1611" type="curve" smooth="yes"/>
			<point x="1120" y="1611"/>
			<point x="492" y="1602"/>
			<point x="458" y="1600" type="curve" smooth="yes"/>
			<point x="427" y="1598"/>
			<point x="410" y="1582"/>
			<point x="410" y="1562" type="curve" smooth="yes"/>
			<point x="410" y="1541"/>
			<point x="427" y="1527"/>
		</contour>
		<contour>
			<point x="658" y="883" type="curve" smooth="yes"/>
			<point x="375" y="878" type="line"/>
			<point x="361" y="803" type="line"/>
			<point x="444" y="806"/>
			<point x="812" y="811"/>
			<point x="869" y="811" type="curve" smooth="yes"/>
			<point x="902" y="811"/>
			<point x="922" y="828"/>
			<point x="922" y="851" type="curve" smooth="yes"/>
			<point x="922" y="869"/>
			<point x="905" y="886"/>
			<point x="881" y="886" type="curve" smooth="yes"/>
			<point x="842" y="886"/>
			<point x="752" y="885"/>
		</contour>
	</outline>
</glyph>
<glyph name="I" format="2">
	<unicode hex="0049"/>
	<advance width="637"/>
	<outline>
		<contour>
			<point x="188" y="34" type="curve" smooth="yes"/>
			<point x="284" y="418"/>
			<point x="469" y="1108"/>
			<point x="589" y="1530" type="curve" smooth="yes"/>
			<point x="594" y="1548"/>
			<point x="597" y="1563"/>
			<point x="597" y="1571" type="curve" smooth="yes"/>
			<point x="597" y="1588"/>
			<point x="576" y="1600"/>
			<point x="555" y="1600" type="curve" smooth="yes"/>
			<point x="535" y="1600"/>
			<point x="525" y="1586"/>
			<point x="520" y="1569" type="curve" smooth="yes"/>
			<point x="398" y="1123"/>
			<point x="217" y="453"/>
			<point x="143" y="167" type="curve" smooth="yes"/>
			<point x="112" y="48"/>
			<point x="110" y="25"/>
			<point x="110" y="15" type="curve" smooth="yes"/>
			<point x="110" y="-3"/>
			<point x="127" y="-12"/>
			<point x="148" y="-12" type="curve" smooth="yes"/>
			<point x="166" y="-12"/>
			<point x="180" y="1"/>
		</contour>
	</outline>
	<anchor name="bottom" x="140" y="0"/>
	<anchor name="ogonek" x="66" y="0"/>
	<anchor name="top" x="560" y="1600"/>
	<anchor name="topleft" x="472" y="1600"/>
</glyph>
<glyph name="J" format="2">
	<unicode hex="004A"/>
	<advance width="602"/>
	<outline>
		<contour>
			<point x="363" y="-82" type="curve"/>
			<point x="384" y="5" type="line"/>
			<point x="15" y="-241"/>
			<point x="-140" y="-421"/>
			<point x="-140" y="-557" type="curve" smooth="yes"/>
			<point x="-140" y="-641"/>
			<point x="-84" y="-690"/>
			<point x="-10" y="-690" type="curve" smooth="yes"/>
			<point x="144" y="-690"/>
			<point x="318" y="-558"/>
			<point x="418" y="-106" type="curve" smooth="yes"/>
			<point x="558" y="527"/>
			<point x="738" y="1213"/>
			<point x="797" y="1397" type="curve" smooth="yes"/>
			<point x="832" y="1505"/>
			<point x="845" y="1548"/>
			<point x="845" y="1571" type="curve" smooth="yes"/>
			<point x="845" y="1588"/>
			<point x="837" y="1605"/>
			<point x="807" y="1605" type="curve" smooth="yes"/>
			<point x="798" y="1605"/>
			<point x="790" y="1604"/>
			<point x="761" y="1600" type="curve" smooth="yes"/>
			<point x="714" y="1594"/>
			<point x="647" y="1589"/>
			<point x="566" y="1589" type="curve" smooth="yes"/>
			<point x="512" y="1589"/>
			<point x="460" y="1591"/>
			<point x="392" y="1597" type="curve" smooth="yes"/>
			<point x="356" y="1600"/>
			<point x="344" y="1601"/>
			<point x="333" y="1601" type="curve" smooth="yes"/>
			<point x="312" y="1601"/>
			<point x="297" y="1586"/>
			<point x="297" y="1563" type="curve" smooth="yes"/>
			<point x="297" y="1542"/>
			<point x="315" y="1531"/>
			<point x="355" y="1525" type="curve" smooth="yes"/>
			<point x="409" y="1517"/>
			<point x="482" y="1514"/>
			<point x="549" y="1514" type="curve" smooth="yes"/>
			<point x="631" y="1514"/>
			<point x="710" y="1520"/>
			<point x="782" y="1534" type="curve"/>
			<point x="766" y="1548" type="line"/>
			<point x="621" y="1120"/>
			<point x="483" y="518"/>
			<point x="332" y="-141" type="curve" smooth="yes"/>
			<point x="252" y="-486"/>
			<point x="103" y="-615"/>
			<point x="7" y="-615" type="curve" smooth="yes"/>
			<point x="-41" y="-615"/>
			<point x="-65" y="-591"/>
			<point x="-65" y="-551" type="curve" smooth="yes"/>
			<point x="-65" y="-444"/>
			<point x="75" y="-292"/>
		</contour>
	</outline>
	<anchor name="bottom" x="0" y="-670"/>
	<anchor name="center" x="531" y="717"/>
	<anchor name="top" x="788" y="1600"/>
</glyph>
<glyph name="K" format="2">
	<unicode hex="004B"/>
	<advance width="1027"/>
	<outline>
		<contour>
			<point x="188" y="34" type="curve" smooth="yes"/>
			<point x="292" y="451"/>
			<point x="487" y="1170"/>
			<point x="589" y="1530" type="curve" smooth="yes"/>
			<point x="594" y="1548"/>
			<point x="597" y="1563"/>
			<point x="597" y="1571" type="curve" smooth="yes"/>
			<point x="597" y="1588"/>
			<point x="576" y="1600"/>
			<point x="555" y="1600" type="curve" smooth="yes"/>
			<point x="535" y="1600"/>
			<point x="526" y="1586"/>
			<point x="522" y="1570" type="curve" smooth="yes"/>
			<point x="399" y="1123"/>
			<point x="217" y="453"/>
			<point x="143" y="167" type="curve" smooth="yes"/>
			<point x="112" y="48"/>
			<point x="110" y="25"/>
			<point x="110" y="15" type="curve" smooth="yes"/>
			<point x="110" y="-3"/>
			<point x="127" y="-12"/>
			<point x="148" y="-12" type="curve" smooth="yes"/>
			<point x="166" y="-12"/>
			<point x="180" y="1"/>
		</contour>
		<contour>
			<point x="404" y="895" type="curve"/>
			<point x="370" y="761" type="line"/>
			<point x="416" y="668"/>
			<point x="487" y="523"/>
			<point x="596" y="338" type="curve" smooth="yes"/>
			<point x="746" y="82"/>
			<point x="815" y="-12"/>
			<point x="943" y="-12" type="curve" smooth="yes"/>
			<point x="980" y="-12"/>
			<point x="1001" y="12"/>
			<point x="1001" y="30" type="curve" smooth="yes"/>
			<point x="1001" y="56"/>
			<point x="977" y="63"/>
			<point x="959" y="63" type="curve" smooth="yes"/>
			<point x="854" y="63"/>
			<point x="789" y="154"/>
			<point x="662" y="373" type="curve" smooth="yes"/>
			<point x="537" y="589"/>
			<point x="460" y="742"/>
			<point x="415" y="842" type="curve"/>
			<point x="402" y="814" type="line"/>
			<point x="699" y="1035"/>
			<point x="972" y="1262"/>
			<point x="1243" y="1525" type="curve" smooth="yes"/>
			<point x="1261" y="1542"/>
			<point x="1268" y="1556"/>
			<point x="1268" y="1567" type="curve" smooth="yes"/>
			<point x="1268" y="1587"/>
			<point x="1252" y="1600"/>
			<point x="1233" y="1600" type="curve" smooth="yes"/>
			<point x="1223" y="1600"/>
			<point x="1214" y="1596"/>
			<point x="1173" y="1555" type="curve" smooth="yes"/>
			<point x="940" y="1327"/>
			<point x="677" y="1109"/>
		</contour>
	</outline>
	<anchor name="bottom" x="480" y="0"/>
	<anchor name="top" x="870" y="1600"/>
	<anchor name="topleft" x="472" y="1600"/>
</glyph>
<glyph name="P" format="2">
	<unicode hex="0050"/>
	<advance width="1104"/>
	<outline>
		<contour>
			<point x="143" y="49" type="curve" smooth="yes"/>
			<point x="552" y="1549" type="line"/>
			<point x="473" y="1544" type="line"/>
			<point x="66" y="61" type="line" smooth="yes"/>
			<point x="61" y="43"/>
			<point x="60" y="35"/>
			<point x="60" y="29" type="curve" smooth="yes"/>
			<point x="60" y="10"/>
			<point x="70" y="0"/>
			<point x="90" y="0" type="curve" smooth="yes"/>
			<point x="116" y="0"/>
			<point x="134" y="16"/>
		</contour>
		<contour>
			<point x="329" y="778" type="curve"/>
			<point x="309" y="708" type="line"/>
			<point x="366" y="692"/>
			<point x="441" y="682"/>
			<point x="525" y="682" type="curve" smooth="yes"/>
			<point x="909" y="682"/>
			<point x="1124" y="907"/>
			<point x="1124" y="1174" type="curve" smooth="yes"/>
			<point x="1124" y="1416"/>
			<point x="956" y="1610"/>
			<point x="590" y="1610" type="curve" smooth="yes"/>
			<point x="466" y="1610"/>
			<point x="357" y="1588"/>
			<point x="357" y="1551" type="curve" smooth="yes"/>
			<point x="357" y="1538"/>
			<point x="368" y="1522"/>
			<point x="381" y="1522" type="curve" smooth="yes"/>
			<point x="398" y="1522"/>
			<point x="460" y="1527"/>
			<point x="495" y="1530" type="curve" smooth="yes"/>
			<point x="532" y="1533"/>
			<point x="561" y="1535"/>
			<point x="594" y="1535" type="curve" smooth="yes"/>
			<point x="873" y="1535"/>
			<point x="1046" y="1398"/>
			<point x="1046" y="1171" type="curve" smooth="yes"/>
			<point x="1046" y="944"/>
			<point x="874" y="757"/>
			<point x="523" y="757" type="curve" smooth="yes"/>
			<point x="447" y="757"/>
			<point x="377" y="765"/>
		</contour>
	</outline>
	<anchor name="bottom" x="346" y="0"/>
	<anchor name="top" x="730" y="1600"/>
</glyph>
<glyph name="T" format="2">
	<unicode hex="0054"/>
	<advance width="1068"/>
	<outline>
		<contour>
			<point x="803" y="1543" type="curve"/>
			<point x="725" y="1543" type="line"/>
			<point x="600" y="1138"/>
			<point x="424" y="509"/>
			<point x="344" y="141" type="curve" smooth="yes"/>
			<point x="322" y="40"/>
			<point x="320" y="25"/>
			<point x="320" y="15" type="curve" smooth="yes"/>
			<point x="320" y="-3"/>
			<point x="337" y="-12"/>
			<point x="358" y="-12" type="curve" smooth="yes"/>
			<point x="376" y="-12"/>
			<point x="391" y="1"/>
			<point x="398" y="34" type="curve" smooth="yes"/>
			<point x="495" y="482"/>
			<point x="676" y="1124"/>
		</contour>
		<contour>
			<point x="285" y="1527" type="curve"/>
			<point x="585" y="1529"/>
			<point x="925" y="1532"/>
			<point x="1245" y="1534" type="curve" smooth="yes"/>
			<point x="1284" y="1534"/>
			<point x="1298" y="1551"/>
			<point x="1298" y="1574" type="curve" smooth="yes"/>
			<point x="1298" y="1592"/>
			<point x="1287" y="1607"/>
			<point x="1260" y="1607" type="curve" smooth="yes"/>
			<point x="960" y="1607"/>
			<point x="508" y="1606"/>
			<point x="298" y="1601" type="curve" smooth="yes"/>
			<point x="267" y="1600"/>
			<point x="250" y="1582"/>
			<point x="250" y="1562" type="curve" smooth="yes"/>
			<point x="250" y="1540"/>
			<point x="262" y="1527"/>
		</contour>
	</outline>
	<anchor name="bottom" x="355" y="0"/>
	<anchor name="center" x="540" y="860"/>
	<anchor name="top" x="768" y="1600"/>
</glyph>
<glyph name="V" format="2">
	<unicode hex="0056"/>
	<advance width="1131"/>
	<outline>
		<contour>
			<point x="327" y="1539" type="curve" smooth="yes"/>
			<point x="302" y="145" type="line" smooth="yes"/>
			<point x="301" y="110"/>
			<point x="301" y="83"/>
			<point x="301" y="63" type="curve" smooth="yes"/>
			<point x="301" y="7"/>
			<point x="318" y="-12"/>
			<point x="356" y="-12" type="curve" smooth="yes"/>
			<point x="378" y="-12"/>
			<point x="397" y="4"/>
			<point x="415" y="41" type="curve" smooth="yes"/>
			<point x="732" y="701"/>
			<point x="988" y="1141"/>
			<point x="1220" y="1423" type="curve" smooth="yes"/>
			<point x="1277" y="1492"/>
			<point x="1320" y="1519"/>
			<point x="1361" y="1544" type="curve" smooth="yes"/>
			<point x="1373" y="1551"/>
			<point x="1376" y="1559"/>
			<point x="1376" y="1568" type="curve" smooth="yes"/>
			<point x="1376" y="1583"/>
			<point x="1363" y="1600"/>
			<point x="1341" y="1600" type="curve" smooth="yes"/>
			<point x="1303" y="1600"/>
			<point x="1257" y="1570"/>
			<point x="1189" y="1495" type="curve" smooth="yes"/>
			<point x="972" y="1258"/>
			<point x="674" y="751"/>
			<point x="356" y="70" type="curve"/>
			<point x="369" y="64" type="line"/>
			<point x="404" y="1560" type="line" smooth="yes"/>
			<point x="404" y="1562"/>
			<point x="404" y="1568"/>
			<point x="404" y="1571" type="curve" smooth="yes"/>
			<point x="404" y="1594"/>
			<point x="389" y="1600"/>
			<point x="369" y="1600" type="curve" smooth="yes"/>
			<point x="346" y="1600"/>
			<point x="327" y="1591"/>
			<point x="327" y="1564" type="curve" smooth="yes"/>
			<point x="327" y="1550"/>
			<point x="327" y="1544"/>
		</contour>
	</outline>
	<anchor name="bottom" x="340" y="0"/>
	<anchor name="top" x="840" y="1602"/>
</glyph>
<glyph name="X" format="2">
	<unicode hex="0058"/>
	<advance width="1233"/>
	<outline>
		<contour>
			<point x="-17" y="22" type="curve" smooth="yes"/>
			<point x="604" y="752" type="line"/>
			<point x="575" y="821" type="line"/>
			<point x="-67" y="75" type="line" smooth="yes"/>
			<point x="-95" y="42"/>
			<point x="-100" y="34"/>
			<point x="-100" y="23" type="curve" smooth="yes"/>
			<point x="-100" y="4"/>
			<point x="-85" y="-12"/>
			<point x="-65" y="-12" type="curve" smooth="yes"/>
			<point x="-52" y="-12"/>
			<point x="-40" y="-5"/>
		</contour>
		<contour>
			<point x="1229" y="1566" type="curve" smooth="yes"/>
			<point x="603" y="835" type="line"/>
			<point x="633" y="764" type="line"/>
			<point x="1292" y="1523" type="line" smooth="yes"/>
			<point x="1306" y="1539"/>
			<point x="1313" y="1552"/>
			<point x="1313" y="1563" type="curve" smooth="yes"/>
			<point x="1313" y="1580"/>
			<point x="1298" y="1600"/>
			<point x="1277" y="1600" type="curve" smooth="yes"/>
			<point x="1263" y="1600"/>
			<point x="1251" y="1592"/>
		</contour>
		<contour>
			<point x="831" y="338" type="curve" smooth="yes"/>
			<point x="744" y="522"/>
			<point x="517" y="1060"/>
			<point x="363" y="1556" type="curve" smooth="yes"/>
			<point x="351" y="1595"/>
			<point x="341" y="1600"/>
			<point x="330" y="1600" type="curve" smooth="yes"/>
			<point x="305" y="1600"/>
			<point x="284" y="1580"/>
			<point x="284" y="1561" type="curve" smooth="yes"/>
			<point x="284" y="1540"/>
			<point x="308" y="1453"/>
			<point x="358" y="1308" type="curve" smooth="yes"/>
			<point x="457" y="1021"/>
			<point x="669" y="487"/>
			<point x="771" y="274" type="curve" smooth="yes"/>
			<point x="915" y="-26"/>
			<point x="941" y="-54"/>
			<point x="970" y="-54" type="curve" smooth="yes"/>
			<point x="992" y="-54"/>
			<point x="1013" y="-34"/>
			<point x="1013" y="-15" type="curve" smooth="yes"/>
			<point x="1013" y="1"/>
			<point x="991" y="34"/>
			<point x="965" y="76" type="curve" smooth="yes"/>
			<point x="939" y="118"/>
			<point x="916" y="158"/>
		</contour>
	</outline>
	<anchor name="bottom" x="295" y="0"/>
	<anchor name="top" x="804" y="1600"/>
	<guideline x="-100" y="79" angle="230.2583"/>
</glyph>
<glyph name="f" format="2">
	<unicode hex="0066"/>
	<advance width="145"/>
	<outline>
		<contour>
			<point x="775" y="1550" type="curve" smooth="yes"/>
			<point x="834" y="1550"/>
			<point x="876" y="1528"/>
			<point x="906" y="1511" type="curve" smooth="yes"/>
			<point x="924" y="1501"/>
			<point x="938" y="1494"/>
			<point x="949" y="1494" type="curve" smooth="yes"/>
			<point x="964" y="1494"/>
			<point x="977" y="1510"/>
			<point x="977" y="1527" type="curve" smooth="yes"/>
			<point x="977" y="1558"/>
			<point x="882" y="1625"/>
			<point x="779" y="1625" type="curve" smooth="yes"/>
			<point x="616" y="1625"/>
			<point x="490" y="1444"/>
			<point x="396" y="1045" type="curve" smooth="yes"/>
			<point x="325" y="744"/>
			<point x="265" y="487"/>
			<point x="217" y="272" type="curve"/>
			<point x="166" y="268"/>
			<point x="137" y="259"/>
			<point x="137" y="233" type="curve" smooth="yes"/>
			<point x="137" y="210"/>
			<point x="150" y="194"/>
			<point x="194" y="167" type="curve"/>
			<point x="136" y="-92" type="line" smooth="yes"/>
			<point x="79" y="-349"/>
			<point x="51" y="-536"/>
			<point x="51" y="-609" type="curve" smooth="yes"/>
			<point x="51" y="-648"/>
			<point x="66" y="-670"/>
			<point x="88" y="-670" type="curve" smooth="yes"/>
			<point x="113" y="-670"/>
			<point x="131" y="-649"/>
			<point x="146" y="-569" type="curve" smooth="yes"/>
			<point x="178" y="-396"/>
			<point x="215" y="-185"/>
			<point x="265" y="156" type="curve"/>
			<point x="336" y="467"/>
			<point x="391" y="703"/>
			<point x="465" y="1012" type="curve" smooth="yes"/>
			<point x="560" y="1410"/>
			<point x="650" y="1550"/>
		</contour>
	</outline>
</glyph>
<glyph name="q" format="2">
	<unicode hex="0071"/>
	<advance width="908"/>
	<outline>
		<contour>
			<point x="65" y="248" type="curve" smooth="yes"/>
			<point x="65" y="73"/>
			<point x="127" y="-12"/>
			<point x="213" y="-12" type="curve" smooth="yes"/>
			<point x="370" y="-12"/>
			<point x="535" y="195"/>
			<point x="697" y="488" type="curve"/>
			<point x="674" y="488" type="line"/>
			<point x="588" y="176"/>
			<point x="529" y="-42"/>
			<point x="468" y="-276" type="curve" smooth="yes"/>
			<point x="426" y="-437"/>
			<point x="390" y="-599"/>
			<point x="390" y="-655" type="curve" smooth="yes"/>
			<point x="390" y="-679"/>
			<point x="400" y="-690"/>
			<point x="430" y="-690" type="curve" smooth="yes"/>
			<point x="449" y="-690"/>
			<point x="462" y="-682"/>
			<point x="468" y="-654" type="curve" smooth="yes"/>
			<point x="502" y="-489"/>
			<point x="567" y="-199"/>
			<point x="705" y="316" type="curve" smooth="yes"/>
			<point x="843" y="831" type="line" smooth="yes"/>
			<point x="850" y="857"/>
			<point x="858" y="889"/>
			<point x="858" y="901" type="curve" smooth="yes"/>
			<point x="858" y="929"/>
			<point x="838" y="935"/>
			<point x="817" y="935" type="curve" smooth="yes"/>
			<point x="797" y="935"/>
			<point x="781" y="919"/>
			<point x="774" y="891" type="curve" smooth="yes"/>
			<point x="767" y="864" type="line"/>
			<point x="662" y="911"/>
			<point x="573" y="935"/>
			<point x="515" y="935" type="curve" smooth="yes"/>
			<point x="287" y="935"/>
			<point x="65" y="604"/>
		</contour>
		<contour>
			<point x="145" y="261" type="curve" smooth="yes"/>
			<point x="145" y="561"/>
			<point x="333" y="860"/>
			<point x="520" y="860" type="curve" smooth="yes"/>
			<point x="587" y="860"/>
			<point x="658" y="843"/>
			<point x="750" y="800" type="curve"/>
			<point x="652" y="447"/>
			<point x="381" y="63"/>
			<point x="230" y="63" type="curve" smooth="yes"/>
			<point x="179" y="63"/>
			<point x="145" y="113"/>
		</contour>
	</outline>
</glyph>
<glyph name="r" format="2">
	<unicode hex="0072"/>
	<advance width="745"/>
	<outline>
		<contour>
			<point x="626" y="901" type="curve" smooth="yes"/>
			<point x="626" y="922"/>
			<point x="615" y="933"/>
			<point x="593" y="933" type="curve" smooth="yes"/>
			<point x="463" y="933"/>
			<point x="344" y="741"/>
			<point x="202" y="420" type="curve"/>
			<point x="210" y="417" type="line"/>
			<point x="336" y="837" type="line" smooth="yes"/>
			<point x="343" y="861"/>
			<point x="349" y="885"/>
			<point x="349" y="900" type="curve" smooth="yes"/>
			<point x="349" y="923"/>
			<point x="336" y="935"/>
			<point x="315" y="935" type="curve" smooth="yes"/>
			<point x="295" y="935"/>
			<point x="278" y="924"/>
			<point x="266" y="878" type="curve" smooth="yes"/>
			<point x="50" y="74" type="line" smooth="yes"/>
			<point x="42" y="46"/>
			<point x="40" y="35"/>
			<point x="40" y="25" type="curve" smooth="yes"/>
			<point x="40" y="0"/>
			<point x="61" y="-12"/>
			<point x="80" y="-12" type="curve" smooth="yes"/>
			<point x="105" y="-12"/>
			<point x="117" y="3"/>
			<point x="135" y="75" type="curve" smooth="yes"/>
			<point x="160" y="175"/>
			<point x="191" y="271"/>
			<point x="273" y="452" type="curve" smooth="yes"/>
			<point x="386" y="700"/>
			<point x="498" y="860"/>
			<point x="590" y="860" type="curve" smooth="yes"/>
			<point x="610" y="860"/>
			<point x="626" y="876"/>
		</contour>
	</outline>
	<anchor name="bottom" x="70" y="0"/>
	<anchor name="top" x="501" y="920"/>
</glyph>
<glyph name="y" format="2">
	<unicode hex="0079"/>
	<advance width="804"/>
	<outline>
		<contour>
			<point x="586" y="-69" type="curve"/>
			<point x="604" y="20" type="line"/>
			<point x="197" y="-231"/>
			<point x="74" y="-421"/>
			<point x="74" y="-548" type="curve" smooth="yes"/>
			<point x="74" y="-639"/>
			<point x="130" y="-690"/>
			<point x="216" y="-690" type="curve" smooth="yes"/>
			<point x="360" y="-690"/>
			<point x="523" y="-575"/>
			<point x="599" y="-236" type="curve" smooth="yes"/>
			<point x="618" y="-150"/>
			<point x="656" y="15"/>
			<point x="687" y="157" type="curve" smooth="yes"/>
			<point x="712" y="272"/>
			<point x="742" y="395"/>
			<point x="778" y="529" type="curve" smooth="yes"/>
			<point x="867" y="857"/>
			<point x="880" y="890"/>
			<point x="880" y="902" type="curve" smooth="yes"/>
			<point x="880" y="930"/>
			<point x="860" y="935"/>
			<point x="839" y="935" type="curve" smooth="yes"/>
			<point x="819" y="935"/>
			<point x="803" y="920"/>
			<point x="796" y="892" type="curve" smooth="yes"/>
			<point x="789" y="862"/>
			<point x="782" y="833"/>
			<point x="773" y="803" type="curve" smooth="yes"/>
			<point x="662" y="426"/>
			<point x="351" y="83"/>
			<point x="227" y="83" type="curve" smooth="yes"/>
			<point x="191" y="83"/>
			<point x="169" y="110"/>
			<point x="169" y="183" type="curve" smooth="yes"/>
			<point x="169" y="259"/>
			<point x="179" y="331"/>
			<point x="245" y="534" type="curve" smooth="yes"/>
			<point x="321" y="769"/>
			<point x="348" y="872"/>
			<point x="348" y="902" type="curve" smooth="yes"/>
			<point x="348" y="925"/>
			<point x="337" y="935"/>
			<point x="317" y="935" type="curve" smooth="yes"/>
			<point x="296" y="935"/>
			<point x="278" y="925"/>
			<point x="269" y="878" type="curve" smooth="yes"/>
			<point x="262" y="842"/>
			<point x="243" y="760"/>
			<point x="181" y="563" type="curve" smooth="yes"/>
			<point x="107" y="329"/>
			<point x="89" y="244"/>
			<point x="89" y="164" type="curve" smooth="yes"/>
			<point x="89" y="61"/>
			<point x="139" y="8"/>
			<point x="209" y="8" type="curve" smooth="yes"/>
			<point x="340" y="8"/>
			<point x="555" y="221"/>
			<point x="714" y="521" type="curve"/>
			<point x="711" y="540" type="line"/>
			<point x="672" y="404"/>
			<point x="642" y="280"/>
			<point x="618" y="166" type="curve" smooth="yes"/>
			<point x="586" y="14"/>
			<point x="549" y="-132"/>
			<point x="522" y="-239" type="curve" smooth="yes"/>
			<point x="452" y="-514"/>
			<point x="328" y="-615"/>
			<point x="221" y="-615" type="curve" smooth="yes"/>
			<point x="173" y="-615"/>
			<point x="149" y="-591"/>
			<point x="149" y="-541" type="curve" smooth="yes"/>
			<point x="149" y="-444"/>
			<point x="249" y="-285"/>
		</contour>
	</outline>
	<anchor name="top" x="580" y="920"/>
	<anchor name="topright" x="920" y="920"/>
</glyph>
<glyph name="yen" format="2">
	<unicode hex="00A5"/>
	<advance width="1200"/>
	<outline>
		<contour>
			<point x="383" y="-12" type="curve" smooth="yes"/>
			<point x="406" y="-12"/>
			<point x="420" y="3"/>
			<point x="428" y="34" type="curve" smooth="yes"/>
			<point x="586" y="660" type="line"/>
			<point x="1258" y="1509" type="line" smooth="yes"/>
			<point x="1275" y="1531"/>
			<point x="1288" y="1551"/>
			<point x="1288" y="1568" type="curve" smooth="yes"/>
			<point x="1288" y="1585"/>
			<point x="1274" y="1600"/>
			<point x="1251" y="1600" type="curve" smooth="yes"/>
			<point x="1238" y="1600"/>
			<point x="1227" y="1595"/>
			<point x="1197" y="1557" type="curve" smooth="yes"/>
			<point x="565" y="753" type="line"/>
			<point x="360" y="1563" type="line" smooth="yes"/>
			<point x="353" y="1591"/>
			<point x="347" y="1600"/>
			<point x="322" y="1600" type="curve" smooth="yes"/>
			<point x="301" y="1600"/>
			<point x="280" y="1587"/>
			<point x="280" y="1564" type="curve" smooth="yes"/>
			<point x="280" y="1547"/>
			<point x="283" y="1533"/>
			<point x="287" y="1517" type="curve" smooth="yes"/>
			<point x="503" y="660" type="line"/>
			<point x="348" y="73" type="line" smooth="yes"/>
			<point x="342" y="50"/>
			<point x="338" y="34"/>
			<point x="338" y="25" type="curve" smooth="yes"/>
			<point x="338" y="-2"/>
			<point x="358" y="-12"/>
		</contour>
		<contour>
			<point x="154" y="768" type="curve" smooth="yes"/>
			<point x="502" y="768" type="line"/>
			<point x="481" y="843" type="line"/>
			<point x="169" y="843" type="line" smooth="yes"/>
			<point x="144" y="843"/>
			<point x="116" y="832"/>
			<point x="116" y="797" type="curve" smooth="yes"/>
			<point x="116" y="779"/>
			<point x="129" y="768"/>
		</contour>
		<contour>
			<point x="1033" y="843" type="curve" smooth="yes"/>
			<point x="701" y="843" type="line"/>
			<point x="652" y="768" type="line"/>
			<point x="1018" y="768" type="line" smooth="yes"/>
			<point x="1044" y="768"/>
			<point x="1072" y="781"/>
			<point x="1072" y="811" type="curve" smooth="yes"/>
			<point x="1072" y="833"/>
			<point x="1056" y="843"/>
		</contour>
		<contour>
			<point x="61" y="420" type="curve" smooth="yes"/>
			<point x="925" y="420" type="line" smooth="yes"/>
			<point x="951" y="420"/>
			<point x="979" y="433"/>
			<point x="979" y="463" type="curve" smooth="yes"/>
			<point x="979" y="485"/>
			<point x="963" y="495"/>
			<point x="940" y="495" type="curve" smooth="yes"/>
			<point x="76" y="495" type="line" smooth="yes"/>
			<point x="51" y="495"/>
			<point x="23" y="484"/>
			<point x="23" y="449" type="curve" smooth="yes"/>
			<point x="23" y="431"/>
			<point x="36" y="420"/>
		</contour>
	</outline>
</glyph>
<glyph name="section" format="2">
	<unicode hex="00A7"/>
	<advance width="1063"/>
	<outline>
		<contour>
			<point x="481" y="143" type="curve"/>
			<point x="509" y="76" type="line"/>
			<point x="722" y="141"/>
			<point x="868" y="309"/>
			<point x="868" y="531" type="curve" smooth="yes"/>
			<point x="868" y="717"/>
			<point x="769" y="829"/>
			<point x="675" y="932" type="curve" smooth="yes"/>
			<point x="590" y="1025"/>
			<point x="512" y="1115"/>
			<point x="512" y="1248" type="curve" smooth="yes"/>
			<point x="512" y="1403"/>
			<point x="626" y="1539"/>
			<point x="798" y="1539" type="curve" smooth="yes"/>
			<point x="864" y="1539"/>
			<point x="918" y="1524"/>
			<point x="971" y="1492" type="curve" smooth="yes"/>
			<point x="996" y="1477"/>
			<point x="1005" y="1473"/>
			<point x="1014" y="1473" type="curve" smooth="yes"/>
			<point x="1031" y="1473"/>
			<point x="1047" y="1491"/>
			<point x="1047" y="1509" type="curve" smooth="yes"/>
			<point x="1047" y="1519"/>
			<point x="1038" y="1534"/>
			<point x="1003" y="1557" type="curve" smooth="yes"/>
			<point x="958" y="1587"/>
			<point x="892" y="1614"/>
			<point x="802" y="1614" type="curve" smooth="yes"/>
			<point x="593" y="1614"/>
			<point x="432" y="1451"/>
			<point x="432" y="1233" type="curve" smooth="yes"/>
			<point x="432" y="1076"/>
			<point x="519" y="980"/>
			<point x="607" y="883" type="curve" smooth="yes"/>
			<point x="696" y="785"/>
			<point x="787" y="684"/>
			<point x="787" y="516" type="curve" smooth="yes"/>
			<point x="787" y="340"/>
			<point x="679" y="206"/>
		</contour>
		<contour>
			<point x="542" y="961" type="curve"/>
			<point x="514" y="1028" type="line"/>
			<point x="301" y="963"/>
			<point x="155" y="795"/>
			<point x="155" y="573" type="curve" smooth="yes"/>
			<point x="155" y="387"/>
			<point x="254" y="275"/>
			<point x="348" y="172" type="curve" smooth="yes"/>
			<point x="433" y="79"/>
			<point x="511" y="-11"/>
			<point x="511" y="-144" type="curve" smooth="yes"/>
			<point x="511" y="-299"/>
			<point x="397" y="-435"/>
			<point x="225" y="-435" type="curve" smooth="yes"/>
			<point x="159" y="-435"/>
			<point x="105" y="-420"/>
			<point x="52" y="-388" type="curve" smooth="yes"/>
			<point x="27" y="-373"/>
			<point x="18" y="-369"/>
			<point x="9" y="-369" type="curve" smooth="yes"/>
			<point x="-8" y="-369"/>
			<point x="-24" y="-387"/>
			<point x="-24" y="-405" type="curve" smooth="yes"/>
			<point x="-24" y="-415"/>
			<point x="-15" y="-430"/>
			<point x="20" y="-453" type="curve" smooth="yes"/>
			<point x="65" y="-483"/>
			<point x="131" y="-510"/>
			<point x="221" y="-510" type="curve" smooth="yes"/>
			<point x="430" y="-510"/>
			<point x="591" y="-347"/>
			<point x="591" y="-129" type="curve" smooth="yes"/>
			<point x="591" y="28"/>
			<point x="504" y="124"/>
			<point x="416" y="221" type="curve" smooth="yes"/>
			<point x="327" y="319"/>
			<point x="236" y="420"/>
			<point x="236" y="588" type="curve" smooth="yes"/>
			<point x="236" y="764"/>
			<point x="344" y="898"/>
		</contour>
	</outline>
	<anchor name="bottom" x="442" y="0"/>
</glyph>
<glyph name="registered" format="2">
	<unicode hex="00AE"/>
	<advance width="1826"/>
	<outline>
		<contour>
			<point x="888" y="430" type="curve" smooth="yes"/>
			<point x="1367" y="430"/>
			<point x="1716" y="766"/>
			<point x="1716" y="1283" type="curve" smooth="yes"/>
			<point x="1716" y="1745"/>
			<point x="1436" y="2040"/>
			<point x="968" y="2040" type="curve" smooth="yes"/>
			<point x="488" y="2040"/>
			<point x="140" y="1704"/>
			<point x="140" y="1187" type="curve" smooth="yes"/>
			<point x="140" y="725"/>
			<point x="421" y="430"/>
		</contour>
		<contour>
			<point x="898" y="510" type="curve" smooth="yes"/>
			<point x="472" y="510"/>
			<point x="222" y="774"/>
			<point x="222" y="1192" type="curve" smooth="yes"/>
			<point x="222" y="1671"/>
			<point x="543" y="1960"/>
			<point x="958" y="1960" type="curve" smooth="yes"/>
			<point x="1388" y="1960"/>
			<point x="1634" y="1699"/>
			<point x="1634" y="1282" type="curve" smooth="yes"/>
			<point x="1634" y="804"/>
			<point x="1319" y="510"/>
		</contour>
		<contour>
			<point x="661" y="793" type="curve" smooth="yes"/>
			<point x="693" y="793"/>
			<point x="696" y="809"/>
			<point x="697" y="824" type="curve" smooth="yes"/>
			<point x="761" y="1685" type="line"/>
			<point x="778" y="1687"/>
			<point x="853" y="1689"/>
			<point x="879" y="1689" type="curve" smooth="yes"/>
			<point x="1065" y="1689"/>
			<point x="1153" y="1619"/>
			<point x="1153" y="1490" type="curve" smooth="yes"/>
			<point x="1153" y="1366"/>
			<point x="1045" y="1285"/>
			<point x="869" y="1285" type="curve" smooth="yes"/>
			<point x="709" y="1285" type="line"/>
			<point x="706" y="1219" type="line"/>
			<point x="868" y="1219" type="line" smooth="yes"/>
			<point x="1088" y="1219"/>
			<point x="1224" y="1329"/>
			<point x="1224" y="1497" type="curve" smooth="yes"/>
			<point x="1224" y="1655"/>
			<point x="1114" y="1757"/>
			<point x="886" y="1757" type="curve" smooth="yes"/>
			<point x="843" y="1757"/>
			<point x="761" y="1754"/>
			<point x="733" y="1751" type="curve" smooth="yes"/>
			<point x="705" y="1748"/>
			<point x="694" y="1738"/>
			<point x="692" y="1705" type="curve" smooth="yes"/>
			<point x="630" y="857" type="line" smooth="yes"/>
			<point x="629" y="843"/>
			<point x="628" y="834"/>
			<point x="628" y="825" type="curve" smooth="yes"/>
			<point x="628" y="805"/>
			<point x="632" y="793"/>
		</contour>
		<contour>
			<point x="1187" y="793" type="curve" smooth="yes"/>
			<point x="1206" y="793"/>
			<point x="1227" y="812"/>
			<point x="1227" y="836" type="curve" smooth="yes"/>
			<point x="1227" y="844"/>
			<point x="1223" y="855"/>
			<point x="1210" y="871" type="curve" smooth="yes"/>
			<point x="901" y="1252" type="line"/>
			<point x="845" y="1225" type="line"/>
			<point x="1150" y="821" type="line" smooth="yes"/>
			<point x="1168" y="797"/>
			<point x="1177" y="793"/>
		</contour>
	</outline>
</glyph>
<glyph name="paragraph" format="2">
	<unicode hex="00B6"/>
	<advance width="1251"/>
	<outline>
		<contour>
			<point x="200" y="930" type="curve" smooth="yes"/>
			<point x="200" y="634"/>
			<point x="415" y="472"/>
			<point x="689" y="472" type="curve" smooth="yes"/>
			<point x="834" y="472"/>
			<point x="958" y="513"/>
			<point x="1075" y="588" type="curve" smooth="yes"/>
			<point x="1116" y="614"/>
			<point x="1129" y="628"/>
			<point x="1129" y="640" type="curve" smooth="yes"/>
			<point x="1129" y="653"/>
			<point x="1115" y="672"/>
			<point x="1102" y="672" type="curve" smooth="yes"/>
			<point x="1091" y="672"/>
			<point x="1077" y="664"/>
			<point x="1034" y="638" type="curve" smooth="yes"/>
			<point x="955" y="590"/>
			<point x="847" y="547"/>
			<point x="700" y="547" type="curve" smooth="yes"/>
			<point x="475" y="547"/>
			<point x="278" y="658"/>
			<point x="278" y="934" type="curve" smooth="yes"/>
			<point x="278" y="1251"/>
			<point x="534" y="1519"/>
			<point x="845" y="1519" type="curve" smooth="yes"/>
			<point x="941" y="1519"/>
			<point x="1036" y="1497"/>
			<point x="1085" y="1471" type="curve"/>
			<point x="1111" y="1531" type="line"/>
			<point x="1042" y="1568"/>
			<point x="953" y="1594"/>
			<point x="842" y="1594" type="curve" smooth="yes"/>
			<point x="503" y="1594"/>
			<point x="200" y="1293"/>
		</contour>
		<contour>
			<point x="415" y="-426" type="curve"/>
			<point x="366" y="-481" type="line"/>
			<point x="393" y="-496"/>
			<point x="427" y="-510"/>
			<point x="472" y="-510" type="curve" smooth="yes"/>
			<point x="706" y="-510"/>
			<point x="781" y="-274"/>
			<point x="809" y="18" type="curve" smooth="yes"/>
			<point x="867" y="619"/>
			<point x="952" y="1050"/>
			<point x="1175" y="1522" type="curve" smooth="yes"/>
			<point x="1218" y="1613"/>
			<point x="1229" y="1626"/>
			<point x="1229" y="1635" type="curve" smooth="yes"/>
			<point x="1229" y="1645"/>
			<point x="1216" y="1665"/>
			<point x="1186" y="1665" type="curve" smooth="yes"/>
			<point x="1171" y="1665"/>
			<point x="1156" y="1653"/>
			<point x="1112" y="1558" type="curve" smooth="yes"/>
			<point x="877" y="1050"/>
			<point x="795" y="658"/>
			<point x="735" y="27" type="curve" smooth="yes"/>
			<point x="710" y="-240"/>
			<point x="644" y="-440"/>
			<point x="482" y="-440" type="curve" smooth="yes"/>
			<point x="463" y="-440"/>
			<point x="440" y="-436"/>
		</contour>
		<contour>
			<point x="263" y="-510" type="curve" smooth="yes"/>
			<point x="511" y="-510"/>
			<point x="576" y="-260"/>
			<point x="607" y="6" type="curve" smooth="yes"/>
			<point x="669" y="531"/>
			<point x="774" y="1085"/>
			<point x="969" y="1525" type="curve"/>
			<point x="894" y="1533" type="line"/>
			<point x="707" y="1114"/>
			<point x="602" y="617"/>
			<point x="533" y="16" type="curve" smooth="yes"/>
			<point x="503" y="-243"/>
			<point x="439" y="-440"/>
			<point x="270" y="-440" type="curve" smooth="yes"/>
			<point x="182" y="-440"/>
			<point x="105" y="-400"/>
			<point x="50" y="-342" type="curve" smooth="yes"/>
			<point x="44" y="-335"/>
			<point x="36" y="-327"/>
			<point x="26" y="-327" type="curve" smooth="yes"/>
			<point x="9" y="-327"/>
			<point x="-15" y="-343"/>
			<point x="-15" y="-362" type="curve" smooth="yes"/>
			<point x="-15" y="-415"/>
			<point x="123" y="-510"/>
		</contour>
	</outline>
</glyph>
<glyph name="AE" format="2">
	<unicode hex="00C6"/>
	<advance width="1755"/>
	<outline>
		<contour>
			<point x="1070" y="1550" type="curve" smooth="yes"/>
			<point x="660" y="1045"/>
			<point x="213" y="509"/>
			<point x="-167" y="78" type="curve" smooth="yes"/>
			<point x="-187" y="56"/>
			<point x="-200" y="46"/>
			<point x="-200" y="26" type="curve" smooth="yes"/>
			<point x="-200" y="5"/>
			<point x="-181" y="-12"/>
			<point x="-161" y="-12" type="curve" smooth="yes"/>
			<point x="-144" y="-12"/>
			<point x="-132" y="-5"/>
			<point x="-105" y="27" type="curve" smooth="yes"/>
			<point x="275" y="470"/>
			<point x="711" y="983"/>
			<point x="1111" y="1484" type="curve"/>
			<point x="1102" y="1497" type="line"/>
			<point x="1088" y="1445"/>
			<point x="1077" y="1396"/>
			<point x="1061" y="1323" type="curve" smooth="yes"/>
			<point x="822" y="222" type="line" smooth="yes"/>
			<point x="811" y="172"/>
			<point x="805" y="130"/>
			<point x="805" y="106" type="curve" smooth="yes"/>
			<point x="805" y="36"/>
			<point x="854" y="0"/>
			<point x="932" y="0" type="curve" smooth="yes"/>
			<point x="1481" y="0" type="line" smooth="yes"/>
			<point x="1514" y="0"/>
			<point x="1534" y="17"/>
			<point x="1534" y="40" type="curve" smooth="yes"/>
			<point x="1534" y="58"/>
			<point x="1517" y="75"/>
			<point x="1493" y="75" type="curve" smooth="yes"/>
			<point x="940" y="75" type="line" smooth="yes"/>
			<point x="895" y="75"/>
			<point x="881" y="86"/>
			<point x="881" y="114" type="curve" smooth="yes"/>
			<point x="881" y="130"/>
			<point x="887" y="170"/>
			<point x="898" y="221" type="curve" smooth="yes"/>
			<point x="1175" y="1530" type="line"/>
			<point x="1395" y="1530"/>
			<point x="1549" y="1532"/>
			<point x="1744" y="1536" type="curve" smooth="yes"/>
			<point x="1777" y="1537"/>
			<point x="1795" y="1552"/>
			<point x="1795" y="1574" type="curve" smooth="yes"/>
			<point x="1795" y="1593"/>
			<point x="1780" y="1611"/>
			<point x="1758" y="1611" type="curve" smooth="yes"/>
			<point x="1648" y="1611"/>
			<point x="1181" y="1602"/>
			<point x="1146" y="1600" type="curve" smooth="yes"/>
			<point x="1114" y="1598"/>
			<point x="1099" y="1586"/>
		</contour>
		<contour>
			<point x="407" y="768" type="curve" smooth="yes"/>
			<point x="448" y="768"/>
			<point x="1456" y="770"/>
			<point x="1484" y="771" type="curve" smooth="yes"/>
			<point x="1517" y="772"/>
			<point x="1537" y="788"/>
			<point x="1537" y="811" type="curve" smooth="yes"/>
			<point x="1537" y="829"/>
			<point x="1520" y="846"/>
			<point x="1496" y="846" type="curve" smooth="yes"/>
			<point x="1460" y="846"/>
			<point x="1244" y="843"/>
			<point x="1004" y="841" type="curve"/>
			<point x="392" y="837" type="line" smooth="yes"/>
			<point x="363" y="837"/>
			<point x="351" y="822"/>
			<point x="351" y="805" type="curve" smooth="yes"/>
			<point x="351" y="785"/>
			<point x="368" y="768"/>
		</contour>
	</outline>
	<anchor name="bottom" x="785" y="0"/>
	<anchor name="top" x="1437" y="1600"/>
</glyph>
<glyph name="thorn" format="2">
	<unicode hex="00FE"/>
	<advance width="1099"/>
	<outline>
		<contour>
			<point x="343" y="61" type="curve" smooth="yes"/>
			<point x="318" y="61"/>
			<point x="300" y="47"/>
			<point x="300" y="20" type="curve" smooth="yes"/>
			<point x="300" y="-1"/>
			<point x="320" y="-12"/>
			<point x="339" y="-12" type="curve" smooth="yes"/>
			<point x="630" y="-12"/>
			<point x="909" y="346"/>
			<point x="909" y="676" type="curve" smooth="yes"/>
			<point x="909" y="857"/>
			<point x="832" y="935"/>
			<point x="720" y="935" type="curve" smooth="yes"/>
			<point x="551" y="935"/>
			<point x="400" y="802"/>
			<point x="236" y="481" type="curve"/>
			<point x="244" y="479" type="line"/>
			<point x="280" y="615"/>
			<point x="314" y="752"/>
			<point x="348" y="889" type="curve"/>
			<point x="479" y="1309"/>
			<point x="533" y="1488"/>
			<point x="533" y="1549" type="curve" smooth="yes"/>
			<point x="533" y="1581"/>
			<point x="521" y="1600"/>
			<point x="490" y="1600" type="curve" smooth="yes"/>
			<point x="470" y="1600"/>
			<point x="458" y="1589"/>
			<point x="435" y="1509" type="curve" smooth="yes"/>
			<point x="400" y="1386"/>
			<point x="378" y="1291"/>
			<point x="281" y="910" type="curve" smooth="yes"/>
			<point x="178" y="505"/>
			<point x="140" y="349"/>
			<point x="85" y="84" type="curve"/>
			<point x="13" y="-212"/>
			<point x="-43" y="-506"/>
			<point x="-43" y="-617" type="curve" smooth="yes"/>
			<point x="-43" y="-655"/>
			<point x="-24" y="-670"/>
			<point x="1" y="-670" type="curve" smooth="yes"/>
			<point x="21" y="-670"/>
			<point x="39" y="-656"/>
			<point x="45" y="-622" type="curve" smooth="yes"/>
			<point x="60" y="-543"/>
			<point x="72" y="-461"/>
			<point x="83" y="-374" type="curve" smooth="yes"/>
			<point x="103" y="-214"/>
			<point x="129" y="-42"/>
			<point x="173" y="141" type="curve" smooth="yes"/>
			<point x="252" y="470"/>
			<point x="497" y="860"/>
			<point x="696" y="860" type="curve" smooth="yes"/>
			<point x="776" y="860"/>
			<point x="829" y="795"/>
			<point x="829" y="663" type="curve" smooth="yes"/>
			<point x="829" y="370"/>
			<point x="593" y="61"/>
		</contour>
	</outline>
</glyph>
<glyph name="Aogonek" format="2">
	<unicode hex="0104"/>
	<advance width="1542"/>
	<outline>
		<contour>
			<point x="1226" y="1538" type="curve" smooth="yes"/>
			<point x="823" y="1045"/>
			<point x="375" y="509"/>
			<point x="-5" y="78" type="curve" smooth="yes"/>
			<point x="-25" y="56"/>
			<point x="-38" y="46"/>
			<point x="-38" y="26" type="curve" smooth="yes"/>
			<point x="-38" y="3"/>
			<point x="-16" y="-12"/>
			<point x="1" y="-12" type="curve" smooth="yes"/>
			<point x="20" y="-12"/>
			<point x="29" y="-5"/>
			<point x="57" y="27" type="curve" smooth="yes"/>
			<point x="442" y="476"/>
			<point x="875" y="984"/>
			<point x="1273" y="1484" type="curve"/>
			<point x="1264" y="1497" type="line"/>
			<point x="966" y="64" type="line" smooth="yes"/>
			<point x="961" y="42"/>
			<point x="959" y="31"/>
			<point x="959" y="26" type="curve" smooth="yes"/>
			<point x="959" y="21"/>
			<point x="960" y="15"/>
			<point x="963" y="12" type="curve"/>
			<point x="806" y="-116"/>
			<point x="750" y="-204"/>
			<point x="750" y="-286" type="curve" smooth="yes"/>
			<point x="750" y="-344"/>
			<point x="785" y="-386"/>
			<point x="856" y="-386" type="curve" smooth="yes"/>
			<point x="919" y="-386"/>
			<point x="983" y="-354"/>
			<point x="1023" y="-315" type="curve" smooth="yes"/>
			<point x="1041" y="-298"/>
			<point x="1045" y="-287"/>
			<point x="1045" y="-280" type="curve" smooth="yes"/>
			<point x="1045" y="-263"/>
			<point x="1031" y="-255"/>
			<point x="1018" y="-255" type="curve" smooth="yes"/>
			<point x="1008" y="-255"/>
			<point x="999" y="-259"/>
			<point x="982" y="-270" type="curve" smooth="yes"/>
			<point x="946" y="-294"/>
			<point x="904" y="-309"/>
			<point x="877" y="-309" type="curve" smooth="yes"/>
			<point x="846" y="-309"/>
			<point x="830" y="-297"/>
			<point x="830" y="-266" type="curve" smooth="yes"/>
			<point x="830" y="-203"/>
			<point x="886" y="-117"/>
			<point x="1012" y="-13" type="curve" smooth="yes"/>
			<point x="1029" y="1"/>
			<point x="1034" y="9"/>
			<point x="1041" y="42" type="curve" smooth="yes"/>
			<point x="1326" y="1463" type="line" smooth="yes"/>
			<point x="1342" y="1542"/>
			<point x="1344" y="1559"/>
			<point x="1344" y="1570" type="curve" smooth="yes"/>
			<point x="1344" y="1589"/>
			<point x="1327" y="1605"/>
			<point x="1301" y="1605" type="curve" smooth="yes"/>
			<point x="1285" y="1605"/>
			<point x="1275" y="1598"/>
		</contour>
	</outline>
	<anchor name="bottom" x="531" y="0"/>
	<anchor name="top" x="1310" y="1600"/>
</glyph>
<glyph name="IJ" format="2">
	<unicode hex="0132"/>
	<advance width="1007"/>
	<outline>
		<contour>
			<point x="790" y="-63" type="curve"/>
			<point x="808" y="22" type="line"/>
			<point x="412" y="-216"/>
			<point x="287" y="-369"/>
			<point x="287" y="-529" type="curve" smooth="yes"/>
			<point x="287" y="-625"/>
			<point x="360" y="-690"/>
			<point x="444" y="-690" type="curve" smooth="yes"/>
			<point x="596" y="-690"/>
			<point x="739" y="-543"/>
			<point x="832" y="-136" type="curve" smooth="yes"/>
			<point x="910" y="205"/>
			<point x="981" y="501"/>
			<point x="1049" y="763" type="curve" smooth="yes"/>
			<point x="1136" y="1098"/>
			<point x="1174" y="1210"/>
			<point x="1240" y="1402" type="curve" smooth="yes"/>
			<point x="1289" y="1545"/>
			<point x="1292" y="1560"/>
			<point x="1292" y="1578" type="curve" smooth="yes"/>
			<point x="1292" y="1597"/>
			<point x="1272" y="1606"/>
			<point x="1253" y="1606" type="curve" smooth="yes"/>
			<point x="1235" y="1606"/>
			<point x="1226" y="1601"/>
			<point x="1202" y="1529" type="curve" smooth="yes"/>
			<point x="1094" y="1200"/>
			<point x="1063" y="1113"/>
			<point x="923" y="817" type="curve" smooth="yes"/>
			<point x="712" y="371"/>
			<point x="509" y="193"/>
			<point x="356" y="193" type="curve" smooth="yes"/>
			<point x="272" y="193"/>
			<point x="230" y="249"/>
			<point x="230" y="365" type="curve" smooth="yes"/>
			<point x="230" y="461"/>
			<point x="251" y="577"/>
			<point x="327" y="788" type="curve" smooth="yes"/>
			<point x="397" y="982"/>
			<point x="494" y="1253"/>
			<point x="557" y="1478" type="curve" smooth="yes"/>
			<point x="580" y="1560"/>
			<point x="581" y="1575"/>
			<point x="581" y="1580" type="curve" smooth="yes"/>
			<point x="581" y="1599"/>
			<point x="564" y="1608"/>
			<point x="540" y="1608" type="curve" smooth="yes"/>
			<point x="523" y="1608"/>
			<point x="513" y="1603"/>
			<point x="494" y="1533" type="curve" smooth="yes"/>
			<point x="426" y="1288"/>
			<point x="333" y="1019"/>
			<point x="260" y="817" type="curve" smooth="yes"/>
			<point x="177" y="586"/>
			<point x="150" y="454"/>
			<point x="150" y="350" type="curve" smooth="yes"/>
			<point x="150" y="205"/>
			<point x="217" y="118"/>
			<point x="340" y="118" type="curve" smooth="yes"/>
			<point x="528" y="118"/>
			<point x="770" y="320"/>
			<point x="1014" y="862" type="curve"/>
			<point x="1004" y="849" type="line"/>
			<point x="903" y="502"/>
			<point x="861" y="325"/>
			<point x="759" y="-111" type="curve" smooth="yes"/>
			<point x="674" y="-474"/>
			<point x="562" y="-615"/>
			<point x="455" y="-615" type="curve" smooth="yes"/>
			<point x="408" y="-615"/>
			<point x="362" y="-588"/>
			<point x="362" y="-512" type="curve" smooth="yes"/>
			<point x="362" y="-403"/>
			<point x="459" y="-268"/>
		</contour>
	</outline>
</glyph>
<glyph name="ij" format="2">
	<unicode hex="0133"/>
	<advance width="834"/>
	<outline>
		<contour>
			<point x="607" y="-79" type="curve"/>
			<point x="626" y="5" type="line"/>
			<point x="256" y="-238"/>
			<point x="148" y="-391"/>
			<point x="148" y="-545" type="curve" smooth="yes"/>
			<point x="148" y="-626"/>
			<point x="200" y="-690"/>
			<point x="289" y="-690" type="curve" smooth="yes"/>
			<point x="422" y="-690"/>
			<point x="550" y="-548"/>
			<point x="625" y="-237" type="curve" smooth="yes"/>
			<point x="647" y="-147"/>
			<point x="669" y="-48"/>
			<point x="693" y="65" type="curve" smooth="yes"/>
			<point x="721" y="196"/>
			<point x="758" y="347"/>
			<point x="810" y="529" type="curve" smooth="yes"/>
			<point x="904" y="856"/>
			<point x="910" y="890"/>
			<point x="910" y="902" type="curve" smooth="yes"/>
			<point x="910" y="930"/>
			<point x="890" y="935"/>
			<point x="869" y="935" type="curve" smooth="yes"/>
			<point x="849" y="935"/>
			<point x="833" y="920"/>
			<point x="826" y="892" type="curve" smooth="yes"/>
			<point x="809" y="828"/>
			<point x="793" y="763"/>
			<point x="776" y="699" type="curve" smooth="yes"/>
			<point x="689" y="368"/>
			<point x="423" y="63"/>
			<point x="247" y="63" type="curve" smooth="yes"/>
			<point x="198" y="63"/>
			<point x="167" y="95"/>
			<point x="167" y="181" type="curve" smooth="yes"/>
			<point x="167" y="257"/>
			<point x="179" y="329"/>
			<point x="245" y="534" type="curve" smooth="yes"/>
			<point x="321" y="769"/>
			<point x="348" y="872"/>
			<point x="348" y="902" type="curve" smooth="yes"/>
			<point x="348" y="925"/>
			<point x="337" y="935"/>
			<point x="317" y="935" type="curve" smooth="yes"/>
			<point x="296" y="935"/>
			<point x="279" y="925"/>
			<point x="269" y="878" type="curve" smooth="yes"/>
			<point x="261" y="841"/>
			<point x="243" y="760"/>
			<point x="181" y="563" type="curve" smooth="yes"/>
			<point x="107" y="328"/>
			<point x="87" y="242"/>
			<point x="87" y="162" type="curve" smooth="yes"/>
			<point x="87" y="47"/>
			<point x="146" y="-12"/>
			<point x="229" y="-12" type="curve" smooth="yes"/>
			<point x="389" y="-12"/>
			<point x="562" y="143"/>
			<point x="701" y="373" type="curve"/>
			<point x="697" y="393" type="line"/>
			<point x="664" y="264"/>
			<point x="640" y="162"/>
			<point x="620" y="73" type="curve" smooth="yes"/>
			<point x="597" y="-31"/>
			<point x="579" y="-119"/>
			<point x="557" y="-212" type="curve" smooth="yes"/>
			<point x="487" y="-507"/>
			<point x="379" y="-615"/>
			<point x="300" y="-615" type="curve" smooth="yes"/>
			<point x="253" y="-615"/>
			<point x="223" y="-589"/>
			<point x="223" y="-529" type="curve" smooth="yes"/>
			<point x="223" y="-403"/>
			<point x="325" y="-269"/>
		</contour>
		<contour>
			<point x="377" y="1154" type="curve" smooth="yes"/>
			<point x="423" y="1154"/>
			<point x="465" y="1192"/>
			<point x="465" y="1243" type="curve" smooth="yes"/>
			<point x="465" y="1282"/>
			<point x="441" y="1307"/>
			<point x="401" y="1307" type="curve" smooth="yes"/>
			<point x="355" y="1307"/>
			<point x="315" y="1273"/>
			<point x="315" y="1221" type="curve" smooth="yes"/>
			<point x="315" y="1183"/>
			<point x="337" y="1154"/>
		</contour>
		<contour>
			<point x="929" y="1154" type="curve" smooth="yes"/>
			<point x="975" y="1154"/>
			<point x="1017" y="1192"/>
			<point x="1017" y="1243" type="curve" smooth="yes"/>
			<point x="1017" y="1282"/>
			<point x="993" y="1307"/>
			<point x="953" y="1307" type="curve" smooth="yes"/>
			<point x="907" y="1307"/>
			<point x="867" y="1273"/>
			<point x="867" y="1221" type="curve" smooth="yes"/>
			<point x="867" y="1183"/>
			<point x="889" y="1154"/>
		</contour>
	</outline>
	<anchor name="top" x="680" y="1307"/>
</glyph>
<glyph name="eng" format="2">
	<unicode hex="014B"/>
	<advance width="1090"/>
	<outline>
		<contour>
			<point x="798" y="765" type="curve" smooth="yes"/>
			<point x="798" y="686"/>
			<point x="746" y="479"/>
			<point x="585" y="-72" type="curve" smooth="yes"/>
			<point x="494" y="-383"/>
			<point x="429" y="-470"/>
			<point x="333" y="-470" type="curve" smooth="yes"/>
			<point x="295" y="-470"/>
			<point x="253" y="-456"/>
			<point x="222" y="-430" type="curve" smooth="yes"/>
			<point x="203" y="-414"/>
			<point x="189" y="-407"/>
			<point x="177" y="-407" type="curve" smooth="yes"/>
			<point x="164" y="-407"/>
			<point x="152" y="-419"/>
			<point x="152" y="-436" type="curve" smooth="yes"/>
			<point x="152" y="-451"/>
			<point x="160" y="-468"/>
			<point x="176" y="-485" type="curve" smooth="yes"/>
			<point x="208" y="-519"/>
			<point x="262" y="-544"/>
			<point x="324" y="-544" type="curve" smooth="yes"/>
			<point x="469" y="-544"/>
			<point x="566" y="-441"/>
			<point x="664" y="-97" type="curve" smooth="yes"/>
			<point x="828" y="480"/>
			<point x="880" y="674"/>
			<point x="880" y="785" type="curve" smooth="yes"/>
			<point x="880" y="897"/>
			<point x="817" y="935"/>
			<point x="744" y="935" type="curve" smooth="yes"/>
			<point x="580" y="935"/>
			<point x="380" y="766"/>
			<point x="202" y="420" type="curve"/>
			<point x="210" y="417" type="line"/>
			<point x="336" y="837" type="line" smooth="yes"/>
			<point x="343" y="861"/>
			<point x="349" y="885"/>
			<point x="349" y="900" type="curve" smooth="yes"/>
			<point x="349" y="923"/>
			<point x="337" y="935"/>
			<point x="315" y="935" type="curve" smooth="yes"/>
			<point x="295" y="935"/>
			<point x="279" y="926"/>
			<point x="266" y="878" type="curve" smooth="yes"/>
			<point x="53" y="83" type="line" smooth="yes"/>
			<point x="43" y="46"/>
			<point x="40" y="33"/>
			<point x="40" y="25" type="curve" smooth="yes"/>
			<point x="40" y="0"/>
			<point x="61" y="-12"/>
			<point x="80" y="-12" type="curve" smooth="yes"/>
			<point x="101" y="-12"/>
			<point x="121" y="1"/>
			<point x="138" y="73" type="curve" smooth="yes"/>
			<point x="165" y="186"/>
			<point x="192" y="264"/>
			<point x="253" y="390" type="curve" smooth="yes"/>
			<point x="382" y="657"/>
			<point x="598" y="860"/>
			<point x="718" y="860" type="curve" smooth="yes"/>
			<point x="766" y="860"/>
			<point x="798" y="829"/>
		</contour>
	</outline>
	<anchor name="bottom" x="220" y="-544"/>
	<anchor name="top" x="585" y="920"/>
</glyph>
<glyph name="OE" format="2">
	<unicode hex="0152"/>
	<advance width="1975"/>
	<outline>
		<contour>
			<point x="180" y="508" type="curve" smooth="yes"/>
			<point x="180" y="166"/>
			<point x="313" y="-12"/>
			<point x="515" y="-12" type="curve" smooth="yes"/>
			<point x="740" y="-12"/>
			<point x="962" y="213"/>
			<point x="1106" y="501" type="curve"/>
			<point x="1101" y="511" type="line"/>
			<point x="1030" y="222" type="line" smooth="yes"/>
			<point x="1014" y="159"/>
			<point x="1008" y="128"/>
			<point x="1008" y="106" type="curve" smooth="yes"/>
			<point x="1008" y="36"/>
			<point x="1057" y="0"/>
			<point x="1135" y="0" type="curve" smooth="yes"/>
			<point x="1754" y="0" type="line" smooth="yes"/>
			<point x="1787" y="0"/>
			<point x="1807" y="17"/>
			<point x="1807" y="40" type="curve" smooth="yes"/>
			<point x="1807" y="58"/>
			<point x="1790" y="75"/>
			<point x="1766" y="75" type="curve" smooth="yes"/>
			<point x="1143" y="75" type="line" smooth="yes"/>
			<point x="1098" y="75"/>
			<point x="1084" y="86"/>
			<point x="1084" y="114" type="curve" smooth="yes"/>
			<point x="1084" y="140"/>
			<point x="1089" y="169"/>
			<point x="1106" y="247" type="curve" smooth="yes"/>
			<point x="1378" y="1528" type="line"/>
			<point x="1434" y="1528"/>
			<point x="1863" y="1533"/>
			<point x="1964" y="1536" type="curve" smooth="yes"/>
			<point x="1997" y="1537"/>
			<point x="2015" y="1552"/>
			<point x="2015" y="1574" type="curve" smooth="yes"/>
			<point x="2015" y="1593"/>
			<point x="2000" y="1611"/>
			<point x="1978" y="1611" type="curve" smooth="yes"/>
			<point x="1877" y="1611"/>
			<point x="1463" y="1603"/>
			<point x="1388" y="1601" type="curve" smooth="yes"/>
			<point x="1332" y="1599"/>
			<point x="1313" y="1582"/>
			<point x="1300" y="1514" type="curve" smooth="yes"/>
			<point x="1242" y="1216" type="line"/>
			<point x="1255" y="1216" type="line"/>
			<point x="1227" y="1484"/>
			<point x="1098" y="1615"/>
			<point x="911" y="1615" type="curve" smooth="yes"/>
			<point x="532" y="1615"/>
			<point x="180" y="1065"/>
		</contour>
		<contour>
			<point x="260" y="505" type="curve" smooth="yes"/>
			<point x="260" y="1001"/>
			<point x="569" y="1540"/>
			<point x="901" y="1540" type="curve" smooth="yes"/>
			<point x="1076" y="1540"/>
			<point x="1192" y="1401"/>
			<point x="1192" y="1079" type="curve" smooth="yes"/>
			<point x="1192" y="649"/>
			<point x="845" y="63"/>
			<point x="526" y="63" type="curve" smooth="yes"/>
			<point x="360" y="63"/>
			<point x="260" y="223"/>
		</contour>
		<contour>
			<point x="1473" y="883" type="curve" smooth="yes"/>
			<point x="1216" y="879" type="line"/>
			<point x="1200" y="804" type="line"/>
			<point x="1315" y="807"/>
			<point x="1631" y="811"/>
			<point x="1684" y="811" type="curve" smooth="yes"/>
			<point x="1717" y="811"/>
			<point x="1737" y="828"/>
			<point x="1737" y="851" type="curve" smooth="yes"/>
			<point x="1737" y="869"/>
			<point x="1720" y="886"/>
			<point x="1696" y="886" type="curve" smooth="yes"/>
			<point x="1657" y="886"/>
			<point x="1567" y="885"/>
		</contour>
	</outline>
	<anchor name="bottom" x="978" y="0"/>
	<anchor name="top" x="1286" y="1600"/>
</glyph>
<glyph name="oe" format="2">
	<unicode hex="0153"/>
	<advance width="1104"/>
	<outline>
		<contour>
			<point x="749" y="450" type="curve"/>
			<point x="742" y="387" type="line"/>
			<point x="982" y="399"/>
			<point x="1322" y="496"/>
			<point x="1322" y="748" type="curve" smooth="yes"/>
			<point x="1322" y="858"/>
			<point x="1247" y="925"/>
			<point x="1135" y="925" type="curve" smooth="yes"/>
			<point x="984" y="925"/>
			<point x="839" y="808"/>
			<point x="748" y="631" type="curve"/>
			<point x="777" y="631" type="line"/>
			<point x="777" y="831"/>
			<point x="680" y="935"/>
			<point x="550" y="935" type="curve" smooth="yes"/>
			<point x="457" y="935"/>
			<point x="388" y="894"/>
			<point x="388" y="866" type="curve" smooth="yes"/>
			<point x="388" y="849"/>
			<point x="399" y="837"/>
			<point x="419" y="837" type="curve" smooth="yes"/>
			<point x="427" y="837"/>
			<point x="437" y="840"/>
			<point x="450" y="844" type="curve" smooth="yes"/>
			<point x="471" y="851"/>
			<point x="499" y="860"/>
			<point x="533" y="860" type="curve" smooth="yes"/>
			<point x="628" y="860"/>
			<point x="698" y="779"/>
			<point x="698" y="635" type="curve" smooth="yes"/>
			<point x="698" y="353"/>
			<point x="480" y="63"/>
			<point x="281" y="63" type="curve" smooth="yes"/>
			<point x="177" y="63"/>
			<point x="118" y="134"/>
			<point x="118" y="273" type="curve" smooth="yes"/>
			<point x="118" y="463"/>
			<point x="183" y="593"/>
			<point x="321" y="763" type="curve" smooth="yes"/>
			<point x="334" y="779"/>
			<point x="341" y="797"/>
			<point x="341" y="808" type="curve" smooth="yes"/>
			<point x="341" y="821"/>
			<point x="329" y="833"/>
			<point x="316" y="833" type="curve" smooth="yes"/>
			<point x="289" y="833"/>
			<point x="252" y="792"/>
			<point x="227" y="763" type="curve" smooth="yes"/>
			<point x="109" y="627"/>
			<point x="38" y="429"/>
			<point x="38" y="259" type="curve" smooth="yes"/>
			<point x="38" y="76"/>
			<point x="131" y="-12"/>
			<point x="266" y="-12" type="curve" smooth="yes"/>
			<point x="433" y="-12"/>
			<point x="599" y="130"/>
			<point x="694" y="322" type="curve"/>
			<point x="677" y="322" type="line"/>
			<point x="693" y="124"/>
			<point x="812" y="-12"/>
			<point x="1032" y="-12" type="curve" smooth="yes"/>
			<point x="1081" y="-12"/>
			<point x="1094" y="9"/>
			<point x="1094" y="30" type="curve" smooth="yes"/>
			<point x="1094" y="49"/>
			<point x="1083" y="63"/>
			<point x="1056" y="63" type="curve" smooth="yes"/>
			<point x="859" y="63"/>
			<point x="752" y="166"/>
			<point x="752" y="353" type="curve" smooth="yes"/>
			<point x="752" y="603"/>
			<point x="934" y="853"/>
			<point x="1127" y="853" type="curve" smooth="yes"/>
			<point x="1200" y="853"/>
			<point x="1244" y="808"/>
			<point x="1244" y="736" type="curve" smooth="yes"/>
			<point x="1244" y="528"/>
			<point x="957" y="462"/>
		</contour>
	</outline>
	<anchor name="bottom" x="629" y="0"/>
	<anchor name="center" x="399" y="464"/>
	<anchor name="top" x="829" y="920"/>
</glyph>
<glyph name="Uogonek" format="2">
	<unicode hex="0172"/>
	<advance width="1483"/>
	<outline>
		<contour>
			<point x="1018" y="-12" type="curve" smooth="yes"/>
			<point x="1057" y="-12"/>
			<point x="1110" y="-4"/>
			<point x="1158" y="16" type="curve"/>
			<point x="1154" y="24" type="line"/>
			<point x="977" y="-113"/>
			<point x="910" y="-209"/>
			<point x="910" y="-298" type="curve" smooth="yes"/>
			<point x="910" y="-356"/>
			<point x="946" y="-398"/>
			<point x="1020" y="-398" type="curve" smooth="yes"/>
			<point x="1087" y="-398"/>
			<point x="1152" y="-366"/>
			<point x="1192" y="-331" type="curve" smooth="yes"/>
			<point x="1215" y="-311"/>
			<point x="1219" y="-299"/>
			<point x="1219" y="-292" type="curve" smooth="yes"/>
			<point x="1219" y="-275"/>
			<point x="1205" y="-267"/>
			<point x="1192" y="-267" type="curve" smooth="yes"/>
			<point x="1182" y="-267"/>
			<point x="1173" y="-270"/>
			<point x="1152" y="-283" type="curve" smooth="yes"/>
			<point x="1113" y="-307"/>
			<point x="1069" y="-321"/>
			<point x="1041" y="-321" type="curve" smooth="yes"/>
			<point x="1008" y="-321"/>
			<point x="991" y="-309"/>
			<point x="991" y="-278" type="curve" smooth="yes"/>
			<point x="991" y="-216"/>
			<point x="1061" y="-106"/>
			<point x="1239" y="30" type="curve" smooth="yes"/>
			<point x="1328" y="98" type="line" smooth="yes"/>
			<point x="1387" y="143"/>
			<point x="1393" y="162"/>
			<point x="1393" y="173" type="curve" smooth="yes"/>
			<point x="1393" y="188"/>
			<point x="1381" y="200"/>
			<point x="1366" y="200" type="curve" smooth="yes"/>
			<point x="1355" y="200"/>
			<point x="1347" y="193"/>
			<point x="1303" y="160" type="curve" smooth="yes"/>
			<point x="1220" y="98"/>
			<point x="1118" y="63"/>
			<point x="1039" y="63" type="curve" smooth="yes"/>
			<point x="1005" y="63"/>
			<point x="984" y="83"/>
			<point x="984" y="135" type="curve" smooth="yes"/>
			<point x="984" y="175"/>
			<point x="992" y="215"/>
			<point x="1016" y="310" type="curve" smooth="yes"/>
			<point x="1087" y="592"/>
			<point x="1249" y="1110"/>
			<point x="1337" y="1389" type="curve" smooth="yes"/>
			<point x="1386" y="1544"/>
			<point x="1390" y="1562"/>
			<point x="1390" y="1578" type="curve" smooth="yes"/>
			<point x="1390" y="1599"/>
			<point x="1372" y="1608"/>
			<point x="1353" y="1608" type="curve" smooth="yes"/>
			<point x="1331" y="1608"/>
			<point x="1324" y="1598"/>
			<point x="1267" y="1428" type="curve" smooth="yes"/>
			<point x="1195" y="1214"/>
			<point x="1142" y="1082"/>
			<point x="1021" y="836" type="curve" smooth="yes"/>
			<point x="746" y="277"/>
			<point x="535" y="63"/>
			<point x="354" y="63" type="curve" smooth="yes"/>
			<point x="273" y="63"/>
			<point x="230" y="122"/>
			<point x="230" y="245" type="curve" smooth="yes"/>
			<point x="230" y="332"/>
			<point x="253" y="447"/>
			<point x="322" y="656" type="curve" smooth="yes"/>
			<point x="354" y="753"/>
			<point x="388" y="856"/>
			<point x="426" y="958" type="curve" smooth="yes"/>
			<point x="490" y="1130"/>
			<point x="552" y="1311"/>
			<point x="601" y="1475" type="curve" smooth="yes"/>
			<point x="626" y="1559"/>
			<point x="625" y="1577"/>
			<point x="625" y="1579" type="curve" smooth="yes"/>
			<point x="625" y="1599"/>
			<point x="607" y="1608"/>
			<point x="584" y="1608" type="curve" smooth="yes"/>
			<point x="567" y="1608"/>
			<point x="558" y="1603"/>
			<point x="538" y="1534" type="curve" smooth="yes"/>
			<point x="481" y="1338"/>
			<point x="410" y="1129"/>
			<point x="343" y="942" type="curve" smooth="yes"/>
			<point x="310" y="850"/>
			<point x="279" y="757"/>
			<point x="255" y="685" type="curve" smooth="yes"/>
			<point x="181" y="464"/>
			<point x="150" y="333"/>
			<point x="150" y="229" type="curve" smooth="yes"/>
			<point x="150" y="77"/>
			<point x="221" y="-12"/>
			<point x="341" y="-12" type="curve" smooth="yes"/>
			<point x="573" y="-12"/>
			<point x="815" y="212"/>
			<point x="1166" y="1013" type="curve"/>
			<point x="1159" y="1013" type="line"/>
			<point x="1086" y="773"/>
			<point x="1009" y="531"/>
			<point x="954" y="345" type="curve" smooth="yes"/>
			<point x="922" y="237"/>
			<point x="910" y="178"/>
			<point x="910" y="120" type="curve" smooth="yes"/>
			<point x="910" y="34"/>
			<point x="958" y="-12"/>
		</contour>
	</outline>
	<anchor name="bottom" x="527" y="0"/>
	<anchor name="top" x="976" y="1600"/>
	<anchor name="topright" x="1682" y="1434"/>
</glyph>
<glyph name="jdotless" format="2">
	<unicode hex="0237"/>
	<advance width="291"/>
	<outline>
		<contour>
			<point x="-420" y="-557" type="curve" smooth="yes"/>
			<point x="-420" y="-641"/>
			<point x="-364" y="-690"/>
			<point x="-290" y="-690" type="curve" smooth="yes"/>
			<point x="-143" y="-690"/>
			<point x="32" y="-558"/>
			<point x="114" y="-126" type="curve" smooth="yes"/>
			<point x="134" y="-21"/>
			<point x="155" y="78"/>
			<point x="182" y="193" type="curve" smooth="yes"/>
			<point x="336" y="842" type="line" smooth="yes"/>
			<point x="343" y="871"/>
			<point x="346" y="889"/>
			<point x="346" y="901" type="curve" smooth="yes"/>
			<point x="346" y="925"/>
			<point x="337" y="935"/>
			<point x="316" y="935" type="curve" smooth="yes"/>
			<point x="292" y="935"/>
			<point x="281" y="925"/>
			<point x="265" y="856" type="curve" smooth="yes"/>
			<point x="121" y="248" type="line" smooth="yes"/>
			<point x="90" y="118"/>
			<point x="60" y="-10"/>
			<point x="30" y="-161" type="curve" smooth="yes"/>
			<point x="-34" y="-485"/>
			<point x="-182" y="-615"/>
			<point x="-273" y="-615" type="curve" smooth="yes"/>
			<point x="-321" y="-615"/>
			<point x="-345" y="-591"/>
			<point x="-345" y="-548" type="curve" smooth="yes"/>
			<point x="-345" y="-442"/>
			<point x="-247" y="-282"/>
			<point x="63" y="-71" type="curve"/>
			<point x="85" y="19" type="line"/>
			<point x="-303" y="-232"/>
			<point x="-420" y="-419"/>
		</contour>
	</outline>
	<anchor name="top" x="317" y="920"/>
</glyph>
<glyph name="caroncomb" format="2">
	<unicode hex="030C"/>
	<outline>
		<contour>
			<point x="495" y="1436" type="curve" smooth="yes"/>
			<point x="484" y="1436"/>
			<point x="474" y="1430"/>
			<point x="456" y="1412" type="curve" smooth="yes"/>
			<point x="194" y="1141" type="line"/>
			<point x="231" y="1134" type="line"/>
			<point x="134" y="1386" type="line" smooth="yes"/>
			<point x="118" y="1427"/>
			<point x="110" y="1437"/>
			<point x="95" y="1437" type="curve" smooth="yes"/>
			<point x="69" y="1437"/>
			<point x="51" y="1420"/>
			<point x="51" y="1399" type="curve" smooth="yes"/>
			<point x="51" y="1380"/>
			<point x="65" y="1345"/>
			<point x="122" y="1213" type="curve" smooth="yes"/>
			<point x="174" y="1093"/>
			<point x="178" y="1085"/>
			<point x="204" y="1085" type="curve" smooth="yes"/>
			<point x="227" y="1085"/>
			<point x="246" y="1096"/>
			<point x="332" y="1187" type="curve" smooth="yes"/>
			<point x="486" y="1351"/>
			<point x="518" y="1388"/>
			<point x="518" y="1413" type="curve" smooth="yes"/>
			<point x="518" y="1425"/>
			<point x="508" y="1436"/>
		</contour>
	</outline>
	<anchor name="_top" x="168" y="920"/>
	<anchor name="top" x="270" y="1417"/>
</glyph>
<glyph name="barcomb" format="2">
	<unicode hex="0335"/>
	<outline>
		<contour>
			<point x="522" y="865" type="curve" smooth="yes"/>
			<point x="442" y="862"/>
			<point x="292" y="861"/>
			<point x="108" y="861" type="curve" smooth="yes"/>
			<point x="60" y="861"/>
			<point x="50" y="847"/>
			<point x="50" y="830" type="curve" smooth="yes"/>
			<point x="50" y="802"/>
			<point x="88" y="796"/>
			<point x="178" y="796" type="curve" smooth="yes"/>
			<point x="268" y="796"/>
			<point x="407" y="797"/>
			<point x="495" y="804" type="curve" smooth="yes"/>
			<point x="607" y="813"/>
			<point x="633" y="822"/>
			<point x="633" y="847" type="curve" smooth="yes"/>
			<point x="633" y="862"/>
			<point x="626" y="867"/>
			<point x="600" y="867" type="curve" smooth="yes"/>
			<point x="588" y="867"/>
			<point x="585" y="867"/>
		</contour>
	</outline>
	<anchor name="_center" x="320" y="839"/>
</glyph>
<glyph name="slashlongcomb" format="2">
	<unicode hex="0338"/>
	<outline>
		<contour>
			<point x="248" y="47" type="curve" smooth="yes"/>
			<point x="234" y="21"/>
			<point x="225" y="-2"/>
			<point x="225" y="-11" type="curve" smooth="yes"/>
			<point x="225" y="-30"/>
			<point x="252" y="-47"/>
			<point x="269" y="-47" type="curve" smooth="yes"/>
			<point x="282" y="-47"/>
			<point x="293" y="-35"/>
			<point x="314" y="5" type="curve" smooth="yes"/>
			<point x="602" y="559"/>
			<point x="870" y="1034"/>
			<point x="1123" y="1442" type="curve" smooth="yes"/>
			<point x="1172" y="1520"/>
			<point x="1213" y="1586"/>
			<point x="1213" y="1599" type="curve" smooth="yes"/>
			<point x="1213" y="1620"/>
			<point x="1196" y="1637"/>
			<point x="1175" y="1637" type="curve" smooth="yes"/>
			<point x="1156" y="1637"/>
			<point x="1137" y="1610"/>
			<point x="1069" y="1498" type="curve" smooth="yes"/>
			<point x="824" y="1106"/>
			<point x="544" y="616"/>
		</contour>
	</outline>
	<anchor name="_center" x="730" y="725"/>
</glyph>
<glyph name="Germandbls" format="2">
	<unicode hex="1E9E"/>
	<advance width="1420"/>
	<outline>
		<contour>
			<point x="149" y="-12" type="curve" smooth="yes"/>
			<point x="169" y="-12"/>
			<point x="181" y="1"/>
			<point x="190" y="34" type="curve" smooth="yes"/>
			<point x="588" y="1523" type="line"/>
			<point x="1274" y="1523" type="line"/>
			<point x="1273" y="1548" type="line"/>
			<point x="857" y="1250"/>
			<point x="779" y="1118"/>
			<point x="779" y="968" type="curve" smooth="yes"/>
			<point x="779" y="808"/>
			<point x="877" y="722"/>
			<point x="962" y="639" type="curve" smooth="yes"/>
			<point x="1040" y="563"/>
			<point x="1114" y="471"/>
			<point x="1114" y="348" type="curve" smooth="yes"/>
			<point x="1114" y="188"/>
			<point x="989" y="68"/>
			<point x="756" y="68" type="curve" smooth="yes"/>
			<point x="666" y="68"/>
			<point x="580" y="86"/>
			<point x="528" y="105" type="curve" smooth="yes"/>
			<point x="485" y="121"/>
			<point x="477" y="123"/>
			<point x="468" y="123" type="curve" smooth="yes"/>
			<point x="441" y="123"/>
			<point x="432" y="102"/>
			<point x="432" y="85" type="curve" smooth="yes"/>
			<point x="432" y="75"/>
			<point x="436" y="67"/>
			<point x="458" y="54" type="curve" smooth="yes"/>
			<point x="517" y="19"/>
			<point x="641" y="-12"/>
			<point x="759" y="-12" type="curve" smooth="yes"/>
			<point x="1018" y="-12"/>
			<point x="1191" y="138"/>
			<point x="1191" y="351" type="curve" smooth="yes"/>
			<point x="1191" y="502"/>
			<point x="1104" y="610"/>
			<point x="1020" y="695" type="curve" smooth="yes"/>
			<point x="941" y="775"/>
			<point x="854" y="852"/>
			<point x="854" y="978" type="curve" smooth="yes"/>
			<point x="854" y="1095"/>
			<point x="914" y="1187"/>
			<point x="1274" y="1464" type="curve" smooth="yes"/>
			<point x="1332" y="1509"/>
			<point x="1340" y="1529"/>
			<point x="1340" y="1548" type="curve" smooth="yes"/>
			<point x="1340" y="1583"/>
			<point x="1314" y="1600"/>
			<point x="1274" y="1600" type="curve" smooth="yes"/>
			<point x="563" y="1600" type="line" smooth="yes"/>
			<point x="539" y="1600"/>
			<point x="527" y="1588"/>
			<point x="522" y="1569" type="curve" smooth="yes"/>
			<point x="125" y="96" type="line" smooth="yes"/>
			<point x="114" y="55"/>
			<point x="110" y="33"/>
			<point x="110" y="22" type="curve" smooth="yes"/>
			<point x="110" y="-2"/>
			<point x="131" y="-12"/>
		</contour>
	</outline>
</glyph>
<glyph name="endash" format="2">
	<unicode hex="2013"/>
	<advance width="1558"/>
	<outline>
		<contour>
			<point x="195" y="630" type="curve" smooth="yes"/>
			<point x="583" y="630"/>
			<point x="1019" y="637"/>
			<point x="1348" y="651" type="curve" smooth="yes"/>
			<point x="1390" y="653"/>
			<point x="1408" y="666"/>
			<point x="1408" y="687" type="curve" smooth="yes"/>
			<point x="1408" y="703"/>
			<point x="1393" y="714"/>
			<point x="1368" y="714" type="curve" smooth="yes"/>
			<point x="1346" y="714"/>
			<point x="1342" y="714"/>
			<point x="1230" y="712" type="curve" smooth="yes"/>
			<point x="1058" y="709"/>
			<point x="589" y="702"/>
			<point x="195" y="702" type="curve" smooth="yes"/>
			<point x="166" y="702"/>
			<point x="150" y="687"/>
			<point x="150" y="667" type="curve" smooth="yes"/>
			<point x="150" y="646"/>
			<point x="166" y="630"/>
		</contour>
	</outline>
</glyph>
<glyph name="daggerdbl" format="2">
	<unicode hex="2021"/>
	<advance width="758"/>
	<outline>
		<contour>
			<point x="236" y="396" type="curve" smooth="yes"/>
			<point x="255" y="396"/>
			<point x="264" y="404"/>
			<point x="298" y="560" type="curve" smooth="yes"/>
			<point x="510" y="1526" type="line" smooth="yes"/>
			<point x="520" y="1572"/>
			<point x="524" y="1588"/>
			<point x="524" y="1596" type="curve" smooth="yes"/>
			<point x="524" y="1612"/>
			<point x="498" y="1625"/>
			<point x="477" y="1625" type="curve" smooth="yes"/>
			<point x="456" y="1625"/>
			<point x="445" y="1614"/>
			<point x="433" y="1561" type="curve" smooth="yes"/>
			<point x="395" y="1395"/>
			<point x="277" y="792"/>
			<point x="244" y="625" type="curve" smooth="yes"/>
			<point x="222" y="512"/>
			<point x="216" y="461"/>
			<point x="216" y="437" type="curve" smooth="yes"/>
			<point x="216" y="416"/>
			<point x="220" y="396"/>
		</contour>
		<contour>
			<point x="80" y="777" type="curve" smooth="yes"/>
			<point x="80" y="761"/>
			<point x="91" y="749"/>
			<point x="119" y="744" type="curve" smooth="yes"/>
			<point x="149" y="739"/>
			<point x="240" y="736"/>
			<point x="295" y="736" type="curve" smooth="yes"/>
			<point x="415" y="736"/>
			<point x="507" y="744"/>
			<point x="543" y="755" type="curve" smooth="yes"/>
			<point x="567" y="762"/>
			<point x="580" y="769"/>
			<point x="580" y="787" type="curve" smooth="yes"/>
			<point x="580" y="797"/>
			<point x="571" y="811"/>
			<point x="548" y="811" type="curve" smooth="yes"/>
			<point x="538" y="811"/>
			<point x="518" y="811"/>
			<point x="494" y="810" type="curve" smooth="yes"/>
			<point x="448" y="808"/>
			<point x="388" y="806"/>
			<point x="333" y="806" type="curve" smooth="yes"/>
			<point x="313" y="806"/>
			<point x="238" y="807"/>
			<point x="172" y="811" type="curve" smooth="yes"/>
			<point x="146" y="813"/>
			<point x="127" y="813"/>
			<point x="120" y="813" type="curve" smooth="yes"/>
			<point x="93" y="813"/>
			<point x="80" y="798"/>
		</contour>
		<contour>
			<point x="178" y="1299" type="curve" smooth="yes"/>
			<point x="178" y="1283"/>
			<point x="189" y="1270"/>
			<point x="217" y="1266" type="curve" smooth="yes"/>
			<point x="249" y="1261"/>
			<point x="333" y="1257"/>
			<point x="398" y="1258" type="curve" smooth="yes"/>
			<point x="512" y="1259"/>
			<point x="591" y="1262"/>
			<point x="641" y="1277" type="curve" smooth="yes"/>
			<point x="665" y="1284"/>
			<point x="678" y="1291"/>
			<point x="678" y="1309" type="curve" smooth="yes"/>
			<point x="678" y="1319"/>
			<point x="669" y="1333"/>
			<point x="646" y="1333" type="curve" smooth="yes"/>
			<point x="635" y="1333"/>
			<point x="614" y="1333"/>
			<point x="588" y="1332" type="curve" smooth="yes"/>
			<point x="540" y="1329"/>
			<point x="460" y="1327"/>
			<point x="422" y="1328" type="curve" smooth="yes"/>
			<point x="387" y="1328"/>
			<point x="336" y="1330"/>
			<point x="276" y="1333" type="curve" smooth="yes"/>
			<point x="258" y="1334"/>
			<point x="224" y="1335"/>
			<point x="218" y="1335" type="curve" smooth="yes"/>
			<point x="191" y="1335"/>
			<point x="178" y="1320"/>
		</contour>
	</outline>
</glyph>
<glyph name="guilsinglleft" format="2">
	<unicode hex="2039"/>
	<advance width="760"/>
	<outline>
		<contour>
			<point x="403" y="149" type="curve" smooth="yes"/>
			<point x="423" y="149"/>
			<point x="439" y="169"/>
			<point x="439" y="185" type="curve" smooth="yes"/>
			<point x="439" y="195"/>
			<point x="436" y="203"/>
			<point x="411" y="245" type="curve" smooth="yes"/>
			<point x="351" y="343"/>
			<point x="248" y="471"/>
			<point x="204" y="518" type="curve"/>
			<point x="207" y="478" type="line"/>
			<point x="345" y="580"/>
			<point x="475" y="674"/>
			<point x="577" y="789" type="curve" smooth="yes"/>
			<point x="602" y="818"/>
			<point x="610" y="830"/>
			<point x="610" y="842" type="curve" smooth="yes"/>
			<point x="610" y="863"/>
			<point x="591" y="880"/>
			<point x="570" y="880" type="curve" smooth="yes"/>
			<point x="561" y="880"/>
			<point x="552" y="874"/>
			<point x="539" y="859" type="curve" smooth="yes"/>
			<point x="442" y="744"/>
			<point x="312" y="628"/>
			<point x="207" y="557" type="curve" smooth="yes"/>
			<point x="169" y="531"/>
			<point x="160" y="516"/>
			<point x="160" y="498" type="curve" smooth="yes"/>
			<point x="160" y="481"/>
			<point x="169" y="468"/>
			<point x="195" y="434" type="curve" smooth="yes"/>
			<point x="241" y="374"/>
			<point x="312" y="273"/>
			<point x="363" y="186" type="curve" smooth="yes"/>
			<point x="381" y="155"/>
			<point x="391" y="149"/>
		</contour>
	</outline>
</glyph>
<glyph name="fraction" format="2">
	<unicode hex="2044"/>
	<advance width="392"/>
	<outline>
		<contour>
			<point x="-242" y="-85" type="curve" smooth="yes"/>
			<point x="-228" y="-85"/>
			<point x="-216" y="-77"/>
			<point x="-210" y="-66" type="curve" smooth="yes"/>
			<point x="666" y="1466" type="line" smooth="yes"/>
			<point x="669" y="1472"/>
			<point x="672" y="1479"/>
			<point x="672" y="1486" type="curve" smooth="yes"/>
			<point x="672" y="1507"/>
			<point x="655" y="1524"/>
			<point x="634" y="1524" type="curve" smooth="yes"/>
			<point x="620" y="1524"/>
			<point x="608" y="1516"/>
			<point x="602" y="1505" type="curve" smooth="yes"/>
			<point x="-274" y="-27" type="line" smooth="yes"/>
			<point x="-277" y="-33"/>
			<point x="-280" y="-40"/>
			<point x="-280" y="-47" type="curve" smooth="yes"/>
			<point x="-280" y="-68"/>
			<point x="-263" y="-85"/>
		</contour>
	</outline>
</glyph>
<glyph name="zerosuperior" format="2">
	<unicode hex="2070"/>
	<advance width="793"/>
	<outline>
		<contour>
			<point x="289" y="989" type="curve" smooth="yes"/>
			<point x="514" y="989"/>
			<point x="723" y="1279"/>
			<point x="723" y="1578" type="curve" smooth="yes"/>
			<point x="723" y="1742"/>
			<point x="643" y="1828"/>
			<point x="523" y="1828" type="curve" smooth="yes"/>
			<point x="299" y="1828"/>
			<point x="90" y="1538"/>
			<point x="90" y="1239" type="curve" smooth="yes"/>
			<point x="90" y="1075"/>
			<point x="170" y="989"/>
		</contour>
		<contour>
			<point x="305" y="1064" type="curve" smooth="yes"/>
			<point x="221" y="1064"/>
			<point x="170" y="1124"/>
			<point x="170" y="1243" type="curve" smooth="yes"/>
			<point x="170" y="1478"/>
			<point x="324" y="1753"/>
			<point x="506" y="1753" type="curve" smooth="yes"/>
			<point x="592" y="1753"/>
			<point x="643" y="1693"/>
			<point x="643" y="1574" type="curve" smooth="yes"/>
			<point x="643" y="1339"/>
			<point x="489" y="1064"/>
		</contour>
	</outline>
</glyph>
<glyph name="eightsuperior" format="2">
	<unicode hex="2078"/>
	<advance width="801"/>
	<outline>
		<contour>
			<point x="316" y="989" type="curve" smooth="yes"/>
			<point x="514" y="989"/>
			<point x="668" y="1102"/>
			<point x="668" y="1246" type="curve" smooth="yes"/>
			<point x="668" y="1316"/>
			<point x="623" y="1367"/>
			<point x="519" y="1412" type="curve"/>
			<point x="661" y="1475"/>
			<point x="751" y="1565"/>
			<point x="751" y="1669" type="curve" smooth="yes"/>
			<point x="751" y="1766"/>
			<point x="659" y="1828"/>
			<point x="531" y="1828" type="curve" smooth="yes"/>
			<point x="352" y="1828"/>
			<point x="201" y="1713"/>
			<point x="201" y="1575" type="curve" smooth="yes"/>
			<point x="201" y="1517"/>
			<point x="233" y="1466"/>
			<point x="313" y="1425" type="curve"/>
			<point x="162" y="1371"/>
			<point x="70" y="1273"/>
			<point x="70" y="1169" type="curve" smooth="yes"/>
			<point x="70" y="1061"/>
			<point x="166" y="989"/>
		</contour>
		<contour>
			<point x="148" y="1180" type="curve" smooth="yes"/>
			<point x="148" y="1272"/>
			<point x="241" y="1346"/>
			<point x="375" y="1392" type="curve"/>
			<point x="533" y="1335"/>
			<point x="590" y="1292"/>
			<point x="590" y="1230" type="curve" smooth="yes"/>
			<point x="590" y="1127"/>
			<point x="476" y="1059"/>
			<point x="336" y="1059" type="curve" smooth="yes"/>
			<point x="219" y="1059"/>
			<point x="148" y="1108"/>
		</contour>
		<contour>
			<point x="279" y="1590" type="curve" smooth="yes"/>
			<point x="279" y="1706"/>
			<point x="414" y="1758"/>
			<point x="511" y="1758" type="curve" smooth="yes"/>
			<point x="605" y="1758"/>
			<point x="673" y="1716"/>
			<point x="673" y="1648" type="curve" smooth="yes"/>
			<point x="673" y="1568"/>
			<point x="593" y="1500"/>
			<point x="458" y="1443" type="curve"/>
			<point x="319" y="1495"/>
			<point x="279" y="1534"/>
		</contour>
	</outline>
</glyph>
<glyph name="ninesuperior" format="2">
	<unicode hex="2079"/>
	<advance width="742"/>
	<outline>
		<contour>
			<point x="556" y="1397" type="curve"/>
			<point x="538" y="1436" type="line"/>
			<point x="475" y="1397"/>
			<point x="396" y="1367"/>
			<point x="316" y="1367" type="curve" smooth="yes"/>
			<point x="211" y="1367"/>
			<point x="160" y="1412"/>
			<point x="160" y="1496" type="curve" smooth="yes"/>
			<point x="160" y="1628"/>
			<point x="285" y="1754"/>
			<point x="417" y="1754" type="curve" smooth="yes"/>
			<point x="509" y="1754"/>
			<point x="572" y="1704"/>
			<point x="572" y="1600" type="curve" smooth="yes"/>
			<point x="572" y="1431"/>
			<point x="439" y="1281"/>
			<point x="216" y="1070" type="curve" smooth="yes"/>
			<point x="189" y="1044"/>
			<point x="172" y="1031"/>
			<point x="172" y="1011" type="curve" smooth="yes"/>
			<point x="172" y="991"/>
			<point x="188" y="977"/>
			<point x="206" y="977" type="curve" smooth="yes"/>
			<point x="223" y="977"/>
			<point x="233" y="987"/>
			<point x="268" y="1019" type="curve" smooth="yes"/>
			<point x="523" y="1252"/>
			<point x="652" y="1443"/>
			<point x="652" y="1613" type="curve" smooth="yes"/>
			<point x="652" y="1746"/>
			<point x="571" y="1828"/>
			<point x="438" y="1828" type="curve" smooth="yes"/>
			<point x="257" y="1828"/>
			<point x="80" y="1665"/>
			<point x="80" y="1481" type="curve" smooth="yes"/>
			<point x="80" y="1374"/>
			<point x="157" y="1297"/>
			<point x="287" y="1297" type="curve" smooth="yes"/>
			<point x="391" y="1297"/>
			<point x="489" y="1340"/>
		</contour>
	</outline>
</glyph>
<glyph name="euro" format="2">
	<unicode hex="20AC"/>
	<advance width="1200"/>
	<outline>
		<contour>
			<point x="991" y="1615" type="curve" smooth="yes"/>
			<point x="615" y="1615"/>
			<point x="260" y="1110"/>
			<point x="260" y="543" type="curve" smooth="yes"/>
			<point x="260" y="154"/>
			<point x="436" y="-12"/>
			<point x="653" y="-12" type="curve" smooth="yes"/>
			<point x="809" y="-12"/>
			<point x="970" y="72"/>
			<point x="1059" y="164" type="curve" smooth="yes"/>
			<point x="1080" y="186"/>
			<point x="1091" y="201"/>
			<point x="1091" y="215" type="curve" smooth="yes"/>
			<point x="1091" y="230"/>
			<point x="1080" y="238"/>
			<point x="1066" y="238" type="curve" smooth="yes"/>
			<point x="1056" y="238"/>
			<point x="1050" y="233"/>
			<point x="1020" y="208" type="curve" smooth="yes"/>
			<point x="903" y="111"/>
			<point x="792" y="63"/>
			<point x="678" y="63" type="curve" smooth="yes"/>
			<point x="484" y="63"/>
			<point x="340" y="205"/>
			<point x="340" y="549" type="curve" smooth="yes"/>
			<point x="340" y="1076"/>
			<point x="658" y="1540"/>
			<point x="1003" y="1540" type="curve" smooth="yes"/>
			<point x="1069" y="1540"/>
			<point x="1123" y="1522"/>
			<point x="1189" y="1462" type="curve" smooth="yes"/>
			<point x="1212" y="1441"/>
			<point x="1215" y="1434"/>
			<point x="1226" y="1434" type="curve" smooth="yes"/>
			<point x="1245" y="1434"/>
			<point x="1261" y="1451"/>
			<point x="1261" y="1465" type="curve" smooth="yes"/>
			<point x="1261" y="1480"/>
			<point x="1243" y="1504"/>
			<point x="1220" y="1526" type="curve" smooth="yes"/>
			<point x="1168" y="1577"/>
			<point x="1093" y="1615"/>
		</contour>
		<contour>
			<point x="169" y="946" type="curve" smooth="yes"/>
			<point x="169" y="926"/>
			<point x="185" y="910"/>
			<point x="228" y="910" type="curve" smooth="yes"/>
			<point x="398" y="910"/>
			<point x="587" y="915"/>
			<point x="794" y="929" type="curve" smooth="yes"/>
			<point x="883" y="935"/>
			<point x="903" y="944"/>
			<point x="903" y="971" type="curve" smooth="yes"/>
			<point x="903" y="989"/>
			<point x="895" y="998"/>
			<point x="872" y="998" type="curve" smooth="yes"/>
			<point x="846" y="998"/>
			<point x="807" y="997"/>
			<point x="736" y="994" type="curve" smooth="yes"/>
			<point x="589" y="988"/>
			<point x="391" y="984"/>
			<point x="235" y="984" type="curve" smooth="yes"/>
			<point x="180" y="984"/>
			<point x="169" y="968"/>
		</contour>
		<contour>
			<point x="97" y="677" type="curve" smooth="yes"/>
			<point x="97" y="657"/>
			<point x="114" y="641"/>
			<point x="156" y="641" type="curve" smooth="yes"/>
			<point x="327" y="641"/>
			<point x="515" y="646"/>
			<point x="722" y="660" type="curve" smooth="yes"/>
			<point x="811" y="666"/>
			<point x="831" y="675"/>
			<point x="831" y="702" type="curve" smooth="yes"/>
			<point x="831" y="720"/>
			<point x="823" y="729"/>
			<point x="800" y="729" type="curve" smooth="yes"/>
			<point x="774" y="729"/>
			<point x="736" y="728"/>
			<point x="664" y="725" type="curve" smooth="yes"/>
			<point x="517" y="719"/>
			<point x="319" y="715"/>
			<point x="164" y="715" type="curve" smooth="yes"/>
			<point x="108" y="715"/>
			<point x="97" y="699"/>
		</contour>
	</outline>
</glyph>
<glyph name="trademark" format="2">
	<unicode hex="2122"/>
	<advance width="2005"/>
	<outline>
		<contour>
			<point x="425" y="790" type="curve" smooth="yes"/>
			<point x="452" y="790"/>
			<point x="468" y="798"/>
			<point x="470" y="825" type="curve" smooth="yes"/>
			<point x="533" y="1681" type="line"/>
			<point x="804" y="1681" type="line" smooth="yes"/>
			<point x="833" y="1681"/>
			<point x="852" y="1696"/>
			<point x="852" y="1725" type="curve" smooth="yes"/>
			<point x="852" y="1745"/>
			<point x="837" y="1757"/>
			<point x="819" y="1757" type="curve" smooth="yes"/>
			<point x="194" y="1757" type="line" smooth="yes"/>
			<point x="166" y="1757"/>
			<point x="150" y="1741"/>
			<point x="150" y="1716" type="curve" smooth="yes"/>
			<point x="150" y="1693"/>
			<point x="164" y="1681"/>
			<point x="187" y="1681" type="curve" smooth="yes"/>
			<point x="451" y="1681" type="line"/>
			<point x="390" y="848" type="line" smooth="yes"/>
			<point x="390" y="841"/>
			<point x="389" y="848"/>
			<point x="389" y="823" type="curve" smooth="yes"/>
			<point x="389" y="799"/>
			<point x="401" y="790"/>
		</contour>
		<contour>
			<point x="895" y="823" type="curve" smooth="yes"/>
			<point x="895" y="801"/>
			<point x="911" y="790"/>
			<point x="937" y="790" type="curve" smooth="yes"/>
			<point x="952" y="790"/>
			<point x="967" y="797"/>
			<point x="971" y="825" type="curve" smooth="yes"/>
			<point x="1072" y="1533" type="line" smooth="yes"/>
			<point x="1079" y="1582"/>
			<point x="1083" y="1625"/>
			<point x="1085" y="1678" type="curve"/>
			<point x="1073" y="1678" type="line"/>
			<point x="1082" y="1621"/>
			<point x="1093" y="1574"/>
			<point x="1112" y="1517" type="curve" smooth="yes"/>
			<point x="1312" y="905" type="line" smooth="yes"/>
			<point x="1327" y="859"/>
			<point x="1339" y="851"/>
			<point x="1363" y="851" type="curve" smooth="yes"/>
			<point x="1398" y="851"/>
			<point x="1413" y="867"/>
			<point x="1439" y="923" type="curve" smooth="yes"/>
			<point x="1723" y="1535" type="line" smooth="yes"/>
			<point x="1743" y="1578"/>
			<point x="1760" y="1619"/>
			<point x="1774" y="1679" type="curve"/>
			<point x="1762" y="1679" type="line"/>
			<point x="1758" y="1619"/>
			<point x="1756" y="1573"/>
			<point x="1757" y="1527" type="curve" smooth="yes"/>
			<point x="1772" y="841" type="line" smooth="yes"/>
			<point x="1773" y="795"/>
			<point x="1800" y="790"/>
			<point x="1813" y="790" type="curve" smooth="yes"/>
			<point x="1835" y="790"/>
			<point x="1855" y="800"/>
			<point x="1855" y="826" type="curve" smooth="yes"/>
			<point x="1855" y="838"/>
			<point x="1854" y="873"/>
			<point x="1853" y="904" type="curve" smooth="yes"/>
			<point x="1828" y="1703" type="line" smooth="yes"/>
			<point x="1827" y="1735"/>
			<point x="1817" y="1757"/>
			<point x="1785" y="1757" type="curve" smooth="yes"/>
			<point x="1760" y="1757"/>
			<point x="1746" y="1751"/>
			<point x="1728" y="1712" type="curve" smooth="yes"/>
			<point x="1429" y="1064" type="line" smooth="yes"/>
			<point x="1402" y="1005"/>
			<point x="1377" y="944"/>
			<point x="1361" y="897" type="curve"/>
			<point x="1385" y="897" type="line"/>
			<point x="1377" y="949"/>
			<point x="1356" y="1021"/>
			<point x="1339" y="1074" type="curve" smooth="yes"/>
			<point x="1132" y="1710" type="line" smooth="yes"/>
			<point x="1120" y="1747"/>
			<point x="1108" y="1757"/>
			<point x="1077" y="1757" type="curve" smooth="yes"/>
			<point x="1050" y="1757"/>
			<point x="1031" y="1737"/>
			<point x="1026" y="1704" type="curve" smooth="yes"/>
			<point x="901" y="875" type="line" smooth="yes"/>
			<point x="896" y="842"/>
			<point x="895" y="831"/>
		</contour>
	</outline>
</glyph>
<glyph name="minus" format="2">
	<unicode hex="2212"/>
	<advance width="1200"/>
	<outline>
		<contour>
			<point x="259" y="766" type="curve" smooth="yes"/>
			<point x="483" y="766"/>
			<point x="776" y="766"/>
			<point x="958" y="775" type="curve" smooth="yes"/>
			<point x="1019" y="778"/>
			<point x="1035" y="795"/>
			<point x="1035" y="817" type="curve" smooth="yes"/>
			<point x="1035" y="834"/>
			<point x="1023" y="844"/>
			<point x="987" y="844" type="curve" smooth="yes"/>
			<point x="807" y="842"/>
			<point x="487" y="841"/>
			<point x="259" y="841" type="curve" smooth="yes"/>
			<point x="219" y="841"/>
			<point x="208" y="824"/>
			<point x="208" y="803" type="curve" smooth="yes"/>
			<point x="208" y="782"/>
			<point x="219" y="766"/>
		</contour>
	</outline>
</glyph>
<glyph name="dotmath" format="2">
	<unicode hex="22C5"/>
	<advance width="1200"/>
	<outline>
		<contour>
			<point x="605" y="683" type="curve" smooth="yes"/>
			<point x="674" y="683"/>
			<point x="745" y="752"/>
			<point x="745" y="827" type="curve" smooth="yes"/>
			<point x="745" y="880"/>
			<point x="707" y="919"/>
			<point x="648" y="919" type="curve" smooth="yes"/>
			<point x="583" y="919"/>
			<point x="517" y="858"/>
			<point x="517" y="777" type="curve" smooth="yes"/>
			<point x="517" y="719"/>
			<point x="554" y="683"/>
		</contour>
	</outline>
</glyph>
<glyph name="heavyChevronSnowflake" format="2">
	<unicode hex="2746"/>
	<advance width="2370"/>
	<outline>
		<contour>
			<point x="400" y="318" type="curve" smooth="yes"/>
			<point x="400" y="304"/>
			<point x="406" y="294"/>
			<point x="421" y="294" type="curve" smooth="yes"/>
			<point x="451" y="294"/>
			<point x="539" y="345"/>
			<point x="741" y="479" type="curve" smooth="yes"/>
			<point x="951" y="617"/>
			<point x="1422" y="918"/>
			<point x="1624" y="1058" type="curve" smooth="yes"/>
			<point x="1877" y="1235"/>
			<point x="1948" y="1284"/>
			<point x="1948" y="1308" type="curve" smooth="yes"/>
			<point x="1948" y="1320"/>
			<point x="1939" y="1329"/>
			<point x="1929" y="1329" type="curve" smooth="yes"/>
			<point x="1915" y="1329"/>
			<point x="1891" y="1315"/>
			<point x="1849" y="1286" type="curve" smooth="yes"/>
			<point x="1617" y="1130" type="line" smooth="yes"/>
			<point x="1467" y="1029"/>
			<point x="1112" y="796"/>
			<point x="530" y="423" type="curve" smooth="yes"/>
			<point x="432" y="360"/>
			<point x="400" y="337"/>
		</contour>
		<contour>
			<point x="1622" y="1340" type="curve" smooth="yes"/>
			<point x="1573" y="1070" type="line"/>
			<point x="1640" y="1091" type="line"/>
			<point x="1663" y="1259"/>
			<point x="1676" y="1340"/>
			<point x="1676" y="1383" type="curve" smooth="yes"/>
			<point x="1676" y="1401"/>
			<point x="1670" y="1408"/>
			<point x="1659" y="1408" type="curve" smooth="yes"/>
			<point x="1634" y="1408"/>
			<point x="1631" y="1388"/>
		</contour>
		<contour>
			<point x="1605" y="1058" type="line"/>
			<point x="1793" y="1024"/>
			<point x="1883" y="1013"/>
			<point x="1931" y="1013" type="curve" smooth="yes"/>
			<point x="1964" y="1013"/>
			<point x="1970" y="1020"/>
			<point x="1970" y="1034" type="curve" smooth="yes"/>
			<point x="1970" y="1046"/>
			<point x="1954" y="1057"/>
			<point x="1903" y="1066" type="curve" smooth="yes"/>
			<point x="1627" y="1113" type="line"/>
		</contour>
		<contour>
			<point x="721" y="291" type="curve" smooth="yes"/>
			<point x="783" y="515" type="line"/>
			<point x="723" y="527" type="line"/>
			<point x="661" y="295"/>
			<point x="641" y="211"/>
			<point x="641" y="179" type="curve" smooth="yes"/>
			<point x="641" y="162"/>
			<point x="647" y="157"/>
			<point x="661" y="157" type="curve" smooth="yes"/>
			<point x="680" y="157"/>
			<point x="694" y="191"/>
		</contour>
		<contour>
			<point x="757" y="547" type="line"/>
			<point x="583" y="595"/>
			<point x="492" y="618"/>
			<point x="450" y="617" type="curve" smooth="yes"/>
			<point x="428" y="617"/>
			<point x="419" y="612"/>
			<point x="419" y="600" type="curve" smooth="yes"/>
			<point x="419" y="586"/>
			<point x="445" y="572"/>
			<point x="521" y="551" type="curve" smooth="yes"/>
			<point x="744" y="490" type="line"/>
		</contour>
		<contour>
			<point x="1970" y="318" type="curve" smooth="yes"/>
			<point x="1970" y="337"/>
			<point x="1937" y="360"/>
			<point x="1840" y="423" type="curve" smooth="yes"/>
			<point x="1258" y="796"/>
			<point x="903" y="1030"/>
			<point x="753" y="1130" type="curve" smooth="yes"/>
			<point x="521" y="1286" type="line" smooth="yes"/>
			<point x="479" y="1315"/>
			<point x="455" y="1329"/>
			<point x="441" y="1329" type="curve" smooth="yes"/>
			<point x="431" y="1329"/>
			<point x="422" y="1320"/>
			<point x="422" y="1308" type="curve" smooth="yes"/>
			<point x="422" y="1283"/>
			<point x="492" y="1235"/>
			<point x="746" y="1058" type="curve" smooth="yes"/>
			<point x="948" y="918"/>
			<point x="1419" y="617"/>
			<point x="1629" y="479" type="curve" smooth="yes"/>
			<point x="1831" y="345"/>
			<point x="1918" y="294"/>
			<point x="1949" y="294" type="curve" smooth="yes"/>
			<point x="1964" y="294"/>
			<point x="1970" y="304"/>
		</contour>
		<contour>
			<point x="730" y="1091" type="curve"/>
			<point x="797" y="1071" type="line"/>
			<point x="748" y="1340" type="line" smooth="yes"/>
			<point x="739" y="1388"/>
			<point x="736" y="1408"/>
			<point x="711" y="1408" type="curve" smooth="yes"/>
			<point x="701" y="1408"/>
			<point x="694" y="1401"/>
			<point x="694" y="1383" type="curve" smooth="yes"/>
			<point x="694" y="1339"/>
			<point x="707" y="1259"/>
		</contour>
		<contour>
			<point x="765" y="1058" type="curve"/>
			<point x="743" y="1113" type="line"/>
			<point x="467" y="1066" type="line" smooth="yes"/>
			<point x="416" y="1057"/>
			<point x="400" y="1046"/>
			<point x="400" y="1035" type="curve" smooth="yes"/>
			<point x="400" y="1020"/>
			<point x="406" y="1013"/>
			<point x="439" y="1013" type="curve" smooth="yes"/>
			<point x="487" y="1013"/>
			<point x="577" y="1024"/>
		</contour>
		<contour>
			<point x="1647" y="527" type="curve"/>
			<point x="1587" y="515" type="line"/>
			<point x="1649" y="291" type="line" smooth="yes"/>
			<point x="1676" y="191"/>
			<point x="1690" y="157"/>
			<point x="1709" y="157" type="curve" smooth="yes"/>
			<point x="1723" y="157"/>
			<point x="1729" y="162"/>
			<point x="1729" y="179" type="curve" smooth="yes"/>
			<point x="1729" y="211"/>
			<point x="1708" y="295"/>
		</contour>
		<contour>
			<point x="1613" y="547" type="curve"/>
			<point x="1626" y="490" type="line"/>
			<point x="1849" y="551" type="line" smooth="yes"/>
			<point x="1925" y="572"/>
			<point x="1951" y="585"/>
			<point x="1951" y="599" type="curve" smooth="yes"/>
			<point x="1951" y="612"/>
			<point x="1942" y="617"/>
			<point x="1920" y="617" type="curve" smooth="yes"/>
			<point x="1878" y="617"/>
			<point x="1787" y="596"/>
		</contour>
		<contour>
			<point x="1150" y="-120" type="curve" smooth="yes"/>
			<point x="1166" y="-110"/>
			<point x="1170" y="-71"/>
			<point x="1176" y="46" type="curve" smooth="yes"/>
			<point x="1207" y="735"/>
			<point x="1232" y="1160"/>
			<point x="1243" y="1340" type="curve" smooth="yes"/>
			<point x="1262" y="1619" type="line" smooth="yes"/>
			<point x="1266" y="1669"/>
			<point x="1267" y="1697"/>
			<point x="1259" y="1709" type="curve" smooth="yes"/>
			<point x="1254" y="1719"/>
			<point x="1241" y="1721"/>
			<point x="1232" y="1716" type="curve" smooth="yes"/>
			<point x="1210" y="1703"/>
			<point x="1203" y="1618"/>
			<point x="1177" y="1310" type="curve" smooth="yes"/>
			<point x="1157" y="1064"/>
			<point x="1132" y="506"/>
			<point x="1119" y="256" type="curve" smooth="yes"/>
			<point x="1103" y="13"/>
			<point x="1103" y="-87"/>
			<point x="1119" y="-114" type="curve" smooth="yes"/>
			<point x="1126" y="-127"/>
			<point x="1138" y="-127"/>
		</contour>
		<contour>
			<point x="1197" y="1340" type="curve"/>
			<point x="1214" y="1272" type="line"/>
			<point x="1423" y="1450" type="line" smooth="yes"/>
			<point x="1460" y="1481"/>
			<point x="1475" y="1494"/>
			<point x="1462" y="1515" type="curve" smooth="yes"/>
			<point x="1458" y="1525"/>
			<point x="1448" y="1527"/>
			<point x="1433" y="1518" type="curve" smooth="yes"/>
			<point x="1395" y="1496"/>
			<point x="1331" y="1444"/>
		</contour>
		<contour>
			<point x="1187" y="1294" type="curve"/>
			<point x="1224" y="1340" type="line"/>
			<point x="1044" y="1555" type="line" smooth="yes"/>
			<point x="1011" y="1595"/>
			<point x="994" y="1603"/>
			<point x="984" y="1597" type="curve" smooth="yes"/>
			<point x="971" y="1590"/>
			<point x="967" y="1582"/>
			<point x="985" y="1552" type="curve" smooth="yes"/>
			<point x="1008" y="1511"/>
			<point x="1063" y="1439"/>
		</contour>
		<contour>
			<point x="1169" y="264" type="curve"/>
			<point x="1128" y="310" type="line"/>
			<point x="966" y="144" type="line" smooth="yes"/>
			<point x="892" y="70"/>
			<point x="871" y="41"/>
			<point x="880" y="25" type="curve" smooth="yes"/>
			<point x="887" y="13"/>
			<point x="894" y="10"/>
			<point x="909" y="18" type="curve" smooth="yes"/>
			<point x="937" y="34"/>
			<point x="1000" y="95"/>
		</contour>
		<contour>
			<point x="1169" y="304" type="curve"/>
			<point x="1126" y="264" type="line"/>
			<point x="1291" y="102" type="line" smooth="yes"/>
			<point x="1347" y="46"/>
			<point x="1371" y="30"/>
			<point x="1384" y="37" type="curve" smooth="yes"/>
			<point x="1395" y="44"/>
			<point x="1395" y="54"/>
			<point x="1385" y="73" type="curve" smooth="yes"/>
			<point x="1363" y="110"/>
			<point x="1299" y="177"/>
		</contour>
	</outline>
</glyph>
<glyph name="E.isol" format="2">
	<advance width="1195"/>
	<outline>
		<contour>
			<point x="514" y="1541" type="line"/>
			<point x="169" y="280" type="line" smooth="yes"/>
			<point x="143" y="186"/>
			<point x="135" y="138"/>
			<point x="135" y="106" type="curve" smooth="yes"/>
			<point x="135" y="36"/>
			<point x="184" y="0"/>
			<point x="262" y="0" type="curve" smooth="yes"/>
			<point x="881" y="0" type="line" smooth="yes"/>
			<point x="914" y="0"/>
			<point x="934" y="17"/>
			<point x="934" y="40" type="curve" smooth="yes"/>
			<point x="934" y="58"/>
			<point x="917" y="75"/>
			<point x="893" y="75" type="curve" smooth="yes"/>
			<point x="270" y="75" type="line" smooth="yes"/>
			<point x="225" y="75"/>
			<point x="211" y="86"/>
			<point x="211" y="114" type="curve" smooth="yes"/>
			<point x="211" y="140"/>
			<point x="218" y="176"/>
			<point x="240" y="257" type="curve" smooth="yes"/>
			<point x="592" y="1543" type="line"/>
		</contour>
		<contour>
			<point x="473" y="1527" type="curve" smooth="yes"/>
			<point x="523" y="1527"/>
			<point x="1083" y="1533"/>
			<point x="1184" y="1536" type="curve" smooth="yes"/>
			<point x="1217" y="1537"/>
			<point x="1235" y="1552"/>
			<point x="1235" y="1574" type="curve" smooth="yes"/>
			<point x="1235" y="1593"/>
			<point x="1220" y="1611"/>
			<point x="1198" y="1611" type="curve" smooth="yes"/>
			<point x="1097" y="1611"/>
			<point x="509" y="1602"/>
			<point x="475" y="1600" type="curve" smooth="yes"/>
			<point x="444" y="1598"/>
			<point x="427" y="1582"/>
			<point x="427" y="1562" type="curve" smooth="yes"/>
			<point x="427" y="1541"/>
			<point x="444" y="1527"/>
		</contour>
		<contour>
			<point x="653" y="883" type="curve" smooth="yes"/>
			<point x="396" y="879" type="line"/>
			<point x="380" y="804" type="line"/>
			<point x="495" y="807"/>
			<point x="814" y="809"/>
			<point x="864" y="811" type="curve" smooth="yes"/>
			<point x="897" y="812"/>
			<point x="917" y="828"/>
			<point x="917" y="851" type="curve" smooth="yes"/>
			<point x="917" y="869"/>
			<point x="900" y="886"/>
			<point x="876" y="886" type="curve" smooth="yes"/>
			<point x="837" y="886"/>
			<point x="747" y="885"/>
		</contour>
	</outline>
	<anchor name="bottom" x="474" y="0"/>
	<anchor name="center" x="692" y="830"/>
	<anchor name="ogonek" x="785" y="0"/>
	<anchor name="top" x="880" y="1600"/>
</glyph>
<glyph name="IJ.isol" format="2">
	<advance width="1375"/>
	<outline>
		<contour>
			<point x="155" y="350" type="curve" smooth="yes"/>
			<point x="155" y="205"/>
			<point x="222" y="118"/>
			<point x="345" y="118" type="curve" smooth="yes"/>
			<point x="533" y="118"/>
			<point x="775" y="320"/>
			<point x="1019" y="862" type="curve"/>
			<point x="1009" y="849" type="line"/>
			<point x="920" y="545"/>
			<point x="860" y="291"/>
			<point x="788" y="-18" type="curve" smooth="yes"/>
			<point x="667" y="-538"/>
			<point x="569" y="-615"/>
			<point x="390" y="-615" type="curve" smooth="yes"/>
			<point x="319" y="-615"/>
			<point x="266" y="-596"/>
			<point x="221" y="-561" type="curve" smooth="yes"/>
			<point x="204" y="-548"/>
			<point x="190" y="-541"/>
			<point x="178" y="-541" type="curve" smooth="yes"/>
			<point x="163" y="-541"/>
			<point x="150" y="-554"/>
			<point x="150" y="-570" type="curve" smooth="yes"/>
			<point x="150" y="-614"/>
			<point x="248" y="-690"/>
			<point x="402" y="-690" type="curve" smooth="yes"/>
			<point x="642" y="-690"/>
			<point x="758" y="-491"/>
			<point x="837" y="-136" type="curve" smooth="yes"/>
			<point x="913" y="206"/>
			<point x="962" y="413"/>
			<point x="1054" y="763" type="curve" smooth="yes"/>
			<point x="1142" y="1099"/>
			<point x="1177" y="1202"/>
			<point x="1245" y="1402" type="curve" smooth="yes"/>
			<point x="1293" y="1544"/>
			<point x="1297" y="1560"/>
			<point x="1297" y="1578" type="curve" smooth="yes"/>
			<point x="1297" y="1597"/>
			<point x="1277" y="1606"/>
			<point x="1258" y="1606" type="curve" smooth="yes"/>
			<point x="1240" y="1606"/>
			<point x="1231" y="1601"/>
			<point x="1207" y="1529" type="curve" smooth="yes"/>
			<point x="1099" y="1200"/>
			<point x="1068" y="1113"/>
			<point x="928" y="817" type="curve" smooth="yes"/>
			<point x="717" y="371"/>
			<point x="514" y="193"/>
			<point x="361" y="193" type="curve" smooth="yes"/>
			<point x="277" y="193"/>
			<point x="235" y="249"/>
			<point x="235" y="365" type="curve" smooth="yes"/>
			<point x="235" y="461"/>
			<point x="256" y="577"/>
			<point x="332" y="788" type="curve" smooth="yes"/>
			<point x="401" y="980"/>
			<point x="499" y="1253"/>
			<point x="562" y="1478" type="curve" smooth="yes"/>
			<point x="585" y="1560"/>
			<point x="586" y="1575"/>
			<point x="586" y="1580" type="curve" smooth="yes"/>
			<point x="586" y="1599"/>
			<point x="569" y="1608"/>
			<point x="545" y="1608" type="curve" smooth="yes"/>
			<point x="528" y="1608"/>
			<point x="518" y="1603"/>
			<point x="499" y="1533" type="curve" smooth="yes"/>
			<point x="431" y="1288"/>
			<point x="337" y="1017"/>
			<point x="265" y="817" type="curve" smooth="yes"/>
			<point x="182" y="585"/>
			<point x="155" y="454"/>
		</contour>
	</outline>
</glyph>
<glyph name="L.swsh" format="2">
	<advance width="1129"/>
	<outline>
		<contour>
			<point x="0" y="88" type="curve" smooth="yes"/>
			<point x="0" y="23"/>
			<point x="50" y="-28"/>
			<point x="130" y="-28" type="curve" smooth="yes"/>
			<point x="227" y="-28"/>
			<point x="293" y="9"/>
			<point x="362" y="164" type="curve" smooth="yes"/>
			<point x="418" y="290"/>
			<point x="475" y="488"/>
			<point x="542" y="798" type="curve" smooth="yes"/>
			<point x="668" y="1384"/>
			<point x="799" y="1550"/>
			<point x="981" y="1550" type="curve" smooth="yes"/>
			<point x="1050" y="1550"/>
			<point x="1113" y="1529"/>
			<point x="1192" y="1480" type="curve" smooth="yes"/>
			<point x="1202" y="1474"/>
			<point x="1211" y="1470"/>
			<point x="1218" y="1470" type="curve" smooth="yes"/>
			<point x="1232" y="1470"/>
			<point x="1248" y="1484"/>
			<point x="1248" y="1502" type="curve" smooth="yes"/>
			<point x="1248" y="1515"/>
			<point x="1235" y="1530"/>
			<point x="1214" y="1547" type="curve" smooth="yes"/>
			<point x="1177" y="1577"/>
			<point x="1093" y="1625"/>
			<point x="984" y="1625" type="curve" smooth="yes"/>
			<point x="751" y="1625"/>
			<point x="610" y="1454"/>
			<point x="469" y="820" type="curve" smooth="yes"/>
			<point x="398" y="501"/>
			<point x="348" y="304"/>
			<point x="298" y="190" type="curve" smooth="yes"/>
			<point x="252" y="85"/>
			<point x="211" y="47"/>
			<point x="141" y="47" type="curve" smooth="yes"/>
			<point x="99" y="47"/>
			<point x="77" y="64"/>
			<point x="77" y="92" type="curve" smooth="yes"/>
			<point x="77" y="124"/>
			<point x="109" y="151"/>
			<point x="169" y="151" type="curve" smooth="yes"/>
			<point x="268" y="151"/>
			<point x="381" y="94"/>
			<point x="594" y="-52" type="curve" smooth="yes"/>
			<point x="853" y="-230"/>
			<point x="1092" y="-380"/>
			<point x="1420" y="-380" type="curve" smooth="yes"/>
			<point x="1570" y="-380"/>
			<point x="1692" y="-337"/>
			<point x="1762" y="-293" type="curve" smooth="yes"/>
			<point x="1826" y="-253"/>
			<point x="1848" y="-223"/>
			<point x="1848" y="-206" type="curve" smooth="yes"/>
			<point x="1848" y="-192"/>
			<point x="1835" y="-183"/>
			<point x="1826" y="-183" type="curve" smooth="yes"/>
			<point x="1810" y="-183"/>
			<point x="1801" y="-188"/>
			<point x="1777" y="-203" type="curve" smooth="yes"/>
			<point x="1671" y="-269"/>
			<point x="1562" y="-305"/>
			<point x="1421" y="-305" type="curve" smooth="yes"/>
			<point x="1122" y="-305"/>
			<point x="916" y="-176"/>
			<point x="635" y="11" type="curve" smooth="yes"/>
			<point x="391" y="174"/>
			<point x="282" y="223"/>
			<point x="179" y="223" type="curve" smooth="yes"/>
			<point x="72" y="223"/>
			<point x="0" y="160"/>
		</contour>
	</outline>
	<anchor name="bottom" x="453" y="0"/>
	<anchor name="center" x="507" y="839"/>
	<anchor name="top" x="984" y="1625"/>
	<anchor name="topright" x="1250" y="1600"/>
</glyph>
<glyph name="R.swsh" format="2">
	<advance width="1212"/>
	<outline>
		<contour>
			<point x="90" y="0" type="curve" smooth="yes"/>
			<point x="116" y="0"/>
			<point x="134" y="16"/>
			<point x="143" y="49" type="curve" smooth="yes"/>
			<point x="335" y="753" type="line"/>
			<point x="425" y="555"/>
			<point x="517" y="382"/>
			<point x="622" y="191" type="curve" smooth="yes"/>
			<point x="852" y="-228"/>
			<point x="1042" y="-380"/>
			<point x="1312" y="-380" type="curve" smooth="yes"/>
			<point x="1450" y="-380"/>
			<point x="1556" y="-347"/>
			<point x="1653" y="-273" type="curve" smooth="yes"/>
			<point x="1695" y="-241"/>
			<point x="1702" y="-223"/>
			<point x="1702" y="-206" type="curve" smooth="yes"/>
			<point x="1702" y="-192"/>
			<point x="1689" y="-183"/>
			<point x="1680" y="-183" type="curve" smooth="yes"/>
			<point x="1664" y="-183"/>
			<point x="1649" y="-193"/>
			<point x="1631" y="-206" type="curve" smooth="yes"/>
			<point x="1521" y="-283"/>
			<point x="1428" y="-305"/>
			<point x="1329" y="-305" type="curve" smooth="yes"/>
			<point x="1074" y="-305"/>
			<point x="910" y="-168"/>
			<point x="684" y="235" type="curve" smooth="yes"/>
			<point x="591" y="401"/>
			<point x="472" y="628"/>
			<point x="420" y="740" type="curve"/>
			<point x="456" y="735"/>
			<point x="494" y="732"/>
			<point x="535" y="732" type="curve" smooth="yes"/>
			<point x="893" y="732"/>
			<point x="1124" y="943"/>
			<point x="1124" y="1194" type="curve" smooth="yes"/>
			<point x="1124" y="1425"/>
			<point x="946" y="1610"/>
			<point x="590" y="1610" type="curve" smooth="yes"/>
			<point x="466" y="1610"/>
			<point x="357" y="1588"/>
			<point x="357" y="1551" type="curve" smooth="yes"/>
			<point x="357" y="1538"/>
			<point x="370" y="1522"/>
			<point x="387" y="1522" type="curve" smooth="yes"/>
			<point x="395" y="1522"/>
			<point x="461" y="1529"/>
			<point x="469" y="1530" type="curve"/>
			<point x="66" y="61" type="line" smooth="yes"/>
			<point x="61" y="43"/>
			<point x="60" y="35"/>
			<point x="60" y="29" type="curve" smooth="yes"/>
			<point x="60" y="10"/>
			<point x="70" y="0"/>
		</contour>
		<contour>
			<point x="353" y="820" type="curve"/>
			<point x="548" y="1534" type="line"/>
			<point x="566" y="1535"/>
			<point x="581" y="1535"/>
			<point x="594" y="1535" type="curve" smooth="yes"/>
			<point x="863" y="1535"/>
			<point x="1046" y="1406"/>
			<point x="1046" y="1191" type="curve" smooth="yes"/>
			<point x="1046" y="980"/>
			<point x="857" y="807"/>
			<point x="533" y="807" type="curve" smooth="yes"/>
			<point x="464" y="807"/>
			<point x="399" y="812"/>
		</contour>
	</outline>
	<anchor name="bottom" x="480" y="0"/>
	<anchor name="top" x="759" y="1600"/>
</glyph>
<glyph name="_part.Q-swash" format="2">
	<advance width="1242"/>
	<outline>
		<contour>
			<point x="811" y="-380" type="curve" smooth="yes"/>
			<point x="940" y="-380"/>
			<point x="1046" y="-347"/>
			<point x="1143" y="-273" type="curve" smooth="yes"/>
			<point x="1185" y="-241"/>
			<point x="1192" y="-223"/>
			<point x="1192" y="-206" type="curve" smooth="yes"/>
			<point x="1192" y="-192"/>
			<point x="1179" y="-183"/>
			<point x="1170" y="-183" type="curve" smooth="yes"/>
			<point x="1154" y="-183"/>
			<point x="1139" y="-193"/>
			<point x="1121" y="-206" type="curve" smooth="yes"/>
			<point x="1011" y="-283"/>
			<point x="918" y="-305"/>
			<point x="828" y="-305" type="curve" smooth="yes"/>
			<point x="608" y="-305"/>
			<point x="425" y="-130"/>
			<point x="123" y="642" type="curve" smooth="yes"/>
			<point x="112" y="670"/>
			<point x="101" y="679"/>
			<point x="87" y="679" type="curve" smooth="yes"/>
			<point x="67" y="679"/>
			<point x="50" y="664"/>
			<point x="50" y="644" type="curve" smooth="yes"/>
			<point x="50" y="638"/>
			<point x="51" y="631"/>
			<point x="65" y="596" type="curve" smooth="yes"/>
			<point x="365" y="-182"/>
			<point x="577" y="-380"/>
		</contour>
	</outline>
	<anchor name="_Qtail" x="50" y="0"/>
</glyph>
<glyph name="_part.Qtail" format="2">
	<advance width="651"/>
	<outline>
		<contour>
			<point x="573" y="-12" type="curve" smooth="yes"/>
			<point x="618" y="-12"/>
			<point x="634" y="14"/>
			<point x="634" y="32" type="curve" smooth="yes"/>
			<point x="634" y="51"/>
			<point x="614" y="63"/>
			<point x="589" y="63" type="curve" smooth="yes"/>
			<point x="465" y="63"/>
			<point x="331" y="174"/>
			<point x="134" y="612" type="curve" smooth="yes"/>
			<point x="109" y="668"/>
			<point x="100" y="679"/>
			<point x="87" y="679" type="curve" smooth="yes"/>
			<point x="67" y="679"/>
			<point x="50" y="664"/>
			<point x="50" y="644" type="curve" smooth="yes"/>
			<point x="50" y="638"/>
			<point x="51" y="623"/>
			<point x="77" y="566" type="curve" smooth="yes"/>
			<point x="273" y="128"/>
			<point x="427" y="-12"/>
		</contour>
	</outline>
	<anchor name="_Qtail" x="51" y="0"/>
</glyph>
<glyph name="b.e" format="2">
	<advance width="995"/>
	<outline>
		<contour>
			<point x="90" y="189" type="curve" smooth="yes"/>
			<point x="90" y="57"/>
			<point x="166" y="-12"/>
			<point x="268" y="-12" type="curve" smooth="yes"/>
			<point x="538" y="-12"/>
			<point x="805" y="324"/>
			<point x="805" y="657" type="curve" smooth="yes"/>
			<point x="805" y="842"/>
			<point x="728" y="935"/>
			<point x="614" y="935" type="curve" smooth="yes"/>
			<point x="588" y="935"/>
			<point x="571" y="917"/>
			<point x="571" y="899" type="curve" smooth="yes"/>
			<point x="571" y="882"/>
			<point x="589" y="870"/>
			<point x="619" y="870" type="curve" smooth="yes"/>
			<point x="667" y="870"/>
			<point x="730" y="794"/>
			<point x="730" y="645" type="curve" smooth="yes"/>
			<point x="730" y="358"/>
			<point x="502" y="63"/>
			<point x="283" y="63" type="curve" smooth="yes"/>
			<point x="208" y="63"/>
			<point x="170" y="106"/>
			<point x="170" y="203" type="curve" smooth="yes"/>
			<point x="170" y="281"/>
			<point x="186" y="360"/>
			<point x="224" y="503" type="curve" smooth="yes"/>
			<point x="499" y="1529" type="line" smooth="yes"/>
			<point x="503" y="1544"/>
			<point x="507" y="1562"/>
			<point x="507" y="1570" type="curve" smooth="yes"/>
			<point x="507" y="1587"/>
			<point x="485" y="1600"/>
			<point x="460" y="1600" type="curve" smooth="yes"/>
			<point x="440" y="1600"/>
			<point x="431" y="1587"/>
			<point x="422" y="1552" type="curve" smooth="yes"/>
			<point x="150" y="523" type="line" smooth="yes"/>
			<point x="110" y="373"/>
			<point x="90" y="274"/>
		</contour>
	</outline>
	<anchor name="bottom" x="283" y="0"/>
	<anchor name="top" x="472" y="1600"/>
</glyph>
<glyph name="caroncomb.case" format="2">
	<outline>
		<contour>
			<point x="603" y="1352" type="curve" smooth="yes"/>
			<point x="594" y="1352"/>
			<point x="584" y="1348"/>
			<point x="563" y="1336" type="curve" smooth="yes"/>
			<point x="270" y="1163" type="line"/>
			<point x="140" y="1320" type="line" smooth="yes"/>
			<point x="114" y="1351"/>
			<point x="100" y="1357"/>
			<point x="85" y="1357" type="curve" smooth="yes"/>
			<point x="68" y="1357"/>
			<point x="50" y="1343"/>
			<point x="50" y="1321" type="curve" smooth="yes"/>
			<point x="50" y="1301"/>
			<point x="69" y="1271"/>
			<point x="144" y="1179" type="curve" smooth="yes"/>
			<point x="222" y="1083"/>
			<point x="230" y="1076"/>
			<point x="256" y="1076" type="curve" smooth="yes"/>
			<point x="282" y="1076"/>
			<point x="307" y="1088"/>
			<point x="443" y="1181" type="curve" smooth="yes"/>
			<point x="605" y="1291"/>
			<point x="625" y="1311"/>
			<point x="625" y="1330" type="curve" smooth="yes"/>
			<point x="625" y="1343"/>
			<point x="613" y="1352"/>
		</contour>
	</outline>
	<anchor name="_top" x="213" y="910"/>
	<anchor name="top" x="331" y="1368"/>
</glyph>
<glyph name="circumflexcomb.case" format="2">
	<outline>
		<contour>
			<point x="72" y="1099" type="curve" smooth="yes"/>
			<point x="81" y="1099"/>
			<point x="91" y="1103"/>
			<point x="112" y="1115" type="curve" smooth="yes"/>
			<point x="405" y="1288" type="line"/>
			<point x="535" y="1131" type="line" smooth="yes"/>
			<point x="561" y="1100"/>
			<point x="575" y="1094"/>
			<point x="590" y="1094" type="curve" smooth="yes"/>
			<point x="607" y="1094"/>
			<point x="625" y="1108"/>
			<point x="625" y="1130" type="curve" smooth="yes"/>
			<point x="625" y="1150"/>
			<point x="606" y="1180"/>
			<point x="531" y="1272" type="curve" smooth="yes"/>
			<point x="453" y="1368"/>
			<point x="445" y="1375"/>
			<point x="419" y="1375" type="curve" smooth="yes"/>
			<point x="393" y="1375"/>
			<point x="368" y="1363"/>
			<point x="232" y="1270" type="curve" smooth="yes"/>
			<point x="70" y="1160"/>
			<point x="50" y="1140"/>
			<point x="50" y="1121" type="curve" smooth="yes"/>
			<point x="50" y="1108"/>
			<point x="62" y="1099"/>
		</contour>
	</outline>
	<anchor name="_top" x="300" y="970"/>
	<anchor name="top" x="420" y="1375"/>
</glyph>
<glyph name="d.medi" format="2">
	<advance width="785"/>
	<outline>
		<contour>
			<point x="951" y="1556" type="curve" smooth="yes"/>
			<point x="626" y="328" type="line" smooth="yes"/>
			<point x="589" y="187"/>
			<point x="585" y="158"/>
			<point x="585" y="124" type="curve" smooth="yes"/>
			<point x="585" y="26"/>
			<point x="626" y="-12"/>
			<point x="706" y="-12" type="curve" smooth="yes"/>
			<point x="739" y="-12"/>
			<point x="763" y="6"/>
			<point x="763" y="34" type="curve" smooth="yes"/>
			<point x="763" y="50"/>
			<point x="754" y="63"/>
			<point x="725" y="63" type="curve" smooth="yes"/>
			<point x="685" y="63"/>
			<point x="665" y="82"/>
			<point x="665" y="133" type="curve" smooth="yes"/>
			<point x="665" y="171"/>
			<point x="678" y="223"/>
			<point x="703" y="317" type="curve" smooth="yes"/>
			<point x="1020" y="1496" type="line" smooth="yes"/>
			<point x="1027" y="1522"/>
			<point x="1035" y="1554"/>
			<point x="1035" y="1566" type="curve" smooth="yes"/>
			<point x="1035" y="1594"/>
			<point x="1015" y="1600"/>
			<point x="994" y="1600" type="curve" smooth="yes"/>
			<point x="974" y="1600"/>
			<point x="958" y="1584"/>
		</contour>
		<contour>
			<point x="799" y="748" type="curve"/>
			<point x="745" y="778" type="line"/>
			<point x="629" y="382"/>
			<point x="360" y="63"/>
			<point x="230" y="63" type="curve" smooth="yes"/>
			<point x="179" y="63"/>
			<point x="145" y="113"/>
			<point x="145" y="261" type="curve" smooth="yes"/>
			<point x="145" y="561"/>
			<point x="333" y="860"/>
			<point x="520" y="860" type="curve" smooth="yes"/>
			<point x="580" y="860"/>
			<point x="630" y="842"/>
			<point x="663" y="830" type="curve" smooth="yes"/>
			<point x="680" y="824"/>
			<point x="692" y="820"/>
			<point x="699" y="820" type="curve" smooth="yes"/>
			<point x="716" y="820"/>
			<point x="727" y="834"/>
			<point x="727" y="853" type="curve" smooth="yes"/>
			<point x="727" y="882"/>
			<point x="635" y="935"/>
			<point x="515" y="935" type="curve" smooth="yes"/>
			<point x="287" y="935"/>
			<point x="65" y="604"/>
			<point x="65" y="248" type="curve" smooth="yes"/>
			<point x="65" y="73"/>
			<point x="127" y="-12"/>
			<point x="213" y="-12" type="curve" smooth="yes"/>
			<point x="445" y="-12"/>
			<point x="698" y="442"/>
		</contour>
	</outline>
	<anchor name="bottom" x="275" y="0"/>
	<anchor name="center" x="858" y="1210"/>
	<anchor name="ogonek" x="640" y="0"/>
	<anchor name="top" x="1008" y="1602"/>
	<anchor name="topright" x="1131" y="1602"/>
</glyph>
<glyph name="eogonek.postb" format="2">
	<advance width="812"/>
	<outline>
		<contour>
			<point x="108" y="582" type="curve"/>
			<point x="89" y="516" type="line"/>
			<point x="449" y="534"/>
			<point x="576" y="674"/>
			<point x="576" y="805" type="curve" smooth="yes"/>
			<point x="576" y="890"/>
			<point x="509" y="935"/>
			<point x="428" y="935" type="curve" smooth="yes"/>
			<point x="213" y="935"/>
			<point x="20" y="674"/>
			<point x="20" y="347" type="curve" smooth="yes"/>
			<point x="20" y="117"/>
			<point x="155" y="-12"/>
			<point x="331" y="-12" type="curve" smooth="yes"/>
			<point x="370" y="-12"/>
			<point x="424" y="-1"/>
			<point x="449" y="10" type="curve"/>
			<point x="449" y="21" type="line"/>
			<point x="284" y="-112"/>
			<point x="228" y="-203"/>
			<point x="228" y="-286" type="curve" smooth="yes"/>
			<point x="228" y="-344"/>
			<point x="263" y="-386"/>
			<point x="334" y="-386" type="curve" smooth="yes"/>
			<point x="397" y="-386"/>
			<point x="461" y="-354"/>
			<point x="501" y="-315" type="curve" smooth="yes"/>
			<point x="519" y="-298"/>
			<point x="523" y="-287"/>
			<point x="523" y="-280" type="curve" smooth="yes"/>
			<point x="523" y="-263"/>
			<point x="509" y="-255"/>
			<point x="496" y="-255" type="curve" smooth="yes"/>
			<point x="486" y="-255"/>
			<point x="477" y="-259"/>
			<point x="460" y="-270" type="curve" smooth="yes"/>
			<point x="424" y="-294"/>
			<point x="382" y="-309"/>
			<point x="355" y="-309" type="curve" smooth="yes"/>
			<point x="324" y="-309"/>
			<point x="308" y="-297"/>
			<point x="308" y="-266" type="curve" smooth="yes"/>
			<point x="308" y="-203"/>
			<point x="373" y="-114"/>
			<point x="479" y="-22" type="curve" smooth="yes"/>
			<point x="636" y="114" type="line" smooth="yes"/>
			<point x="671" y="145"/>
			<point x="677" y="165"/>
			<point x="677" y="175" type="curve" smooth="yes"/>
			<point x="677" y="190"/>
			<point x="665" y="199"/>
			<point x="650" y="199" type="curve" smooth="yes"/>
			<point x="639" y="199"/>
			<point x="632" y="195"/>
			<point x="592" y="161" type="curve" smooth="yes"/>
			<point x="507" y="89"/>
			<point x="432" y="63"/>
			<point x="352" y="63" type="curve" smooth="yes"/>
			<point x="196" y="63"/>
			<point x="100" y="169"/>
			<point x="100" y="361" type="curve" smooth="yes"/>
			<point x="100" y="558"/>
			<point x="211" y="865"/>
			<point x="414" y="865" type="curve" smooth="yes"/>
			<point x="464" y="865"/>
			<point x="501" y="836"/>
			<point x="501" y="791" type="curve" smooth="yes"/>
			<point x="501" y="695"/>
			<point x="382" y="592"/>
		</contour>
	</outline>
	<anchor name="top" x="441" y="920"/>
</glyph>
<glyph name="eth.posto" format="2">
	<advance width="975"/>
	<outline>
		<contour>
			<point x="38" y="275" type="curve" smooth="yes"/>
			<point x="38" y="85"/>
			<point x="139" y="-12"/>
			<point x="279" y="-12" type="curve" smooth="yes"/>
			<point x="541" y="-12"/>
			<point x="835" y="307"/>
			<point x="835" y="855" type="curve" smooth="yes"/>
			<point x="835" y="1149"/>
			<point x="739" y="1402"/>
			<point x="554" y="1587" type="curve" smooth="yes"/>
			<point x="534" y="1607"/>
			<point x="510" y="1625"/>
			<point x="490" y="1625" type="curve" smooth="yes"/>
			<point x="476" y="1625"/>
			<point x="460" y="1615"/>
			<point x="460" y="1595" type="curve" smooth="yes"/>
			<point x="460" y="1586"/>
			<point x="465" y="1579"/>
			<point x="485" y="1560" type="curve" smooth="yes"/>
			<point x="667" y="1382"/>
			<point x="755" y="1144"/>
			<point x="755" y="830" type="curve" smooth="yes"/>
			<point x="755" y="348"/>
			<point x="504" y="63"/>
			<point x="292" y="63" type="curve" smooth="yes"/>
			<point x="184" y="63"/>
			<point x="118" y="138"/>
			<point x="118" y="285" type="curve" smooth="yes"/>
			<point x="118" y="453"/>
			<point x="196" y="623"/>
			<point x="295" y="735" type="curve" smooth="yes"/>
			<point x="324" y="768"/>
			<point x="334" y="774"/>
			<point x="350" y="783" type="curve"/>
			<point x="596" y="833"/>
			<point x="657" y="857"/>
			<point x="657" y="881" type="curve" smooth="yes"/>
			<point x="657" y="905"/>
			<point x="631" y="920"/>
			<point x="607" y="920" type="curve" smooth="yes"/>
			<point x="468" y="920"/>
			<point x="295" y="845"/>
			<point x="226" y="763" type="curve" smooth="yes"/>
			<point x="129" y="648"/>
			<point x="38" y="471"/>
		</contour>
		<contour>
			<point x="867" y="1456" type="curve" smooth="yes"/>
			<point x="762" y="1409"/>
			<point x="628" y="1351"/>
			<point x="453" y="1306" type="curve" smooth="yes"/>
			<point x="433" y="1301"/>
			<point x="428" y="1289"/>
			<point x="428" y="1277" type="curve" smooth="yes"/>
			<point x="428" y="1258"/>
			<point x="440" y="1241"/>
			<point x="456" y="1241" type="curve" smooth="yes"/>
			<point x="466" y="1241"/>
			<point x="473" y="1242"/>
			<point x="480" y="1243" type="curve" smooth="yes"/>
			<point x="563" y="1258"/>
			<point x="844" y="1356"/>
			<point x="906" y="1407" type="curve" smooth="yes"/>
			<point x="917" y="1416"/>
			<point x="925" y="1427"/>
			<point x="925" y="1439" type="curve" smooth="yes"/>
			<point x="925" y="1451"/>
			<point x="917" y="1467"/>
			<point x="899" y="1467" type="curve" smooth="yes"/>
			<point x="891" y="1467"/>
			<point x="886" y="1465"/>
		</contour>
	</outline>
</glyph>
<glyph name="f.medi" format="2">
	<advance width="26"/>
	<outline>
		<contour>
			<point x="-69" y="-609" type="curve" smooth="yes"/>
			<point x="-69" y="-648"/>
			<point x="-54" y="-670"/>
			<point x="-32" y="-670" type="curve" smooth="yes"/>
			<point x="-7" y="-670"/>
			<point x="11" y="-649"/>
			<point x="26" y="-569" type="curve" smooth="yes"/>
			<point x="43" y="-481"/>
			<point x="98" y="-185"/>
			<point x="153" y="156" type="curve"/>
			<point x="200" y="379"/>
			<point x="251" y="608"/>
			<point x="305" y="826" type="curve"/>
			<point x="543" y="1181"/>
			<point x="631" y="1409"/>
			<point x="631" y="1526" type="curve" smooth="yes"/>
			<point x="631" y="1598"/>
			<point x="598" y="1625"/>
			<point x="557" y="1625" type="curve" smooth="yes"/>
			<point x="487" y="1625"/>
			<point x="412" y="1570"/>
			<point x="336" y="1271" type="curve" smooth="yes"/>
			<point x="305" y="1148"/>
			<point x="261" y="957"/>
			<point x="224" y="775" type="curve"/>
			<point x="182" y="608"/>
			<point x="140" y="440"/>
			<point x="103" y="273" type="curve"/>
			<point x="51" y="268"/>
			<point x="22" y="259"/>
			<point x="22" y="233" type="curve" smooth="yes"/>
			<point x="22" y="210"/>
			<point x="35" y="194"/>
			<point x="79" y="167" type="curve"/>
			<point x="22" y="-93" type="line" smooth="yes"/>
			<point x="-35" y="-350"/>
			<point x="-69" y="-539"/>
		</contour>
		<contour>
			<point x="317" y="932" type="curve"/>
			<point x="322" y="933" type="line"/>
			<point x="360" y="1089"/>
			<point x="401" y="1240"/>
			<point x="431" y="1348" type="curve" smooth="yes"/>
			<point x="476" y="1509"/>
			<point x="509" y="1550"/>
			<point x="534" y="1550" type="curve" smooth="yes"/>
			<point x="550" y="1550"/>
			<point x="556" y="1538"/>
			<point x="556" y="1509" type="curve" smooth="yes"/>
			<point x="556" y="1434"/>
			<point x="485" y="1218"/>
		</contour>
	</outline>
</glyph>
<glyph name="finial.A" format="2">
	<advance width="26"/>
	<outline>
		<contour>
			<point x="-892" y="629" type="curve" smooth="yes"/>
			<point x="-629" y="629"/>
			<point x="-397" y="629"/>
			<point x="-274" y="637" type="curve" smooth="yes"/>
			<point x="-208" y="641"/>
			<point x="-194" y="666"/>
			<point x="-194" y="687" type="curve" smooth="yes"/>
			<point x="-194" y="697"/>
			<point x="-202" y="707"/>
			<point x="-222" y="707" type="curve" smooth="yes"/>
			<point x="-249" y="707"/>
			<point x="-317" y="699"/>
			<point x="-375" y="699" type="curve" smooth="yes"/>
			<point x="-449" y="699"/>
			<point x="-655" y="699"/>
			<point x="-804" y="701" type="curve" smooth="yes"/>
			<point x="-933" y="703"/>
			<point x="-1044" y="708"/>
			<point x="-1063" y="708" type="curve" smooth="yes"/>
			<point x="-1092" y="708"/>
			<point x="-1100" y="690"/>
			<point x="-1100" y="672" type="curve" smooth="yes"/>
			<point x="-1100" y="655"/>
			<point x="-1087" y="641"/>
			<point x="-1062" y="637" type="curve" smooth="yes"/>
			<point x="-1031" y="632"/>
			<point x="-950" y="629"/>
		</contour>
	</outline>
</glyph>
<glyph name="finial.r" format="2">
	<advance width="81"/>
	<outline>
		<contour>
			<point x="-27" y="679" type="curve" smooth="yes"/>
			<point x="-4" y="679"/>
			<point x="11" y="703"/>
			<point x="11" y="729" type="curve" smooth="yes"/>
			<point x="11" y="869"/>
			<point x="-60" y="933"/>
			<point x="-150" y="933" type="curve" smooth="yes"/>
			<point x="-195" y="933"/>
			<point x="-218" y="905"/>
			<point x="-218" y="872" type="curve" smooth="yes"/>
			<point x="-218" y="861"/>
			<point x="-212" y="852"/>
			<point x="-201" y="852" type="curve" smooth="yes"/>
			<point x="-195" y="852"/>
			<point x="-190" y="853"/>
			<point x="-181" y="856" type="curve" smooth="yes"/>
			<point x="-171" y="859"/>
			<point x="-162" y="860"/>
			<point x="-152" y="860" type="curve" smooth="yes"/>
			<point x="-108" y="860"/>
			<point x="-73" y="822"/>
			<point x="-66" y="736" type="curve" smooth="yes"/>
			<point x="-62" y="692"/>
			<point x="-50" y="679"/>
		</contour>
	</outline>
</glyph>
<glyph name="germandbls.salt" format="2">
	<advance width="952"/>
	<outline>
		<contour>
			<point x="336" y="-50" type="curve" smooth="yes"/>
			<point x="349" y="-50"/>
			<point x="364" y="-48"/>
			<point x="388" y="-43" type="curve" smooth="yes"/>
			<point x="685" y="21"/>
			<point x="854" y="155"/>
			<point x="854" y="349" type="curve" smooth="yes"/>
			<point x="854" y="435"/>
			<point x="819" y="503"/>
			<point x="704" y="617" type="curve" smooth="yes"/>
			<point x="611" y="709"/>
			<point x="588" y="750"/>
			<point x="588" y="800" type="curve" smooth="yes"/>
			<point x="588" y="874"/>
			<point x="613" y="907"/>
			<point x="769" y="1099" type="curve" smooth="yes"/>
			<point x="917" y="1282"/>
			<point x="964" y="1363"/>
			<point x="964" y="1460" type="curve" smooth="yes"/>
			<point x="964" y="1571"/>
			<point x="883" y="1625"/>
			<point x="793" y="1625" type="curve" smooth="yes"/>
			<point x="607" y="1625"/>
			<point x="471" y="1478"/>
			<point x="317" y="929" type="curve"/>
			<point x="312" y="932"/>
			<point x="301" y="935"/>
			<point x="295" y="935" type="curve" smooth="yes"/>
			<point x="276" y="935"/>
			<point x="260" y="920"/>
			<point x="248" y="840" type="curve"/>
			<point x="239" y="700"/>
			<point x="217" y="536"/>
			<point x="164" y="295" type="curve"/>
			<point x="20" y="-190"/>
			<point x="-86" y="-587"/>
			<point x="-86" y="-642" type="curve" smooth="yes"/>
			<point x="-86" y="-664"/>
			<point x="-59" y="-673"/>
			<point x="-41" y="-673" type="curve" smooth="yes"/>
			<point x="-25" y="-673"/>
			<point x="-16" y="-668"/>
			<point x="-10" y="-648" type="curve" smooth="yes"/>
			<point x="104" y="-238"/>
			<point x="208" y="174"/>
			<point x="290" y="567" type="curve"/>
			<point x="377" y="906" type="line" smooth="yes"/>
			<point x="500" y="1386"/>
			<point x="638" y="1550"/>
			<point x="780" y="1550" type="curve" smooth="yes"/>
			<point x="846" y="1550"/>
			<point x="889" y="1513"/>
			<point x="889" y="1449" type="curve" smooth="yes"/>
			<point x="889" y="1377"/>
			<point x="854" y="1304"/>
			<point x="717" y="1140" type="curve" smooth="yes"/>
			<point x="561" y="953"/>
			<point x="513" y="885"/>
			<point x="513" y="789" type="curve" smooth="yes"/>
			<point x="513" y="727"/>
			<point x="548" y="670"/>
			<point x="639" y="582" type="curve" smooth="yes"/>
			<point x="750" y="474"/>
			<point x="779" y="423"/>
			<point x="779" y="338" type="curve" smooth="yes"/>
			<point x="779" y="190"/>
			<point x="642" y="85"/>
			<point x="336" y="26" type="curve" smooth="yes"/>
			<point x="311" y="21"/>
			<point x="301" y="8"/>
			<point x="301" y="-12" type="curve" smooth="yes"/>
			<point x="301" y="-34"/>
			<point x="314" y="-50"/>
		</contour>
	</outline>
</glyph>
<glyph name="h.medi" format="2">
	<advance width="804"/>
	<outline>
		<contour>
			<point x="336" y="1271" type="curve" smooth="yes"/>
			<point x="299" y="1125"/>
			<point x="263" y="935"/>
			<point x="241" y="805" type="curve"/>
			<point x="53" y="83" type="line" smooth="yes"/>
			<point x="43" y="44"/>
			<point x="41" y="34"/>
			<point x="41" y="25" type="curve" smooth="yes"/>
			<point x="41" y="0"/>
			<point x="61" y="-12"/>
			<point x="80" y="-12" type="curve" smooth="yes"/>
			<point x="101" y="-12"/>
			<point x="121" y="1"/>
			<point x="138" y="73" type="curve" smooth="yes"/>
			<point x="167" y="194"/>
			<point x="192" y="264"/>
			<point x="253" y="390" type="curve" smooth="yes"/>
			<point x="382" y="657"/>
			<point x="602" y="860"/>
			<point x="722" y="860" type="curve" smooth="yes"/>
			<point x="771" y="860"/>
			<point x="797" y="829"/>
			<point x="797" y="770" type="curve" smooth="yes"/>
			<point x="797" y="682"/>
			<point x="749" y="556"/>
			<point x="701" y="431" type="curve" smooth="yes"/>
			<point x="644" y="282"/>
			<point x="615" y="185"/>
			<point x="615" y="111" type="curve" smooth="yes"/>
			<point x="615" y="25"/>
			<point x="658" y="-12"/>
			<point x="732" y="-12" type="curve" smooth="yes"/>
			<point x="765" y="-12"/>
			<point x="788" y="6"/>
			<point x="788" y="34" type="curve" smooth="yes"/>
			<point x="788" y="50"/>
			<point x="780" y="63"/>
			<point x="751" y="63" type="curve" smooth="yes"/>
			<point x="714" y="63"/>
			<point x="696" y="78"/>
			<point x="696" y="122" type="curve" smooth="yes"/>
			<point x="696" y="184"/>
			<point x="719" y="270"/>
			<point x="774" y="409" type="curve" smooth="yes"/>
			<point x="826" y="541"/>
			<point x="879" y="680"/>
			<point x="879" y="794" type="curve" smooth="yes"/>
			<point x="879" y="897"/>
			<point x="821" y="935"/>
			<point x="748" y="935" type="curve" smooth="yes"/>
			<point x="584" y="935"/>
			<point x="379" y="766"/>
			<point x="201" y="419" type="curve"/>
			<point x="210" y="416" type="line"/>
			<point x="305" y="826" type="line"/>
			<point x="543" y="1181"/>
			<point x="631" y="1409"/>
			<point x="631" y="1526" type="curve" smooth="yes"/>
			<point x="631" y="1598"/>
			<point x="598" y="1625"/>
			<point x="557" y="1625" type="curve" smooth="yes"/>
			<point x="487" y="1625"/>
			<point x="412" y="1570"/>
		</contour>
		<contour>
			<point x="325" y="949" type="curve"/>
			<point x="336" y="949" type="line"/>
			<point x="371" y="1110"/>
			<point x="395" y="1220"/>
			<point x="431" y="1348" type="curve" smooth="yes"/>
			<point x="476" y="1509"/>
			<point x="509" y="1550"/>
			<point x="534" y="1550" type="curve" smooth="yes"/>
			<point x="550" y="1550"/>
			<point x="556" y="1538"/>
			<point x="556" y="1509" type="curve" smooth="yes"/>
			<point x="556" y="1436"/>
			<point x="487" y="1227"/>
		</contour>
	</outline>
	<anchor name="bottom" x="402" y="0"/>
	<anchor name="center" x="381" y="1205"/>
	<anchor name="top" x="542" y="1600"/>
</glyph>
<glyph name="ij.fina" format="2">
	<advance width="1084"/>
	<outline>
		<contour>
			<point x="208" y="-690" type="curve" smooth="yes"/>
			<point x="390" y="-690"/>
			<point x="520" y="-567"/>
			<point x="607" y="-237" type="curve" smooth="yes"/>
			<point x="675" y="18"/>
			<point x="742" y="274"/>
			<point x="826" y="581" type="curve" smooth="yes"/>
			<point x="902" y="857"/>
			<point x="910" y="890"/>
			<point x="910" y="904" type="curve" smooth="yes"/>
			<point x="910" y="930"/>
			<point x="888" y="935"/>
			<point x="873" y="935" type="curve" smooth="yes"/>
			<point x="849" y="935"/>
			<point x="834" y="922"/>
			<point x="826" y="892" type="curve" smooth="yes"/>
			<point x="806" y="814"/>
			<point x="795" y="772"/>
			<point x="776" y="699" type="curve" smooth="yes"/>
			<point x="689" y="368"/>
			<point x="423" y="63"/>
			<point x="247" y="63" type="curve" smooth="yes"/>
			<point x="198" y="63"/>
			<point x="167" y="95"/>
			<point x="167" y="181" type="curve" smooth="yes"/>
			<point x="167" y="257"/>
			<point x="179" y="329"/>
			<point x="245" y="534" type="curve" smooth="yes"/>
			<point x="339" y="826"/>
			<point x="348" y="875"/>
			<point x="348" y="902" type="curve" smooth="yes"/>
			<point x="348" y="925"/>
			<point x="337" y="935"/>
			<point x="317" y="935" type="curve" smooth="yes"/>
			<point x="296" y="935"/>
			<point x="279" y="928"/>
			<point x="269" y="878" type="curve" smooth="yes"/>
			<point x="262" y="842"/>
			<point x="243" y="760"/>
			<point x="181" y="563" type="curve" smooth="yes"/>
			<point x="107" y="327"/>
			<point x="87" y="246"/>
			<point x="87" y="172" type="curve" smooth="yes"/>
			<point x="87" y="47"/>
			<point x="146" y="-12"/>
			<point x="229" y="-12" type="curve" smooth="yes"/>
			<point x="400" y="-12"/>
			<point x="557" y="140"/>
			<point x="701" y="373" type="curve"/>
			<point x="697" y="393" type="line"/>
			<point x="633" y="174"/>
			<point x="581" y="-19"/>
			<point x="524" y="-231" type="curve" smooth="yes"/>
			<point x="455" y="-487"/>
			<point x="355" y="-616"/>
			<point x="211" y="-616" type="curve" smooth="yes"/>
			<point x="142" y="-616"/>
			<point x="93" y="-599"/>
			<point x="46" y="-562" type="curve" smooth="yes"/>
			<point x="19" y="-541"/>
			<point x="5" y="-533"/>
			<point x="-7" y="-533" type="curve" smooth="yes"/>
			<point x="-20" y="-533"/>
			<point x="-32" y="-545"/>
			<point x="-32" y="-562" type="curve" smooth="yes"/>
			<point x="-32" y="-617"/>
			<point x="80" y="-690"/>
		</contour>
		<contour>
			<point x="377" y="1154" type="curve" smooth="yes"/>
			<point x="423" y="1154"/>
			<point x="465" y="1192"/>
			<point x="465" y="1243" type="curve" smooth="yes"/>
			<point x="465" y="1282"/>
			<point x="441" y="1307"/>
			<point x="401" y="1307" type="curve" smooth="yes"/>
			<point x="355" y="1307"/>
			<point x="315" y="1273"/>
			<point x="315" y="1221" type="curve" smooth="yes"/>
			<point x="315" y="1183"/>
			<point x="337" y="1154"/>
		</contour>
		<contour>
			<point x="929" y="1154" type="curve" smooth="yes"/>
			<point x="975" y="1154"/>
			<point x="1017" y="1192"/>
			<point x="1017" y="1243" type="curve" smooth="yes"/>
			<point x="1017" y="1282"/>
			<point x="993" y="1307"/>
			<point x="953" y="1307" type="curve" smooth="yes"/>
			<point x="907" y="1307"/>
			<point x="867" y="1273"/>
			<point x="867" y="1221" type="curve" smooth="yes"/>
			<point x="867" y="1183"/>
			<point x="889" y="1154"/>
		</contour>
	</outline>
	<anchor name="top" x="400" y="1307"/>
</glyph>
<glyph name="isuperior" format="2">
	<advance width="471"/>
	<outline>
		<contour>
			<point x="164" y="1233" type="curve" smooth="yes"/>
			<point x="113" y="1076"/>
			<point x="80" y="978"/>
			<point x="80" y="904" type="curve" smooth="yes"/>
			<point x="80" y="838"/>
			<point x="120" y="795"/>
			<point x="186" y="795" type="curve" smooth="yes"/>
			<point x="287" y="795"/>
			<point x="412" y="905"/>
			<point x="412" y="944" type="curve" smooth="yes"/>
			<point x="412" y="959"/>
			<point x="399" y="970"/>
			<point x="386" y="970" type="curve" smooth="yes"/>
			<point x="378" y="970"/>
			<point x="368" y="962"/>
			<point x="345" y="941" type="curve" smooth="yes"/>
			<point x="292" y="893"/>
			<point x="240" y="864"/>
			<point x="202" y="864" type="curve" smooth="yes"/>
			<point x="171" y="864"/>
			<point x="155" y="879"/>
			<point x="155" y="915" type="curve" smooth="yes"/>
			<point x="155" y="966"/>
			<point x="171" y="1031"/>
			<point x="230" y="1214" type="curve" smooth="yes"/>
			<point x="294" y="1413"/>
			<point x="323" y="1504"/>
			<point x="323" y="1527" type="curve" smooth="yes"/>
			<point x="323" y="1546"/>
			<point x="311" y="1558"/>
			<point x="289" y="1558" type="curve" smooth="yes"/>
			<point x="271" y="1558"/>
			<point x="257" y="1549"/>
			<point x="247" y="1512" type="curve" smooth="yes"/>
			<point x="223" y="1423"/>
			<point x="201" y="1346"/>
		</contour>
		<contour>
			<point x="348" y="1736" type="curve" smooth="yes"/>
			<point x="390" y="1736"/>
			<point x="431" y="1774"/>
			<point x="431" y="1818" type="curve" smooth="yes"/>
			<point x="431" y="1849"/>
			<point x="407" y="1873"/>
			<point x="374" y="1873" type="curve" smooth="yes"/>
			<point x="332" y="1873"/>
			<point x="296" y="1836"/>
			<point x="296" y="1791" type="curve" smooth="yes"/>
			<point x="296" y="1756"/>
			<point x="320" y="1736"/>
		</contour>
	</outline>
</glyph>
<glyph name="jdotless.fina" format="2">
	<advance width="558"/>
	<outline>
		<contour>
			<point x="274" y="894" type="curve" smooth="yes"/>
			<point x="28" y="-130" type="line" smooth="yes"/>
			<point x="-58" y="-488"/>
			<point x="-144" y="-616"/>
			<point x="-257" y="-616" type="curve" smooth="yes"/>
			<point x="-298" y="-616"/>
			<point x="-330" y="-605"/>
			<point x="-363" y="-582" type="curve" smooth="yes"/>
			<point x="-382" y="-568"/>
			<point x="-390" y="-565"/>
			<point x="-402" y="-565" type="curve" smooth="yes"/>
			<point x="-415" y="-565"/>
			<point x="-431" y="-580"/>
			<point x="-431" y="-597" type="curve" smooth="yes"/>
			<point x="-431" y="-610"/>
			<point x="-426" y="-621"/>
			<point x="-408" y="-637" type="curve" smooth="yes"/>
			<point x="-377" y="-665"/>
			<point x="-319" y="-690"/>
			<point x="-251" y="-690" type="curve" smooth="yes"/>
			<point x="-106" y="-690"/>
			<point x="0" y="-565"/>
			<point x="97" y="-162" type="curve" smooth="yes"/>
			<point x="335" y="831" type="line" smooth="yes"/>
			<point x="341" y="857"/>
			<point x="348" y="889"/>
			<point x="348" y="901" type="curve" smooth="yes"/>
			<point x="348" y="929"/>
			<point x="335" y="935"/>
			<point x="314" y="935" type="curve" smooth="yes"/>
			<point x="294" y="935"/>
			<point x="281" y="922"/>
		</contour>
	</outline>
	<anchor name="bottom" x="-257" y="-690"/>
	<anchor name="top" x="320" y="920"/>
</glyph>
<glyph name="joint.Eh" format="2">
	<advance width="570"/>
	<outline>
		<contour>
			<point x="-77" y="-12" type="curve" smooth="yes"/>
			<point x="241" y="-12"/>
			<point x="568" y="301"/>
			<point x="887" y="856" type="curve" smooth="yes"/>
			<point x="902" y="882"/>
			<point x="909" y="894"/>
			<point x="909" y="906" type="curve" smooth="yes"/>
			<point x="909" y="922"/>
			<point x="895" y="931"/>
			<point x="883" y="931" type="curve" smooth="yes"/>
			<point x="867" y="931"/>
			<point x="860" y="922"/>
			<point x="843" y="893" type="curve" smooth="yes"/>
			<point x="526" y="355"/>
			<point x="221" y="63"/>
			<point x="-56" y="63" type="curve" smooth="yes"/>
			<point x="-81" y="63"/>
			<point x="-100" y="44"/>
			<point x="-100" y="18" type="curve" smooth="yes"/>
			<point x="-100" y="0"/>
			<point x="-89" y="-12"/>
		</contour>
	</outline>
</glyph>
<glyph name="joint.Gh" format="2">
	<advance width="394"/>
	<outline>
		<contour>
			<point x="-171" y="-45" type="curve" smooth="yes"/>
			<point x="135" y="170"/>
			<point x="438" y="475"/>
			<point x="704" y="848" type="curve" smooth="yes"/>
			<point x="720" y="870"/>
			<point x="721" y="883"/>
			<point x="721" y="893" type="curve" smooth="yes"/>
			<point x="721" y="908"/>
			<point x="712" y="915"/>
			<point x="702" y="915" type="curve" smooth="yes"/>
			<point x="682" y="915"/>
			<point x="674" y="909"/>
			<point x="655" y="882" type="curve" smooth="yes"/>
			<point x="398" y="524"/>
			<point x="128" y="247"/>
			<point x="-185" y="22" type="curve" smooth="yes"/>
			<point x="-206" y="7"/>
			<point x="-231" y="-6"/>
			<point x="-231" y="-32" type="curve" smooth="yes"/>
			<point x="-231" y="-52"/>
			<point x="-228" y="-72"/>
			<point x="-221" y="-71" type="curve" smooth="yes"/>
			<point x="-209" y="-71"/>
			<point x="-193" y="-60"/>
		</contour>
	</outline>
</glyph>
<glyph name="joint.Mschwa" format="2">
	<advance width="413"/>
	<outline>
		<contour>
			<point x="925" y="935" type="curve" smooth="yes"/>
			<point x="731" y="935"/>
			<point x="522" y="674"/>
			<point x="347" y="430" type="curve" smooth="yes"/>
			<point x="194" y="217"/>
			<point x="55" y="63"/>
			<point x="-50" y="63" type="curve" smooth="yes"/>
			<point x="-75" y="63"/>
			<point x="-94" y="44"/>
			<point x="-94" y="18" type="curve" smooth="yes"/>
			<point x="-94" y="0"/>
			<point x="-83" y="-12"/>
			<point x="-71" y="-12" type="curve" smooth="yes"/>
			<point x="81" y="-12"/>
			<point x="245" y="172"/>
			<point x="412" y="404" type="curve" smooth="yes"/>
			<point x="576" y="632"/>
			<point x="753" y="857"/>
			<point x="910" y="857" type="curve" smooth="yes"/>
			<point x="939" y="857"/>
			<point x="952" y="880"/>
			<point x="952" y="900" type="curve" smooth="yes"/>
			<point x="952" y="913"/>
			<point x="946" y="935"/>
		</contour>
	</outline>
</glyph>
<glyph name="joint.bh" format="2">
	<advance width="43"/>
	<outline>
		<contour>
			<point x="-478" y="841" type="curve" smooth="yes"/>
			<point x="-478" y="732"/>
			<point x="-262" y="591"/>
			<point x="6" y="591" type="curve" smooth="yes"/>
			<point x="159" y="591"/>
			<point x="243" y="664"/>
			<point x="303" y="758" type="curve" smooth="yes"/>
			<point x="335" y="809"/>
			<point x="353" y="837"/>
			<point x="353" y="846" type="curve" smooth="yes"/>
			<point x="353" y="863"/>
			<point x="340" y="874"/>
			<point x="326" y="874" type="curve" smooth="yes"/>
			<point x="319" y="874"/>
			<point x="312" y="871"/>
			<point x="305" y="859" type="curve" smooth="yes"/>
			<point x="223" y="704"/>
			<point x="151" y="656"/>
			<point x="-5" y="656" type="curve" smooth="yes"/>
			<point x="-189" y="656"/>
			<point x="-406" y="757"/>
			<point x="-406" y="844" type="curve" smooth="yes"/>
			<point x="-406" y="862"/>
			<point x="-393" y="870"/>
			<point x="-372" y="870" type="curve" smooth="yes"/>
			<point x="-357" y="870"/>
			<point x="-347" y="889"/>
			<point x="-347" y="904" type="curve" smooth="yes"/>
			<point x="-347" y="919"/>
			<point x="-362" y="935"/>
			<point x="-375" y="935" type="curve" smooth="yes"/>
			<point x="-434" y="935"/>
			<point x="-478" y="897"/>
		</contour>
	</outline>
</glyph>
<glyph name="joint.bz" format="2">
	<advance width="24"/>
	<outline>
		<contour>
			<point x="-535" y="833" type="curve" smooth="yes"/>
			<point x="-523" y="833"/>
			<point x="-504" y="837"/>
			<point x="-472" y="846" type="curve" smooth="yes"/>
			<point x="-444" y="853"/>
			<point x="-425" y="857"/>
			<point x="-396" y="857" type="curve" smooth="yes"/>
			<point x="-273" y="857"/>
			<point x="-31" y="758"/>
			<point x="110" y="758" type="curve" smooth="yes"/>
			<point x="165" y="758"/>
			<point x="198" y="791"/>
			<point x="228" y="864" type="curve" smooth="yes"/>
			<point x="235" y="881"/>
			<point x="241" y="896"/>
			<point x="241" y="906" type="curve" smooth="yes"/>
			<point x="241" y="925"/>
			<point x="231" y="935"/>
			<point x="217" y="935" type="curve" smooth="yes"/>
			<point x="199" y="935"/>
			<point x="184" y="929"/>
			<point x="179" y="915" type="curve" smooth="yes"/>
			<point x="151" y="837"/>
			<point x="136" y="823"/>
			<point x="98" y="823" type="curve" smooth="yes"/>
			<point x="-31" y="823"/>
			<point x="-233" y="914"/>
			<point x="-384" y="914" type="curve" smooth="yes"/>
			<point x="-500" y="914"/>
			<point x="-579" y="893"/>
			<point x="-578" y="863" type="curve" smooth="yes"/>
			<point x="-578" y="849"/>
			<point x="-565" y="833"/>
		</contour>
	</outline>
</glyph>
<glyph name="joint.ea" format="2">
	<advance width="518"/>
	<outline>
		<contour>
			<point x="-70" y="-12" type="curve" smooth="yes"/>
			<point x="234" y="-12"/>
			<point x="484" y="303"/>
			<point x="655" y="543" type="curve" smooth="yes"/>
			<point x="709" y="619"/>
			<point x="759" y="687"/>
			<point x="804" y="736" type="curve" smooth="yes"/>
			<point x="824" y="758"/>
			<point x="830" y="765"/>
			<point x="830" y="778" type="curve" smooth="yes"/>
			<point x="830" y="786"/>
			<point x="824" y="800"/>
			<point x="804" y="800" type="curve" smooth="yes"/>
			<point x="788" y="800"/>
			<point x="772" y="792"/>
			<point x="754" y="772" type="curve" smooth="yes"/>
			<point x="707" y="720"/>
			<point x="656" y="652"/>
			<point x="601" y="578" type="curve" smooth="yes"/>
			<point x="430" y="348"/>
			<point x="196" y="63"/>
			<point x="-49" y="63" type="curve" smooth="yes"/>
			<point x="-74" y="63"/>
			<point x="-93" y="44"/>
			<point x="-93" y="18" type="curve" smooth="yes"/>
			<point x="-93" y="0"/>
			<point x="-82" y="-12"/>
		</contour>
	</outline>
</glyph>
<glyph name="joint.eh" format="2">
	<advance width="530"/>
	<outline>
		<contour>
			<point x="-77" y="-12" type="curve" smooth="yes"/>
			<point x="228" y="-12"/>
			<point x="528" y="301"/>
			<point x="847" y="856" type="curve" smooth="yes"/>
			<point x="862" y="882"/>
			<point x="869" y="894"/>
			<point x="869" y="906" type="curve" smooth="yes"/>
			<point x="869" y="922"/>
			<point x="855" y="931"/>
			<point x="843" y="931" type="curve" smooth="yes"/>
			<point x="827" y="931"/>
			<point x="820" y="922"/>
			<point x="803" y="893" type="curve" smooth="yes"/>
			<point x="486" y="355"/>
			<point x="209" y="63"/>
			<point x="-56" y="63" type="curve" smooth="yes"/>
			<point x="-81" y="63"/>
			<point x="-100" y="44"/>
			<point x="-100" y="18" type="curve" smooth="yes"/>
			<point x="-100" y="0"/>
			<point x="-89" y="-12"/>
		</contour>
	</outline>
</glyph>
<glyph name="joint.fa" format="2">
	<advance width="636"/>
	<outline>
		<contour>
			<point x="98" y="203" type="curve" smooth="yes"/>
			<point x="433" y="251"/>
			<point x="657" y="431"/>
			<point x="933" y="739" type="curve" smooth="yes"/>
			<point x="948" y="755"/>
			<point x="963" y="778"/>
			<point x="963" y="795" type="curve" smooth="yes"/>
			<point x="963" y="806"/>
			<point x="956" y="816"/>
			<point x="944" y="816" type="curve" smooth="yes"/>
			<point x="926" y="816"/>
			<point x="909" y="814"/>
			<point x="882" y="781" type="curve" smooth="yes"/>
			<point x="604" y="439"/>
			<point x="355" y="311"/>
			<point x="107" y="277" type="curve" smooth="yes"/>
			<point x="72" y="272"/>
			<point x="44" y="260"/>
			<point x="44" y="233" type="curve" smooth="yes"/>
			<point x="44" y="213"/>
			<point x="55" y="202"/>
			<point x="82" y="202" type="curve" smooth="yes"/>
			<point x="87" y="202"/>
			<point x="92" y="202"/>
		</contour>
	</outline>
</glyph>
<glyph name="joint.gh" format="2">
	<advance width="394"/>
	<outline>
		<contour>
			<point x="-171" y="-45" type="curve" smooth="yes"/>
			<point x="139" y="172"/>
			<point x="445" y="481"/>
			<point x="714" y="858" type="curve" smooth="yes"/>
			<point x="732" y="883"/>
			<point x="731" y="901"/>
			<point x="731" y="913" type="curve" smooth="yes"/>
			<point x="731" y="928"/>
			<point x="722" y="935"/>
			<point x="712" y="935" type="curve" smooth="yes"/>
			<point x="691" y="935"/>
			<point x="685" y="925"/>
			<point x="663" y="894" type="curve" smooth="yes"/>
			<point x="403" y="532"/>
			<point x="132" y="249"/>
			<point x="-185" y="22" type="curve" smooth="yes"/>
			<point x="-206" y="7"/>
			<point x="-231" y="-6"/>
			<point x="-231" y="-32" type="curve" smooth="yes"/>
			<point x="-231" y="-52"/>
			<point x="-228" y="-72"/>
			<point x="-221" y="-71" type="curve" smooth="yes"/>
			<point x="-209" y="-71"/>
			<point x="-193" y="-60"/>
		</contour>
	</outline>
</glyph>
<glyph name="joint.gn" format="2">
	<advance width="394"/>
	<outline>
		<contour>
			<point x="-170" y="-47" type="curve" smooth="yes"/>
			<point x="163" y="169"/>
			<point x="458" y="486"/>
			<point x="706" y="863" type="curve" smooth="yes"/>
			<point x="723" y="889"/>
			<point x="731" y="900"/>
			<point x="731" y="913" type="curve" smooth="yes"/>
			<point x="731" y="928"/>
			<point x="721" y="935"/>
			<point x="708" y="935" type="curve" smooth="yes"/>
			<point x="692" y="935"/>
			<point x="682" y="932"/>
			<point x="668" y="911" type="curve" smooth="yes"/>
			<point x="431" y="549"/>
			<point x="113" y="208"/>
			<point x="-202" y="10" type="curve" smooth="yes"/>
			<point x="-219" y="-1"/>
			<point x="-227" y="-16"/>
			<point x="-227" y="-38" type="curve" smooth="yes"/>
			<point x="-227" y="-53"/>
			<point x="-219" y="-62"/>
			<point x="-206" y="-62" type="curve" smooth="yes"/>
			<point x="-195" y="-62"/>
			<point x="-186" y="-57"/>
		</contour>
	</outline>
</glyph>
<glyph name="joint.qa" format="2">
	<advance width="280"/>
	<outline>
		<contour>
			<point x="-486" y="-690" type="curve" smooth="yes"/>
			<point x="-466" y="-690"/>
			<point x="-442" y="-660"/>
			<point x="-439" y="-646" type="curve" smooth="yes"/>
			<point x="-421" y="-561"/>
			<point x="-408" y="-453"/>
			<point x="-251" y="-256" type="curve" smooth="yes"/>
			<point x="-68" y="-26"/>
			<point x="375" y="510"/>
			<point x="503" y="668" type="curve" smooth="yes"/>
			<point x="602" y="790"/>
			<point x="612" y="793"/>
			<point x="612" y="806" type="curve" smooth="yes"/>
			<point x="612" y="821"/>
			<point x="603" y="827"/>
			<point x="588" y="827" type="curve" smooth="yes"/>
			<point x="576" y="827"/>
			<point x="551" y="814"/>
			<point x="518" y="775" type="curve" smooth="yes"/>
			<point x="328" y="551"/>
			<point x="-94" y="39"/>
			<point x="-291" y="-196" type="curve" smooth="yes"/>
			<point x="-398" y="-324"/>
			<point x="-466" y="-438"/>
			<point x="-490" y="-492" type="curve" smooth="yes"/>
			<point x="-516" y="-551"/>
			<point x="-526" y="-591"/>
			<point x="-526" y="-632" type="curve" smooth="yes"/>
			<point x="-526" y="-670"/>
			<point x="-511" y="-690"/>
		</contour>
	</outline>
</glyph>
<glyph name="joint.schwaschwa" format="2">
	<advance width="70"/>
	<outline>
		<contour>
			<point x="-168" y="579" type="curve" smooth="yes"/>
			<point x="-116" y="604"/>
			<point x="83" y="696"/>
			<point x="230" y="760" type="curve" smooth="yes"/>
			<point x="404" y="836"/>
			<point x="491" y="857"/>
			<point x="558" y="857" type="curve" smooth="yes"/>
			<point x="587" y="857"/>
			<point x="601" y="884"/>
			<point x="601" y="902" type="curve" smooth="yes"/>
			<point x="601" y="921"/>
			<point x="589" y="935"/>
			<point x="574" y="935" type="curve" smooth="yes"/>
			<point x="497" y="935"/>
			<point x="419" y="914"/>
			<point x="218" y="825" type="curve" smooth="yes"/>
			<point x="75" y="762"/>
			<point x="-122" y="669"/>
			<point x="-171" y="646" type="curve" smooth="yes"/>
			<point x="-193" y="636"/>
			<point x="-211" y="625"/>
			<point x="-211" y="599" type="curve" smooth="yes"/>
			<point x="-211" y="586"/>
			<point x="-203" y="574"/>
			<point x="-187" y="574" type="curve" smooth="yes"/>
			<point x="-182" y="574"/>
			<point x="-176" y="575"/>
		</contour>
	</outline>
</glyph>
<glyph name="joint.schwav" format="2">
	<advance width="94"/>
	<outline>
		<contour>
			<point x="-165" y="558" type="curve" smooth="yes"/>
			<point x="-3" y="634"/>
			<point x="155" y="746"/>
			<point x="279" y="868" type="curve" smooth="yes"/>
			<point x="298" y="887"/>
			<point x="303" y="900"/>
			<point x="303" y="913" type="curve" smooth="yes"/>
			<point x="303" y="923"/>
			<point x="291" y="935"/>
			<point x="279" y="935" type="curve" smooth="yes"/>
			<point x="266" y="935"/>
			<point x="258" y="933"/>
			<point x="242" y="916" type="curve" smooth="yes"/>
			<point x="126" y="798"/>
			<point x="-37" y="681"/>
			<point x="-196" y="613" type="curve" smooth="yes"/>
			<point x="-221" y="602"/>
			<point x="-231" y="591"/>
			<point x="-231" y="573" type="curve" smooth="yes"/>
			<point x="-231" y="560"/>
			<point x="-220" y="546"/>
			<point x="-206" y="546" type="curve" smooth="yes"/>
			<point x="-197" y="546"/>
			<point x="-182" y="550"/>
		</contour>
	</outline>
</glyph>
<glyph name="joint.sh" format="2">
	<advance width="250"/>
	<outline>
		<contour>
			<point x="-575" y="-29" type="curve" smooth="yes"/>
			<point x="9" y="142"/>
			<point x="335" y="505"/>
			<point x="550" y="822" type="curve" smooth="yes"/>
			<point x="567" y="848"/>
			<point x="569" y="861"/>
			<point x="569" y="873" type="curve" smooth="yes"/>
			<point x="569" y="888"/>
			<point x="560" y="895"/>
			<point x="550" y="895" type="curve" smooth="yes"/>
			<point x="529" y="895"/>
			<point x="519" y="888"/>
			<point x="499" y="858" type="curve" smooth="yes"/>
			<point x="287" y="550"/>
			<point x="-17" y="220"/>
			<point x="-517" y="59" type="curve" smooth="yes"/>
			<point x="-622" y="25"/>
			<point x="-649" y="20"/>
			<point x="-649" y="-12" type="curve" smooth="yes"/>
			<point x="-649" y="-28"/>
			<point x="-638" y="-38"/>
			<point x="-623" y="-38" type="curve" smooth="yes"/>
			<point x="-612" y="-38"/>
			<point x="-590" y="-33"/>
		</contour>
	</outline>
</glyph>
<glyph name="k.medi" format="2">
	<advance width="791"/>
	<outline>
		<contour>
			<point x="336" y="1271" type="curve" smooth="yes"/>
			<point x="299" y="1125"/>
			<point x="263" y="935"/>
			<point x="241" y="805" type="curve"/>
			<point x="53" y="83" type="line" smooth="yes"/>
			<point x="43" y="46"/>
			<point x="40" y="34"/>
			<point x="40" y="25" type="curve" smooth="yes"/>
			<point x="40" y="0"/>
			<point x="61" y="-12"/>
			<point x="80" y="-12" type="curve" smooth="yes"/>
			<point x="102" y="-12"/>
			<point x="120" y="1"/>
			<point x="130" y="43" type="curve" smooth="yes"/>
			<point x="167" y="194"/>
			<point x="192" y="264"/>
			<point x="253" y="390" type="curve" smooth="yes"/>
			<point x="380" y="653"/>
			<point x="581" y="860"/>
			<point x="692" y="860" type="curve" smooth="yes"/>
			<point x="748" y="860"/>
			<point x="781" y="829"/>
			<point x="781" y="770" type="curve" smooth="yes"/>
			<point x="781" y="663"/>
			<point x="669" y="532"/>
			<point x="415" y="474" type="curve" smooth="yes"/>
			<point x="383" y="467"/>
			<point x="369" y="452"/>
			<point x="369" y="430" type="curve" smooth="yes"/>
			<point x="369" y="420"/>
			<point x="379" y="394"/>
			<point x="393" y="360" type="curve" smooth="yes"/>
			<point x="508" y="85"/>
			<point x="609" y="-12"/>
			<point x="715" y="-12" type="curve" smooth="yes"/>
			<point x="748" y="-12"/>
			<point x="768" y="6"/>
			<point x="768" y="34" type="curve" smooth="yes"/>
			<point x="768" y="50"/>
			<point x="760" y="63"/>
			<point x="731" y="63" type="curve" smooth="yes"/>
			<point x="648" y="63"/>
			<point x="562" y="138"/>
			<point x="445" y="421" type="curve"/>
			<point x="740" y="486"/>
			<point x="859" y="649"/>
			<point x="859" y="789" type="curve" smooth="yes"/>
			<point x="859" y="890"/>
			<point x="799" y="935"/>
			<point x="718" y="935" type="curve" smooth="yes"/>
			<point x="558" y="935"/>
			<point x="364" y="741"/>
			<point x="202" y="419" type="curve"/>
			<point x="210" y="416" type="line"/>
			<point x="305" y="826" type="line"/>
			<point x="543" y="1181"/>
			<point x="631" y="1410"/>
			<point x="631" y="1526" type="curve" smooth="yes"/>
			<point x="631" y="1598"/>
			<point x="598" y="1625"/>
			<point x="557" y="1625" type="curve" smooth="yes"/>
			<point x="487" y="1625"/>
			<point x="412" y="1570"/>
		</contour>
		<contour>
			<point x="325" y="949" type="curve"/>
			<point x="336" y="950" type="line"/>
			<point x="373" y="1120"/>
			<point x="396" y="1224"/>
			<point x="431" y="1348" type="curve" smooth="yes"/>
			<point x="476" y="1509"/>
			<point x="509" y="1550"/>
			<point x="534" y="1550" type="curve" smooth="yes"/>
			<point x="550" y="1550"/>
			<point x="556" y="1538"/>
			<point x="556" y="1509" type="curve" smooth="yes"/>
			<point x="556" y="1436"/>
			<point x="487" y="1227"/>
		</contour>
	</outline>
	<anchor name="bottom" x="366" y="0"/>
	<anchor name="top" x="545" y="1600"/>
</glyph>
<glyph name="manicule_regular-right" format="2">
	<advance width="5339"/>
	<outline>
		<contour>
			<point x="2773" y="1227" type="curve"/>
			<point x="2197" y="1336" type="line" smooth="yes"/>
			<point x="2187" y="1338"/>
			<point x="2176" y="1339"/>
			<point x="2166" y="1339" type="curve" smooth="yes"/>
			<point x="2137" y="1339"/>
			<point x="2111" y="1328"/>
			<point x="2111" y="1282" type="curve" smooth="yes"/>
			<point x="2111" y="1229"/>
			<point x="2139" y="1214"/>
			<point x="2154" y="1211" type="curve" smooth="yes"/>
			<point x="2773" y="1089" type="line"/>
			<point x="2839" y="1114"/>
			<point x="2909" y="1131"/>
			<point x="2982" y="1131" type="curve" smooth="yes"/>
			<point x="3092" y="1131"/>
			<point x="3244" y="1103"/>
			<point x="3315" y="1075" type="curve" smooth="yes"/>
			<point x="3370" y="1053"/>
			<point x="3409" y="1044"/>
			<point x="3465" y="1042" type="curve" smooth="yes"/>
			<point x="3565" y="1042"/>
			<point x="3691" y="1115"/>
			<point x="3778" y="1115" type="curve" smooth="yes"/>
			<point x="3822" y="1115"/>
			<point x="3859" y="1095"/>
			<point x="3859" y="1023" type="curve" smooth="yes"/>
			<point x="3859" y="859"/>
			<point x="3622" y="760"/>
			<point x="3314" y="760" type="curve" smooth="yes"/>
			<point x="3192" y="760"/>
			<point x="3017" y="789"/>
			<point x="2917" y="826" type="curve" smooth="yes"/>
			<point x="2917" y="826"/>
			<point x="2515" y="739"/>
			<point x="2408" y="739" type="curve" smooth="yes"/>
			<point x="2357" y="739"/>
			<point x="2262" y="740"/>
			<point x="2230" y="747" type="curve" smooth="yes"/>
			<point x="2230" y="747"/>
			<point x="2201" y="727"/>
			<point x="2137" y="685" type="curve" smooth="yes"/>
			<point x="1854" y="499"/>
			<point x="1647" y="426"/>
			<point x="1350" y="426" type="curve" smooth="yes"/>
			<point x="1145" y="426"/>
			<point x="1015" y="456"/>
			<point x="751" y="619" type="curve"/>
			<point x="190" y="542" type="line" smooth="yes"/>
			<point x="175" y="540"/>
			<point x="147" y="515"/>
			<point x="150" y="476" type="curve" smooth="yes"/>
			<point x="154" y="430"/>
			<point x="166" y="407"/>
			<point x="195" y="407" type="curve" smooth="yes"/>
			<point x="198" y="407"/>
			<point x="201" y="407"/>
			<point x="738" y="480" type="curve"/>
			<point x="1013" y="318"/>
			<point x="1140" y="289"/>
			<point x="1350" y="289" type="curve" smooth="yes"/>
			<point x="1660" y="289"/>
			<point x="1889" y="387"/>
			<point x="2041" y="476" type="curve"/>
			<point x="2165" y="460"/>
			<point x="2452" y="452"/>
			<point x="2452" y="452" type="curve"/>
			<point x="2476" y="365"/>
			<point x="2529" y="258"/>
			<point x="2586" y="189" type="curve"/>
			<point x="2561" y="147"/>
			<point x="2544" y="99"/>
			<point x="2533" y="67" type="curve"/>
			<point x="2374" y="22"/>
			<point x="2260" y="-89"/>
			<point x="2260" y="-210" type="curve" smooth="yes"/>
			<point x="2260" y="-309"/>
			<point x="2317" y="-375"/>
			<point x="2408" y="-375" type="curve" smooth="yes"/>
			<point x="2460" y="-375"/>
			<point x="2488" y="-335"/>
			<point x="2543" y="-326" type="curve"/>
			<point x="2630" y="-373"/>
			<point x="2683" y="-396"/>
			<point x="2761" y="-396" type="curve" smooth="yes"/>
			<point x="2785" y="-396"/>
			<point x="2796" y="-396"/>
			<point x="2816" y="-394" type="curve"/>
			<point x="2800" y="-444"/>
			<point x="2797" y="-464"/>
			<point x="2797" y="-513" type="curve" smooth="yes"/>
			<point x="2797" y="-652"/>
			<point x="2908" y="-716"/>
			<point x="3002" y="-716" type="curve" smooth="yes"/>
			<point x="3107" y="-716"/>
			<point x="3187" y="-617"/>
			<point x="3214" y="-548" type="curve"/>
			<point x="3271" y="-545"/>
			<point x="3349" y="-515"/>
			<point x="3439" y="-441" type="curve" smooth="yes"/>
			<point x="3563" y="-340"/>
			<point x="3656" y="-157"/>
			<point x="3656" y="6" type="curve" smooth="yes"/>
			<point x="3656" y="27"/>
			<point x="3655" y="37"/>
			<point x="3654" y="46" type="curve"/>
			<point x="3703" y="169"/>
			<point x="3752" y="340"/>
			<point x="3752" y="490" type="curve" smooth="yes"/>
			<point x="3752" y="563"/>
			<point x="3738" y="602"/>
			<point x="3682" y="686" type="curve"/>
			<point x="3909" y="765"/>
			<point x="4001" y="882"/>
			<point x="4006" y="998" type="curve"/>
			<point x="4438" y="998" type="line"/>
			<point x="4596" y="926"/>
			<point x="4736" y="893"/>
			<point x="4851" y="893" type="curve" smooth="yes"/>
			<point x="5062" y="893"/>
			<point x="5189" y="994"/>
			<point x="5189" y="1119" type="curve" smooth="yes"/>
			<point x="5189" y="1223"/>
			<point x="5133" y="1290"/>
			<point x="4988" y="1327" type="curve" smooth="yes"/>
			<point x="4859" y="1360"/>
			<point x="4754" y="1392"/>
			<point x="4636" y="1458" type="curve" smooth="yes"/>
			<point x="4575" y="1492"/>
			<point x="3773" y="1540"/>
			<point x="3542" y="1553" type="curve" smooth="yes"/>
			<point x="3384" y="1562"/>
			<point x="3335" y="1565"/>
			<point x="3286" y="1569" type="curve" smooth="yes"/>
			<point x="3264" y="1571"/>
			<point x="3215" y="1589"/>
			<point x="3153" y="1615" type="curve" smooth="yes"/>
			<point x="3041" y="1662"/>
			<point x="2888" y="1716"/>
			<point x="2764" y="1723" type="curve" smooth="yes"/>
			<point x="2624" y="1731"/>
			<point x="2354" y="1739"/>
			<point x="2106" y="1739" type="curve" smooth="yes"/>
			<point x="1796" y="1739"/>
			<point x="1478" y="1726"/>
			<point x="1357" y="1675" type="curve" smooth="yes"/>
			<point x="1219" y="1617"/>
			<point x="933" y="1566"/>
			<point x="864" y="1560" type="curve"/>
			<point x="657" y="1583"/>
			<point x="477" y="1627"/>
			<point x="267" y="1627" type="curve" smooth="yes"/>
			<point x="231" y="1627"/>
			<point x="223" y="1604"/>
			<point x="223" y="1572" type="curve" smooth="yes"/>
			<point x="223" y="1530"/>
			<point x="250" y="1474"/>
			<point x="267" y="1473" type="curve" smooth="yes"/>
			<point x="439" y="1458"/>
			<point x="678" y="1429"/>
			<point x="862" y="1406" type="curve"/>
			<point x="921" y="1409"/>
			<point x="1233" y="1464"/>
			<point x="1380" y="1526" type="curve" smooth="yes"/>
			<point x="1491" y="1573"/>
			<point x="1797" y="1585"/>
			<point x="2099" y="1585" type="curve" smooth="yes"/>
			<point x="2336" y="1585"/>
			<point x="2607" y="1578"/>
			<point x="2758" y="1570" type="curve" smooth="yes"/>
			<point x="2867" y="1564"/>
			<point x="3008" y="1513"/>
			<point x="3119" y="1469" type="curve" smooth="yes"/>
			<point x="3192" y="1440"/>
			<point x="3253" y="1417"/>
			<point x="3282" y="1415" type="curve" smooth="yes"/>
			<point x="3294" y="1414"/>
			<point x="3338" y="1412"/>
			<point x="3524" y="1404" type="curve" smooth="yes"/>
			<point x="3714" y="1396"/>
			<point x="4500" y="1358"/>
			<point x="4611" y="1301" type="curve" smooth="yes"/>
			<point x="4781" y="1214"/>
			<point x="4895" y="1175"/>
			<point x="4974" y="1163" type="curve" smooth="yes"/>
			<point x="5019" y="1156"/>
			<point x="5054" y="1149"/>
			<point x="5054" y="1102" type="curve" smooth="yes"/>
			<point x="5054" y="1019"/>
			<point x="4989" y="1005"/>
			<point x="4862" y="1005" type="curve" smooth="yes"/>
			<point x="4679" y="1005"/>
			<point x="4618" y="1039"/>
			<point x="4451" y="1132" type="curve"/>
			<point x="4000" y="1127" type="line"/>
			<point x="3972" y="1237"/>
			<point x="3901" y="1250"/>
			<point x="3813" y="1250" type="curve" smooth="yes"/>
			<point x="3752" y="1250"/>
			<point x="3683" y="1233"/>
			<point x="3617" y="1214" type="curve" smooth="yes"/>
			<point x="3547" y="1194"/>
			<point x="3491" y="1182"/>
			<point x="3457" y="1182" type="curve" smooth="yes"/>
			<point x="3434" y="1182"/>
			<point x="3405" y="1187"/>
			<point x="3337" y="1206" type="curve" smooth="yes"/>
			<point x="3268" y="1225"/>
			<point x="3104" y="1266"/>
			<point x="2982" y="1266" type="curve" smooth="yes"/>
			<point x="2906" y="1266"/>
			<point x="2839" y="1250"/>
		</contour>
		<contour>
			<point x="3342" y="-89" type="curve" smooth="yes"/>
			<point x="3358" y="-88"/>
			<point x="3357" y="-60"/>
			<point x="3353" y="-30" type="curve" smooth="yes"/>
			<point x="3351" y="-14"/>
			<point x="3346" y="3"/>
			<point x="3312" y="6" type="curve" smooth="yes"/>
			<point x="3304" y="7"/>
			<point x="3297" y="7"/>
			<point x="3291" y="7" type="curve" smooth="yes"/>
			<point x="3270" y="7"/>
			<point x="3254" y="4"/>
			<point x="3234" y="-4" type="curve"/>
			<point x="3234" y="17" type="line" smooth="yes"/>
			<point x="3234" y="85"/>
			<point x="3236" y="145"/>
			<point x="3290" y="272" type="curve"/>
			<point x="3358" y="295" type="line" smooth="yes"/>
			<point x="3378" y="302"/>
			<point x="3417" y="318"/>
			<point x="3421" y="337" type="curve" smooth="yes"/>
			<point x="3425" y="357"/>
			<point x="3414" y="403"/>
			<point x="3396" y="403" type="curve" smooth="yes"/>
			<point x="3371" y="403"/>
			<point x="3316" y="390"/>
			<point x="3296" y="380" type="curve"/>
			<point x="3235" y="436"/>
			<point x="3167" y="499"/>
			<point x="3119" y="651" type="curve"/>
			<point x="3200" y="631"/>
			<point x="3225" y="626"/>
			<point x="3307" y="626" type="curve" smooth="yes"/>
			<point x="3402" y="626"/>
			<point x="3451" y="640"/>
			<point x="3545" y="668" type="curve"/>
			<point x="3595" y="594"/>
			<point x="3609" y="550"/>
			<point x="3609" y="489" type="curve" smooth="yes"/>
			<point x="3609" y="343"/>
			<point x="3560" y="174"/>
			<point x="3508" y="54" type="curve"/>
			<point x="3510" y="45"/>
			<point x="3510" y="33"/>
			<point x="3510" y="20" type="curve" smooth="yes"/>
			<point x="3510" y="-79"/>
			<point x="3475" y="-283"/>
			<point x="3317" y="-395" type="curve" smooth="yes"/>
			<point x="3237" y="-452"/>
			<point x="3123" y="-448"/>
			<point x="3121" y="-461" type="curve" smooth="yes"/>
			<point x="3114" y="-513"/>
			<point x="3073" y="-587"/>
			<point x="2969" y="-587" type="curve" smooth="yes"/>
			<point x="2910" y="-587"/>
			<point x="2894" y="-515"/>
			<point x="2896" y="-480" type="curve" smooth="yes"/>
			<point x="2896" y="-309"/>
			<point x="3087" y="-109"/>
		</contour>
		<contour>
			<point x="3188" y="334" type="curve" smooth="yes"/>
			<point x="3190" y="332"/>
			<point x="3193" y="331"/>
			<point x="3196" y="330" type="curve"/>
			<point x="3140" y="199"/>
			<point x="3123" y="77"/>
			<point x="3123" y="2" type="curve" smooth="yes"/>
			<point x="3123" y="-13"/>
			<point x="3124" y="-26"/>
			<point x="3125" y="-38" type="curve"/>
			<point x="2997" y="-88"/>
			<point x="2901" y="-195"/>
			<point x="2848" y="-307" type="curve"/>
			<point x="2809" y="-310"/>
			<point x="2803" y="-310"/>
			<point x="2766" y="-310" type="curve" smooth="yes"/>
			<point x="2724" y="-310"/>
			<point x="2694" y="-305"/>
			<point x="2639" y="-276" type="curve"/>
			<point x="2675" y="-266"/>
			<point x="2679" y="-272"/>
			<point x="2738" y="-268" type="curve" smooth="yes"/>
			<point x="2753" y="-267"/>
			<point x="2764" y="-242"/>
			<point x="2764" y="-218" type="curve" smooth="yes"/>
			<point x="2764" y="-195"/>
			<point x="2734" y="-179"/>
			<point x="2692" y="-179" type="curve" smooth="yes"/>
			<point x="2628" y="-179"/>
			<point x="2564" y="-188"/>
			<point x="2468" y="-256" type="curve" smooth="yes"/>
			<point x="2446" y="-271"/>
			<point x="2419" y="-281"/>
			<point x="2396" y="-281" type="curve" smooth="yes"/>
			<point x="2366" y="-281"/>
			<point x="2342" y="-266"/>
			<point x="2342" y="-228" type="curve" smooth="yes"/>
			<point x="2342" y="-123"/>
			<point x="2499" y="-15"/>
			<point x="2681" y="-15" type="curve" smooth="yes"/>
			<point x="2786" y="-15"/>
			<point x="2848" y="-21"/>
			<point x="2927" y="-52" type="curve" smooth="yes"/>
			<point x="2933" y="-54"/>
			<point x="2939" y="-56"/>
			<point x="2945" y="-56" type="curve" smooth="yes"/>
			<point x="2970" y="-56"/>
			<point x="2989" y="-35"/>
			<point x="2991" y="-4" type="curve" smooth="yes"/>
			<point x="2993" y="24"/>
			<point x="2978" y="35"/>
			<point x="2967" y="39" type="curve" smooth="yes"/>
			<point x="2904" y="67"/>
			<point x="2860" y="78"/>
			<point x="2799" y="85" type="curve"/>
			<point x="2829" y="191"/>
			<point x="2888" y="196"/>
			<point x="2958" y="196" type="curve" smooth="yes"/>
			<point x="2974" y="196"/>
			<point x="2988" y="210"/>
			<point x="2988" y="226" type="curve" smooth="yes"/>
			<point x="2988" y="258"/>
			<point x="2976" y="271"/>
			<point x="2942" y="279" type="curve" smooth="yes"/>
			<point x="2928" y="282"/>
			<point x="2916" y="284"/>
			<point x="2903" y="284" type="curve" smooth="yes"/>
			<point x="2887" y="284"/>
			<point x="2872" y="281"/>
			<point x="2852" y="273" type="curve"/>
			<point x="2817" y="340"/>
			<point x="2811" y="394"/>
			<point x="2811" y="478" type="curve" smooth="yes"/>
			<point x="2811" y="509"/>
			<point x="2807" y="547"/>
			<point x="2811" y="575" type="curve"/>
			<point x="2844" y="604"/>
			<point x="2863" y="626"/>
			<point x="2894" y="694" type="curve"/>
			<point x="2916" y="686"/>
			<point x="2944" y="681"/>
			<point x="2967" y="674" type="curve"/>
			<point x="3000" y="582"/>
			<point x="3102" y="406"/>
		</contour>
		<contour>
			<point x="2689" y="512" type="curve"/>
			<point x="2688" y="479" type="line"/>
			<point x="2688" y="389"/>
			<point x="2709" y="275"/>
			<point x="2749" y="206" type="curve"/>
			<point x="2723" y="181"/>
			<point x="2701" y="144"/>
			<point x="2687" y="88" type="curve"/>
			<point x="2682" y="89"/>
			<point x="2677" y="89"/>
			<point x="2673" y="89" type="curve" smooth="yes"/>
			<point x="2662" y="89"/>
			<point x="2652" y="87"/>
			<point x="2641" y="82" type="curve" smooth="yes"/>
			<point x="2641" y="82"/>
			<point x="2642" y="151"/>
			<point x="2701" y="206" type="curve"/>
			<point x="2613" y="312"/>
			<point x="2581" y="374"/>
			<point x="2558" y="459" type="curve"/>
			<point x="2622" y="470"/>
			<point x="2640" y="480"/>
		</contour>
		<contour>
			<point x="2767" y="685" type="curve"/>
			<point x="2760" y="646"/>
			<point x="2626" y="570"/>
			<point x="2595" y="557" type="curve" smooth="yes"/>
			<point x="2569" y="546"/>
			<point x="2524" y="542"/>
			<point x="2473" y="542" type="curve" smooth="yes"/>
			<point x="2369" y="542"/>
			<point x="2239" y="559"/>
			<point x="2187" y="566" type="curve"/>
			<point x="2205" y="573"/>
			<point x="2250" y="611"/>
			<point x="2261" y="621" type="curve" smooth="yes"/>
			<point x="2263" y="622"/>
			<point x="2266" y="623"/>
			<point x="2271" y="623" type="curve" smooth="yes"/>
			<point x="2278" y="623"/>
			<point x="2286" y="622"/>
			<point x="2295" y="620" type="curve" smooth="yes"/>
			<point x="2302" y="619"/>
			<point x="2310" y="618"/>
			<point x="2316" y="617" type="curve" smooth="yes"/>
			<point x="2337" y="614"/>
			<point x="2373" y="612"/>
			<point x="2414" y="612" type="curve" smooth="yes"/>
			<point x="2555" y="612"/>
			<point x="2700" y="661"/>
		</contour>
	</outline>
</glyph>
